<?xml version="1.0" encoding="UTF-8"?>
<!DOCTYPE svg  PUBLIC '-//W3C//DTD SVG 1.1//EN'  'http://www.w3.org/Graphics/SVG/1.1/DTD/svg11.dtd'>
<svg width="866.95pt" height="409.75pt" version="1.1" viewBox="0 0 866.95 409.75" xmlns="http://www.w3.org/2000/svg" xmlns:xlink="http://www.w3.org/1999/xlink">
 <defs>
  <style type="text/css">*{stroke-linejoin: round; stroke-linecap: butt}</style>
 </defs>
 <path d="m0 409.75h866.95v-409.75h-866.95v409.75z" opacity="0"/>
 <path d="m132.17 240.5h649.4v-233.3h-649.4v233.3z" opacity="0"/>
 <defs>
  <path id="b" d="m0 0v3.5" stroke="#000" stroke-width=".8"/>
 </defs>
 <use x="197.105625" y="240.504" stroke="#000000" stroke-width=".8" xlink:href="#b"/>
 <text transform="rotate(-0 197.11 273.48)" x="197.105625" y="273.475094" font-family="'Montserrat'" font-size="35px" font-weight="500" text-anchor="middle">2019</text>
 <use x="326.985625" y="240.504" stroke="#000000" stroke-width=".8" xlink:href="#b"/>
 <text transform="rotate(-0 326.99 273.48)" x="326.985625" y="273.475094" font-family="'Montserrat'" font-size="35px" font-weight="500" text-anchor="middle">2020</text>
 <use x="456.865625" y="240.504" stroke="#000000" stroke-width=".8" xlink:href="#b"/>
 <text transform="rotate(-0 456.87 273.48)" x="456.865625" y="273.475094" font-family="'Montserrat'" font-size="35px" font-weight="500" text-anchor="middle">2021</text>
 <use x="586.745625" y="240.504" stroke="#000000" stroke-width=".8" xlink:href="#b"/>
 <text transform="rotate(-0 586.75 273.48)" x="586.745625" y="273.475094" font-family="'Montserrat'" font-size="35px" font-weight="500" text-anchor="middle">2022</text>
 <use x="716.625625" y="240.504" stroke="#000000" stroke-width=".8" xlink:href="#b"/>
 <text transform="rotate(-0 716.63 273.48)" x="716.625625" y="273.475094" font-family="'Montserrat'" font-size="35px" font-weight="500" text-anchor="middle"></text>
 <path d="m132.17 205.46h649.4" clip-path="url(#a)" fill="none" stroke="#b9b9b9" stroke-linecap="square" stroke-width=".75"/>
 <defs>
  <path id="c" d="m0 0h-3.5" stroke="#000" stroke-width=".8"/>
 </defs>
 <use x="132.165625" y="205.462292" stroke="#000000" stroke-width=".8" xlink:href="#c"/>
 <text transform="rotate(-0 125.17 216.59)" x="125.165625" y="216.592761" font-family="'Montserrat'" font-size="30px" font-weight="500" text-anchor="end">100,000</text>
 <path d="m132.17 159.35h649.4" clip-path="url(#a)" fill="none" stroke="#b9b9b9" stroke-linecap="square" stroke-width=".75"/>
 <use x="132.165625" y="159.354783" stroke="#000000" stroke-width=".8" xlink:href="#c"/>
 <text transform="rotate(-0 125.17 170.49)" x="125.165625" y="170.485251" font-family="'Montserrat'" font-size="30px" font-weight="500" text-anchor="end">50,000</text>
 <path d="m132.17 113.25h649.4" clip-path="url(#a)" fill="none" stroke="#b9b9b9" stroke-linecap="square" stroke-width=".75"/>
 <use x="132.165625" y="113.247273" stroke="#000000" stroke-width=".8" xlink:href="#c"/>
 <text transform="rotate(-0 125.17 124.38)" x="125.165625" y="124.377741" font-family="'Montserrat'" font-size="30px" font-weight="500" text-anchor="end">0</text>
 <path d="m132.17 67.14h649.4" clip-path="url(#a)" fill="none" stroke="#b9b9b9" stroke-linecap="square" stroke-width=".75"/>
 <use x="132.165625" y="67.139763" stroke="#000000" stroke-width=".8" xlink:href="#c"/>
 <text transform="rotate(-0 125.17 78.27)" x="125.165625" y="78.270232" font-family="'Montserrat'" font-size="30px" font-weight="500" text-anchor="end">50,000</text>
 <path d="m132.17 21.032h649.4" clip-path="url(#a)" fill="none" stroke="#b9b9b9" stroke-linecap="square" stroke-width=".75"/>
 <use x="132.165625" y="21.032253" stroke="#000000" stroke-width=".8" xlink:href="#c"/>
 <text transform="rotate(-0 125.17 32.163)" x="125.165625" y="32.162722" font-family="'Montserrat'" font-size="30px" font-weight="500" text-anchor="end">100,000</text>
 <path d="m154.89 113.25h84.422v-46.108h-84.422z" clip-path="url(#a)" fill="#114a44"/>
 <path d="m154.89 67.14h84.422v-18.443h-84.422z" clip-path="url(#a)" fill="#739489"/>
 <path d="m154.89 113.25h84.422v18.443h-84.422z" clip-path="url(#a)" fill="#3d5c93"/>
 <path d="m154.89 131.69h84.422v9.2215h-84.422z" clip-path="url(#a)" fill="#7393b3"/>
 <path d="m284.77 113.25h84.422v-27.665h-84.422z" clip-path="url(#a)" fill="#114a44"/>
 <path d="m284.77 85.583h84.422v-9.2215h-84.422z" clip-path="url(#a)" fill="#739489"/>
 <path d="m284.77 113.25h84.422v36.886h-84.422z" clip-path="url(#a)" fill="#3d5c93"/>
 <path d="m284.77 150.13h84.422v18.443h-84.422z" clip-path="url(#a)" fill="#7393b3"/>
 <path d="m414.65 113.25h84.422v-36.886h-84.422z" clip-path="url(#a)" fill="#114a44"/>
 <path d="m414.65 76.361h84.422v-27.665h-84.422z" clip-path="url(#a)" fill="#739489"/>
 <path d="m414.65 113.25h84.422v9.2215h-84.422z" clip-path="url(#a)" fill="#3d5c93"/>
 <path d="m414.65 122.47h84.422v18.443h-84.422z" clip-path="url(#a)" fill="#7393b3"/>
 <path d="m544.53 113.25h84.422v-18.443h-84.422z" clip-path="url(#a)" fill="#114a44"/>
 <path d="m544.53 94.804h84.422v-9.2215h-84.422z" clip-path="url(#a)" fill="#739489"/>
 <path d="m544.53 113.25h84.422v27.665h-84.422z" clip-path="url(#a)" fill="#3d5c93"/>
 <path d="m544.53 140.91h84.422v9.2215h-84.422z" clip-path="url(#a)" fill="#7393b3"/>
 <path d="m674.41 113.25h84.422v92.215h-84.422v-92.215z" clip-path="url(#a)" fill="none" stroke="#114a44" stroke-dasharray="3.5,5.775" stroke-width="3.5"/>
 <path d="m132.17 113.25h649.4" clip-path="url(#a)" fill="none" stroke="#000" stroke-linecap="square"/>
 <path d="m132.17 240.5h649.4" fill="none" stroke="#000" stroke-linecap="square" stroke-width=".8"/>
 <text transform="rotate(-0 197.11 92.659)" x="197.105625" y="92.659377" fill="#ffffff" font-family="'Montserrat'" font-size="9px" font-weight="700" text-anchor="middle">50,000 (71.4%)</text>
 <text transform="rotate(-0 197.11 60.384)" x="197.105625" y="60.38412" font-family="'Montserrat'" font-size="9px" font-weight="700" text-anchor="middle">20,000 (28.6%)</text>
 <text transform="rotate(-0 197.11 124.93)" x="197.105625" y="124.934634" fill="#ffffff" font-family="'Montserrat'" font-size="9px" font-weight="700" text-anchor="middle">20,000 (66.7%)</text>
 <text transform="rotate(-0 197.11 138.77)" x="197.105625" y="138.766887" font-family="'Montserrat'" font-size="9px" font-weight="700" text-anchor="middle">10,000 (33.3%)</text>
 <path d="m162.8 44.273h68.603q16 0 16-16v7.2781q0-16-16-16h-68.603q-16 0-16 16v-7.2781q0 16 16 16z" fill="none" stroke="#002f2a" stroke-width="1.5"/>
 <text transform="rotate(-0 197.11 37.392)" x="197.105625" y="37.3922" font-family="'Montserrat'" font-size="20px" font-weight="700" text-anchor="middle">70,000  </text>
 <path d="m163.08 162.63h68.044q16 0 16-16v7.2781q0-16-16-16h-68.044q-16 0-16 16v-7.2781q0 16 16 16z" fill="none" stroke="#002f2a" stroke-width="1.5"/>
 <text transform="rotate(-0 197.11 155.75)" x="197.105625" y="155.752404" font-family="'Montserrat'" font-size="20px" font-weight="700" text-anchor="middle">30,000  </text>
 <text transform="rotate(-0 326.99 101.88)" x="326.985625" y="101.880879" fill="#ffffff" font-family="'Montserrat'" font-size="9px" font-weight="700" text-anchor="middle">30,000 (75.0%)</text>
 <text transform="rotate(-0 326.99 83.438)" x="326.985625" y="83.437875" font-family="'Montserrat'" font-size="9px" font-weight="700" text-anchor="middle">10,000 (25.0%)</text>
 <text transform="rotate(-0 326.99 134.16)" x="326.985625" y="134.156136" fill="#ffffff" font-family="'Montserrat'" font-size="9px" font-weight="700" text-anchor="middle">40,000 (66.7%)</text>
 <text transform="rotate(-0 326.99 161.82)" x="326.985625" y="161.820642" font-family="'Montserrat'" font-size="9px" font-weight="700" text-anchor="middle">20,000 (33.3%)</text>
 <path d="m291.99 71.938h69.984q16 0 16-16v7.2781q0-16-16-16h-69.984q-16 0-16 16v-7.2781q0 16 16 16z" fill="none" stroke="#002f2a" stroke-width="1.5"/>
 <text transform="rotate(-0 326.99 65.057)" x="326.985625" y="65.056706" font-family="'Montserrat'" font-size="20px" font-weight="700" text-anchor="middle">40,000  </text>
 <path d="m292.51 190.3h68.944q16 0 16-16v7.2781q0-16-16-16h-68.944q-16 0-16 16v-7.2781q0 16 16 16z" fill="none" stroke="#002f2a" stroke-width="1.5"/>
 <text transform="rotate(-0 326.99 183.42)" x="326.985625" y="183.41691" font-family="'Montserrat'" font-size="20px" font-weight="700" text-anchor="middle">60,000  </text>
 <text transform="rotate(-0 456.87 97.27)" x="456.865625" y="97.270128" fill="#ffffff" font-family="'Montserrat'" font-size="9px" font-weight="700" text-anchor="middle">40,000 (57.1%)</text>
 <text transform="rotate(-0 456.87 64.995)" x="456.865625" y="64.994871" font-family="'Montserrat'" font-size="9px" font-weight="700" text-anchor="middle">30,000 (42.9%)</text>
 <text transform="rotate(-0 456.87 120.32)" x="456.865625" y="120.323883" fill="#ffffff" font-family="'Montserrat'" font-size="9px" font-weight="700" text-anchor="middle">10,000 (33.3%)</text>
 <text transform="rotate(-0 456.87 134.16)" x="456.865625" y="134.156136" font-family="'Montserrat'" font-size="9px" font-weight="700" text-anchor="middle">20,000 (66.7%)</text>
 <path d="m422.56 44.273h68.603q16 0 16-16v7.2781q0-16-16-16h-68.603q-16 0-16 16v-7.2781q0 16 16 16z" fill="none" stroke="#002f2a" stroke-width="1.5"/>
 <text transform="rotate(-0 456.87 37.392)" x="456.865625" y="37.3922" font-family="'Montserrat'" font-size="20px" font-weight="700" text-anchor="middle">70,000  </text>
 <path d="m422.84 162.63h68.044q16 0 16-16v7.2781q0-16-16-16h-68.044q-16 0-16 16v-7.2781q0 16 16 16z" fill="none" stroke="#002f2a" stroke-width="1.5"/>
 <text transform="rotate(-0 456.87 155.75)" x="456.865625" y="155.752404" font-family="'Montserrat'" font-size="20px" font-weight="700" text-anchor="middle">30,000  </text>
 <text transform="rotate(-0 586.75 106.49)" x="586.745625" y="106.49163" fill="#ffffff" font-family="'Montserrat'" font-size="9px" font-weight="700" text-anchor="middle">20,000 (66.7%)</text>
 <text transform="rotate(-0 586.75 92.659)" x="586.745625" y="92.659377" font-family="'Montserrat'" font-size="9px" font-weight="700" text-anchor="middle">10,000 (33.3%)</text>
 <text transform="rotate(-0 586.75 129.55)" x="586.745625" y="129.545385" fill="#ffffff" font-family="'Montserrat'" font-size="9px" font-weight="700" text-anchor="middle">30,000 (75.0%)</text>
 <text transform="rotate(-0 586.75 147.99)" x="586.745625" y="147.988389" font-family="'Montserrat'" font-size="9px" font-weight="700" text-anchor="middle">10,000 (25.0%)</text>
 <path d="m552.72 81.159h68.044q16 0 16-16v7.2781q0-16-16-16h-68.044q-16 0-16 16v-7.2781q0 16 16 16z" fill="none" stroke="#002f2a" stroke-width="1.5"/>
 <text transform="rotate(-0 586.75 74.278)" x="586.745625" y="74.278208" font-family="'Montserrat'" font-size="20px" font-weight="700" text-anchor="middle">30,000  </text>
 <path d="m551.75 171.86h69.984q16 0 16-16v7.2781q0-16-16-16h-69.984q-16 0-16 16v-7.2781q0 16 16 16z" fill="none" stroke="#002f2a" stroke-width="1.5"/>
 <text transform="rotate(-0 586.75 164.97)" x="586.745625" y="164.973906" font-family="'Montserrat'" font-size="20px" font-weight="700" text-anchor="middle">40,000  </text>
 <text transform="rotate(-0 716.63 161.82)" x="716.625625" y="161.820642" fill="#114a44" font-family="'Montserrat'" font-size="9px" font-weight="700" text-anchor="middle">100,000</text>
 <path d="m677.81 227.18h77.625q16 0 16-16v7.2781q0-16-16-16h-77.625q-16 0-16 16v-7.2781q0 16 16 16z" fill="none" stroke="#002f2a" stroke-width="1.5"/>
 <text transform="rotate(-0 716.63 220.3)" x="716.625625" y="220.302917" font-family="'Montserrat'" font-size="20px" font-weight="700" text-anchor="middle">100,000  </text>
 <path d="m63.577 318.58h24v-21.48h-24z" fill="#114a44"/>
 <text transform="rotate(-0 106.78 316.06)" x="106.776875" y="316.0596" font-family="'DejaVu Sans', 'Bitstream Vera Sans', 'Computer Modern Sans Serif', 'Lucida Grande', 'Verdana', 'Geneva', 'Lucid', 'Arial', 'Helvetica', 'Avant Garde', sans-serif" font-size="24px">Acomulado anterior </text>
 <path d="m63.577 354.53h24v-21.48h-24z" fill="#739489"/>
 <text transform="rotate(-0 106.78 352.01)" x="106.776875" y="352.01085" font-family="'DejaVu Sans', 'Bitstream Vera Sans', 'Computer Modern Sans Serif', 'Lucida Grande', 'Verdana', 'Geneva', 'Lucid', 'Arial', 'Helvetica', 'Avant Garde', sans-serif" font-size="24px">Desaparecidos del periodo</text>
 <path d="m63.577 390.48h24v-21.48h-24z" fill="#3d5c93"/>
 <text transform="rotate(-0 106.78 387.96)" x="106.776875" y="387.9621" font-family="'DejaVu Sans', 'Bitstream Vera Sans', 'Computer Modern Sans Serif', 'Lucida Grande', 'Verdana', 'Geneva', 'Lucid', 'Arial', 'Helvetica', 'Avant Garde', sans-serif" font-size="24px">Localizados de años anteriores</text>
 <path d="m525.28 318.58h24v-21.48h-24z" fill="#7393b3"/>
 <text transform="rotate(-0 568.48 316.06)" x="568.480625" y="316.0596" font-family="'DejaVu Sans', 'Bitstream Vera Sans', 'Computer Modern Sans Serif', 'Lucida Grande', 'Verdana', 'Geneva', 'Lucid', 'Arial', 'Helvetica', 'Avant Garde', sans-serif" font-size="24px">Localizados del periodo</text>
 <path d="m525.28 354.53h24v-21.48h-24v21.48z" fill="none" stroke="#114a44" stroke-dasharray="3.5,5.775" stroke-width="3.5"/>
 <text transform="rotate(-0 568.48 352.01)" x="568.480625" y="352.01085" font-family="'DejaVu Sans', 'Bitstream Vera Sans', 'Computer Modern Sans Serif', 'Lucida Grande', 'Verdana', 'Geneva', 'Lucid', 'Arial', 'Helvetica', 'Avant Garde', sans-serif" font-size="24px">Sin año de localización</text>
 <defs>
  <clipPath id="a">
   <rect x="132.17" y="7.2" width="649.4" height="233.3"/>
  </clipPath>
 </defs>
</svg>
