<?xml version="1.0" encoding="UTF-8"?>
<!DOCTYPE svg  PUBLIC '-//W3C//DTD SVG 1.1//EN'  'http://www.w3.org/Graphics/SVG/1.1/DTD/svg11.dtd'>
<svg width="1936.8pt" height="944.15pt" version="1.1" viewBox="0 0 1936.8 944.15" xmlns="http://www.w3.org/2000/svg" xmlns:xlink="http://www.w3.org/1999/xlink">
 <defs>
  <style type="text/css">*{stroke-linejoin: round; stroke-linecap: butt}</style>
 </defs>
 <path d="m0 944.15h1936.8v-944.15h-1936.8v944.15z" opacity="0"/>
 <path d="m83.533 524.61h1846.1v-490.19h-1846.1v490.19z" opacity="0"/>
 <defs>
  <path id="b" d="m0 0v3.5" stroke="#000" stroke-width=".8"/>
 </defs>
 <use x="114.300646" y="524.610384" stroke="#000000" stroke-width=".8" xlink:href="#b"/>
 <text transform="translate(107.51 657.75) rotate(-90)" font-family="'Montserrat'" font-size="35px" font-weight="500">México</text>
 <use x="175.836312" y="524.610384" stroke="#000000" stroke-width=".8" xlink:href="#b"/>
 <text transform="translate(169.04 630.45) rotate(-90)" font-family="'Montserrat'" font-size="35px" font-weight="500">Brasil</text>
 <use x="237.371979" y="524.610384" stroke="#000000" stroke-width=".8" xlink:href="#b"/>
 <text transform="translate(230.37 710.01) rotate(-90)" font-family="'Montserrat'" font-size="35px" font-weight="500">Argentina</text>
 <use x="298.907646" y="524.610384" stroke="#000000" stroke-width=".8" xlink:href="#b"/>
 <text transform="translate(292.12 621.7) rotate(-90)" font-family="'Montserrat'" font-size="35px" font-weight="500">Chile</text>
 <use x="360.443312" y="524.610384" stroke="#000000" stroke-width=".8" xlink:href="#b"/>
 <text transform="translate(353.65 702.69) rotate(-90)" font-family="'Montserrat'" font-size="35px" font-weight="500">Colombia</text>
 <use x="421.978979" y="524.610384" stroke="#000000" stroke-width=".8" xlink:href="#b"/>
 <text transform="translate(415.19 616.35) rotate(-90)" font-family="'Montserrat'" font-size="35px" font-weight="500">Perú</text>
 <use x="483.514646" y="524.610384" stroke="#000000" stroke-width=".8" xlink:href="#b"/>
 <text transform="translate(476.72 717.25) rotate(-90)" font-family="'Montserrat'" font-size="35px" font-weight="500">Venezuela</text>
 <use x="545.050313" y="524.610384" stroke="#000000" stroke-width=".8" xlink:href="#b"/>
 <text transform="translate(538.26 680.11) rotate(-90)" font-family="'Montserrat'" font-size="35px" font-weight="500">Ecuador</text>
 <use x="606.585979" y="524.610384" stroke="#000000" stroke-width=".8" xlink:href="#b"/>
 <text transform="translate(599.79 650.13) rotate(-90)" font-family="'Montserrat'" font-size="35px" font-weight="500">Bolivia</text>
 <use x="668.121646" y="524.610384" stroke="#000000" stroke-width=".8" xlink:href="#b"/>
 <text transform="translate(661.12 685.68) rotate(-90)" font-family="'Montserrat'" font-size="35px" font-weight="500">Uruguay</text>
 <use x="729.657312" y="524.610384" stroke="#000000" stroke-width=".8" xlink:href="#b"/>
 <text transform="translate(722.66 701.43) rotate(-90)" font-family="'Montserrat'" font-size="35px" font-weight="500">Paraguay</text>
 <use x="791.192979" y="524.610384" stroke="#000000" stroke-width=".8" xlink:href="#b"/>
 <text transform="translate(784.4 717.64) rotate(-90)" font-family="'Montserrat'" font-size="35px" font-weight="500">Costa Rica</text>
 <use x="852.728646" y="524.610384" stroke="#000000" stroke-width=".8" xlink:href="#b"/>
 <text transform="translate(845.94 680.5) rotate(-90)" font-family="'Montserrat'" font-size="35px" font-weight="500">Panamá</text>
 <use x="914.264312" y="524.610384" stroke="#000000" stroke-width=".8" xlink:href="#b"/>
 <text transform="translate(907.47 727.79) rotate(-90)" font-family="'Montserrat'" font-size="35px" font-weight="500">Guatemala</text>
 <use x="975.799979" y="524.610384" stroke="#000000" stroke-width=".8" xlink:href="#b"/>
 <text transform="translate(969.01 706.47) rotate(-90)" font-family="'Montserrat'" font-size="35px" font-weight="500">Honduras</text>
 <use x="1037.335646" y="524.610384" stroke="#000000" stroke-width=".8" xlink:href="#b"/>
 <text transform="translate(1030.5 727.62) rotate(-90)" font-family="'Montserrat'" font-size="35px" font-weight="500">El Salvador</text>
 <use x="1098.871312" y="524.610384" stroke="#000000" stroke-width=".8" xlink:href="#b"/>
 <text transform="translate(1091.9 714.76) rotate(-90)" font-family="'Montserrat'" font-size="35px" font-weight="500">Nicaragua</text>
 <use x="1160.406979" y="524.610384" stroke="#000000" stroke-width=".8" xlink:href="#b"/>
 <text transform="translate(1153.6 625.41) rotate(-90)" font-family="'Montserrat'" font-size="35px" font-weight="500">Cuba</text>
 <use x="1221.942646" y="524.610384" stroke="#000000" stroke-width=".8" xlink:href="#b"/>
 <text transform="translate(1215.2 936.95) rotate(-90)" font-family="'Montserrat'" font-size="35px" font-weight="500">República Dominicana</text>
 <use x="1283.478313" y="524.610384" stroke="#000000" stroke-width=".8" xlink:href="#b"/>
 <text transform="translate(1276.7 739.9) rotate(-90)" font-family="'Montserrat'" font-size="35px" font-weight="500">Puerto Rico</text>
 <use x="1345.013979" y="524.610384" stroke="#000000" stroke-width=".8" xlink:href="#b"/>
 <text transform="translate(1338.2 662.15) rotate(-90)" font-family="'Montserrat'" font-size="35px" font-weight="500">España</text>
 <use x="1406.549646" y="524.610384" stroke="#000000" stroke-width=".8" xlink:href="#b"/>
 <text transform="translate(1399.5 686.49) rotate(-90)" font-family="'Montserrat'" font-size="35px" font-weight="500">Portugal</text>
 <use x="1468.085313" y="524.610384" stroke="#000000" stroke-width=".8" xlink:href="#b"/>
 <text transform="translate(1461.3 663.63) rotate(-90)" font-family="'Montserrat'" font-size="35px" font-weight="500">Francia</text>
 <use x="1529.620979" y="524.610384" stroke="#000000" stroke-width=".8" xlink:href="#b"/>
 <text transform="translate(1522.8 618.34) rotate(-90)" font-family="'Montserrat'" font-size="35px" font-weight="500">Italia</text>
 <use x="1591.156646" y="524.610384" stroke="#000000" stroke-width=".8" xlink:href="#b"/>
 <text transform="translate(1584.4 700.87) rotate(-90)" font-family="'Montserrat'" font-size="35px" font-weight="500">Alemania</text>
 <use x="1652.692313" y="524.610384" stroke="#000000" stroke-width=".8" xlink:href="#b"/>
 <text transform="translate(1645.9 751.1) rotate(-90)" font-family="'Montserrat'" font-size="35px" font-weight="500">Reino Unido</text>
 <use x="1714.227979" y="524.610384" stroke="#000000" stroke-width=".8" xlink:href="#b"/>
 <text transform="translate(1707.4 628.98) rotate(-90)" font-family="'Montserrat'" font-size="35px" font-weight="500">Rusia</text>
 <use x="1775.763646" y="524.610384" stroke="#000000" stroke-width=".8" xlink:href="#b"/>
 <text transform="translate(1769 635.28) rotate(-90)" font-family="'Montserrat'" font-size="35px" font-weight="500">China</text>
 <use x="1837.299313" y="524.610384" stroke="#000000" stroke-width=".8" xlink:href="#b"/>
 <text transform="translate(1830.5 640.42) rotate(-90)" font-family="'Montserrat'" font-size="35px" font-weight="500">Japón</text>
 <use x="1898.834979" y="524.610384" stroke="#000000" stroke-width=".8" xlink:href="#b"/>
 <text transform="translate(1892 620.86) rotate(-90)" font-family="'Montserrat'" font-size="35px" font-weight="500">India</text>
 <path d="m83.533 472.09h1846.1" clip-path="url(#a)" fill="none" stroke="#b9b9b9" stroke-linecap="square" stroke-width=".75"/>
 <defs>
  <path id="c" d="m0 0h-3.5" stroke="#000" stroke-width=".8"/>
 </defs>
 <use x="83.532813" y="472.089513" stroke="#000000" stroke-width=".8" xlink:href="#c"/>
 <text transform="rotate(-0 76.533 483.22)" x="76.532813" y="483.219981" font-family="'Montserrat'" font-size="30px" font-weight="500" text-anchor="end">-1%</text>
 <path d="m83.533 384.55h1846.1" clip-path="url(#a)" fill="none" stroke="#b9b9b9" stroke-linecap="square" stroke-width=".75"/>
 <use x="83.532813" y="384.554727" stroke="#000000" stroke-width=".8" xlink:href="#c"/>
 <text transform="rotate(-0 76.533 395.69)" x="76.532813" y="395.685196" font-family="'Montserrat'" font-size="30px" font-weight="500" text-anchor="end">-0.5</text>
 <path d="m83.533 297.02h1846.1" clip-path="url(#a)" fill="none" stroke="#b9b9b9" stroke-linecap="square" stroke-width=".75"/>
 <use x="83.532813" y="297.019941" stroke="#000000" stroke-width=".8" xlink:href="#c"/>
 <text transform="rotate(-0 76.533 308.15)" x="76.532813" y="308.15041" font-family="'Montserrat'" font-size="30px" font-weight="500" text-anchor="end">0%</text>
 <path d="m83.533 209.49h1846.1" clip-path="url(#a)" fill="none" stroke="#b9b9b9" stroke-linecap="square" stroke-width=".75"/>
 <use x="83.532813" y="209.485155" stroke="#000000" stroke-width=".8" xlink:href="#c"/>
 <text transform="rotate(-0 76.533 220.62)" x="76.532813" y="220.615624" font-family="'Montserrat'" font-size="30px" font-weight="500" text-anchor="end">0.5%</text>
 <path d="m83.533 121.95h1846.1" clip-path="url(#a)" fill="none" stroke="#b9b9b9" stroke-linecap="square" stroke-width=".75"/>
 <use x="83.532813" y="121.95037" stroke="#000000" stroke-width=".8" xlink:href="#c"/>
 <text transform="rotate(-0 76.533 133.08)" x="76.532813" y="133.080838" font-family="'Montserrat'" font-size="30px" font-weight="500" text-anchor="end">1%</text>
 <path d="m83.533 34.416h1846.1" clip-path="url(#a)" fill="none" stroke="#b9b9b9" stroke-linecap="square" stroke-width=".75"/>
 <use x="83.532813" y="34.415584" stroke="#000000" stroke-width=".8" xlink:href="#c"/>
 <text transform="rotate(-0 76.533 45.546)" x="76.532813" y="45.546053" font-family="'Montserrat'" font-size="30px" font-weight="500" text-anchor="end">1.5%</text>
 <path d="m92.763 297.02h43.075v96.288h-43.075z" clip-path="url(#a)" fill="#10302c"/>
 <path d="m154.3 297.02h43.075v84.033h-43.075z" clip-path="url(#a)" fill="#10302c"/>
 <path d="m215.83 297.02h43.075v73.529h-43.075z" clip-path="url(#a)" fill="#10302c"/>
 <path d="m277.37 297.02h43.075v68.277h-43.075z" clip-path="url(#a)" fill="#10302c"/>
 <path d="m338.91 297.02h43.075v61.274h-43.075z" clip-path="url(#a)" fill="#10302c"/>
 <path d="m400.44 297.02h43.075v54.272h-43.075z" clip-path="url(#a)" fill="#10302c"/>
 <path d="m461.98 297.02h43.075v49.019h-43.075z" clip-path="url(#a)" fill="#10302c"/>
 <path d="m523.51 297.02h43.075v38.515h-43.075z" clip-path="url(#a)" fill="#10302c"/>
 <path d="m585.05 297.02h43.075v31.513h-43.075z" clip-path="url(#a)" fill="#10302c"/>
 <path d="m646.58 297.02h43.075v22.759h-43.075z" clip-path="url(#a)" fill="#10302c"/>
 <path d="m708.12 297.02h43.075v15.756h-43.075z" clip-path="url(#a)" fill="#10302c"/>
 <path d="m769.66 297.02h43.075v8.7535h-43.075z" clip-path="url(#a)" fill="#10302c"/>
 <path d="m892.73 297.02h43.075v-7.0028h-43.075z" clip-path="url(#a)" fill="#10302c"/>
 <path d="m954.26 297.02h43.075v-15.756h-43.075z" clip-path="url(#a)" fill="#10302c"/>
 <path d="m1015.8 297.02h43.075v-22.759h-43.075z" clip-path="url(#a)" fill="#10302c"/>
 <path d="m1077.3 297.02h43.075v-31.513h-43.075z" clip-path="url(#a)" fill="#10302c"/>
 <path d="m1138.9 297.02h43.075v-38.515h-43.075z" clip-path="url(#a)" fill="#10302c"/>
 <path d="m1200.4 297.02h43.075v-47.269h-43.075z" clip-path="url(#a)" fill="#10302c"/>
 <path d="m1261.9 297.02h43.075v-54.272h-43.075z" clip-path="url(#a)" fill="#10302c"/>
 <path d="m1323.5 297.02h43.075v-63.025h-43.075z" clip-path="url(#a)" fill="#e6e6e6"/>
 <path d="m1385 297.02h43.075v-70.028h-43.075z" clip-path="url(#a)" fill="#e6e6e6"/>
 <path d="m1446.5 297.02h43.075v-78.781h-43.075z" clip-path="url(#a)" fill="#e6e6e6"/>
 <path d="m1508.1 297.02h43.075v-85.784h-43.075z" clip-path="url(#a)" fill="#e6e6e6"/>
 <path d="m1569.6 297.02h43.075v-94.538h-43.075z" clip-path="url(#a)" fill="#e6e6e6"/>
 <path d="m1631.2 297.02h43.075v-101.54h-43.075z" clip-path="url(#a)" fill="#e6e6e6"/>
 <path d="m1692.7 297.02h43.075v-110.29h-43.075z" clip-path="url(#a)" fill="#e6e6e6"/>
 <path d="m1754.2 297.02h43.075v-117.3h-43.075z" clip-path="url(#a)" fill="#ff5733"/>
 <path d="m1815.8 297.02h43.075v-126.05h-43.075z" clip-path="url(#a)" fill="#ff5733"/>
 <path d="m1877.3 297.02h43.075v-136.55h-43.075z" clip-path="url(#a)" fill="#ff5733"/>
 <path d="m83.533 297.02h1846.1" clip-path="url(#a)" fill="none" stroke="#000" stroke-linecap="square"/>
 <path d="m83.533 524.61h1846.1" fill="none" stroke="#000" stroke-linecap="square" stroke-width=".8"/>
 <path d="m135.93 497.33v-68.704q0-28-28-28h12.737q-28 0-28 28v68.704q0 28 28 28h-12.737q28 0 28-28z" fill="none" stroke="#002f2a" stroke-width="1.5"/>
 <text transform="translate(123.89 520.08) rotate(-90)" font-family="'Montserrat'" font-size="35px" font-weight="700">0.55  </text>
 <path d="m197.47 490.64v-74.271q0-28-28-28h12.737q-28 0-28 28v74.271q0 28 28 28h-12.737q28 0 28-28z" fill="none" stroke="#002f2a" stroke-width="1.5"/>
 <text transform="translate(185.43 513.39) rotate(-90)" font-family="'Montserrat'" font-size="35px" font-weight="700">0.48  </text>
 <path d="m259 477.68v-71.821q0-28-28-28h12.737q-28 0-28 28v71.821q0 28 28 28h-12.737q28 0 28-28z" fill="none" stroke="#002f2a" stroke-width="1.5"/>
 <text transform="translate(246.96 500.43) rotate(-90)" font-family="'Montserrat'" font-size="35px" font-weight="700">0.42  </text>
 <path d="m320.54 470.68v-70.071q0-28-28-28h12.737q-28 0-28 28v70.071q0 28 28 28h-12.737q28 0 28-28z" fill="none" stroke="#002f2a" stroke-width="1.5"/>
 <text transform="translate(308.5 493.43) rotate(-90)" font-family="'Montserrat'" font-size="35px" font-weight="700">0.39  </text>
 <path d="m382.07 462.21v-68.6q0-28-28-28h12.737q-28 0-28 28v68.6q0 28 28 28h-12.737q28 0 28-28z" fill="none" stroke="#002f2a" stroke-width="1.5"/>
 <text transform="translate(370.03 484.96) rotate(-90)" font-family="'Montserrat'" font-size="35px" font-weight="700">0.35  </text>
 <path d="m443.61 448.1v-61.496q0-28-28-28h12.737q-28 0-28 28v61.496q0 28 28 28h-12.737q28 0 28-28z" fill="none" stroke="#002f2a" stroke-width="1.5"/>
 <text transform="translate(431.57 470.85) rotate(-90)" font-family="'Montserrat'" font-size="35px" font-weight="700">0.31  </text>
 <path d="m505.15 452.16v-70.804q0-28-28-28h12.737q-28 0-28 28v70.804q0 28 28 28h-12.737q28 0 28-28z" fill="none" stroke="#002f2a" stroke-width="1.5"/>
 <text transform="translate(493.1 474.91) rotate(-90)" font-family="'Montserrat'" font-size="35px" font-weight="700">0.28  </text>
 <path d="m566.68 439.2v-68.354q0-28-28-28h12.737q-28 0-28 28v68.354q0 28 28 28h-12.737q28 0 28-28z" fill="none" stroke="#002f2a" stroke-width="1.5"/>
 <text transform="translate(554.64 461.95) rotate(-90)" font-family="'Montserrat'" font-size="35px" font-weight="700">0.22  </text>
 <path d="m628.22 427.72v-63.875q0-28-28-28h12.737q-28 0-28 28v63.875q0 28 28 28h-12.737q28 0 28-28z" fill="none" stroke="#002f2a" stroke-width="1.5"/>
 <text transform="translate(616.18 450.47) rotate(-90)" font-family="'Montserrat'" font-size="35px" font-weight="700">0.18  </text>
 <path d="m689.75 416.59v-61.496q0-28-28-28h12.737q-28 0-28 28v61.496q0 28 28 28h-12.737q28 0 28-28z" fill="none" stroke="#002f2a" stroke-width="1.5"/>
 <text transform="translate(677.71 439.34) rotate(-90)" font-family="'Montserrat'" font-size="35px" font-weight="700">0.13  </text>
 <path d="m751.29 421.21v-73.117q0-28-28-28h12.737q-28 0-28 28v73.117q0 28 28 28h-12.737q28 0 28-28z" fill="none" stroke="#002f2a" stroke-width="1.5"/>
 <text transform="translate(739.25 443.96) rotate(-90)" font-family="'Montserrat'" font-size="35px" font-weight="700">0.09  </text>
 <path d="m812.82 412.73v-71.646q0-28-28-28h12.737q-28 0-28 28v71.646q0 28 28 28h-12.737q28 0 28-28z" fill="none" stroke="#002f2a" stroke-width="1.5"/>
 <text transform="translate(800.78 435.48) rotate(-90)" font-family="'Montserrat'" font-size="35px" font-weight="700">0.05  </text>
 <path d="m874.36 261.71v-74.588q0-28-28-28h12.737q-28 0-28 28v74.588q0 28 28 28h-12.737q28 0 28-28z" fill="none" stroke="#002f2a" stroke-width="1.5"/>
 <text transform="translate(862.32 284.46) rotate(-90)" font-family="'Montserrat'" font-size="35px" font-weight="700">0.00  </text>
 <path d="m935.9 254.7v-74.938q0-28-28-28h12.737q-28 0-28 28v74.938q0 28 28 28h-12.737q28 0 28-28z" fill="none" stroke="#002f2a" stroke-width="1.5"/>
 <text transform="translate(923.85 277.45) rotate(-90)" font-family="'Montserrat'" font-size="35px" font-weight="700">0.04  </text>
 <path d="m997.43 245.95v-73.117q0-28-28-28h12.737q-28 0-28 28v73.117q0 28 28 28h-12.737q28 0 28-28z" fill="none" stroke="#002f2a" stroke-width="1.5"/>
 <text transform="translate(985.39 268.7) rotate(-90)" font-family="'Montserrat'" font-size="35px" font-weight="700">0.09  </text>
 <path d="m1059 238.95v-61.496q0-28-28-28h12.737q-28 0-28 28v61.496q0 28 28 28h-12.737q28 0 28-28z" fill="none" stroke="#002f2a" stroke-width="1.5"/>
 <text transform="translate(1046.9 261.7) rotate(-90)" font-family="'Montserrat'" font-size="35px" font-weight="700">0.13  </text>
 <path d="m1120.5 230.19v-63.875q0-28-28-28h12.737q-28 0-28 28v63.875q0 28 28 28h-12.737q28 0 28-28z" fill="none" stroke="#002f2a" stroke-width="1.5"/>
 <text transform="translate(1108.5 252.94) rotate(-90)" font-family="'Montserrat'" font-size="35px" font-weight="700">0.18  </text>
 <path d="m1182 223.19v-68.354q0-28-28-28h12.737q-28 0-28 28v68.354q0 28 28 28h-12.737q28 0 28-28z" fill="none" stroke="#002f2a" stroke-width="1.5"/>
 <text transform="translate(1170 245.94) rotate(-90)" font-family="'Montserrat'" font-size="35px" font-weight="700">0.22  </text>
 <path d="m1243.6 214.44v-69.404q0-28-28-28h12.737q-28 0-28 28v69.404q0 28 28 28h-12.737q28 0 28-28z" fill="none" stroke="#002f2a" stroke-width="1.5"/>
 <text transform="translate(1231.5 237.19) rotate(-90)" font-family="'Montserrat'" font-size="35px" font-weight="700">0.27  </text>
 <path d="m1305.1 207.44v-61.496q0-28-28-28h12.737q-28 0-28 28v61.496q0 28 28 28h-12.737q28 0 28-28z" fill="none" stroke="#002f2a" stroke-width="1.5"/>
 <text transform="translate(1293.1 230.19) rotate(-90)" font-family="'Montserrat'" font-size="35px" font-weight="700">0.31  </text>
 <path d="m1366.6 198.68v-70.071q0-28-28-28h12.737q-28 0-28 28v70.071q0 28 28 28h-12.737q28 0 28-28z" fill="none" stroke="#002f2a" stroke-width="1.5"/>
 <text transform="translate(1354.6 221.43) rotate(-90)" font-family="'Montserrat'" font-size="35px" font-weight="700">0.36  </text>
 <path d="m1428.2 191.68v-74.938q0-28-28-28h12.737q-28 0-28 28v74.938q0 28 28 28h-12.737q28 0 28-28z" fill="none" stroke="#002f2a" stroke-width="1.5"/>
 <text transform="translate(1416.1 214.43) rotate(-90)" font-family="'Montserrat'" font-size="35px" font-weight="700">0.40  </text>
 <path d="m1489.7 182.93v-71.996q0-28-28-28h12.737q-28 0-28 28v71.996q0 28 28 28h-12.737q28 0 28-28z" fill="none" stroke="#002f2a" stroke-width="1.5"/>
 <text transform="translate(1477.7 205.68) rotate(-90)" font-family="'Montserrat'" font-size="35px" font-weight="700">0.45  </text>
 <path d="m1551.3 175.92v-73.467q0-28-28-28h12.737q-28 0-28 28v73.467q0 28 28 28h-12.737q28 0 28-28z" fill="none" stroke="#002f2a" stroke-width="1.5"/>
 <text transform="translate(1539.2 198.67) rotate(-90)" font-family="'Montserrat'" font-size="35px" font-weight="700">0.49  </text>
 <path d="m1612.8 167.17v-71.996q0-28-28-28h12.737q-28 0-28 28v71.996q0 28 28 28h-12.737q28 0 28-28z" fill="none" stroke="#002f2a" stroke-width="1.5"/>
 <text transform="translate(1600.7 189.92) rotate(-90)" font-family="'Montserrat'" font-size="35px" font-weight="700">0.54  </text>
 <path d="m1674.3 160.17v-70.979q0-28-28-28h12.737q-28 0-28 28v70.979q0 28 28 28h-12.737q28 0 28-28z" fill="none" stroke="#002f2a" stroke-width="1.5"/>
 <text transform="translate(1662.3 182.92) rotate(-90)" font-family="'Montserrat'" font-size="35px" font-weight="700">0.58  </text>
 <path d="m1735.9 151.41v-70.071q0-28-28-28h12.737q-28 0-28 28v70.071q0 28 28 28h-12.737q28 0 28-28z" fill="none" stroke="#002f2a" stroke-width="1.5"/>
 <text transform="translate(1723.8 174.16) rotate(-90)" font-family="'Montserrat'" font-size="35px" font-weight="700">0.63  </text>
 <path d="m1797.4 144.41v-71.05q0-28-28-28h12.737q-28 0-28 28v71.05q0 28 28 28h-12.737q28 0 28-28z" fill="none" stroke="#002f2a" stroke-width="1.5"/>
 <text transform="translate(1785.4 167.16) rotate(-90)" font-family="'Montserrat'" font-size="35px" font-weight="700">0.67  </text>
 <path d="m1858.9 135.66v-69.404q0-28-28-28h12.737q-28 0-28 28v69.404q0 28 28 28h-12.737q28 0 28-28z" fill="none" stroke="#002f2a" stroke-width="1.5"/>
 <text transform="translate(1846.9 158.41) rotate(-90)" font-family="'Montserrat'" font-size="35px" font-weight="700">0.72  </text>
 <path d="m1920.5 125.15v-71.854q0-28-28-28h12.737q-28 0-28 28v71.854q0 28 28 28h-12.737q28 0 28-28z" fill="none" stroke="#002f2a" stroke-width="1.5"/>
 <text transform="translate(1908.4 147.9) rotate(-90)" font-family="'Montserrat'" font-size="35px" font-weight="700">0.78  </text>
 <path d="m776.96 38.28h24v-21.48h-24z" fill="#10302c" stroke="#10302c"/>
 <text transform="rotate(-0 820.16 35.76)" x="820.155312" y="35.76" font-family="'DejaVu Sans', 'Bitstream Vera Sans', 'Computer Modern Sans Serif', 'Lucida Grande', 'Verdana', 'Geneva', 'Lucid', 'Arial', 'Helvetica', 'Avant Garde', sans-serif" font-size="24px">América</text>
 <path d="m967.16 38.28h24v-21.48h-24z" fill="#e6e6e6" stroke="#e6e6e6"/>
 <text transform="rotate(-0 1010.4 35.76)" x="1010.355312" y="35.76" font-family="'DejaVu Sans', 'Bitstream Vera Sans', 'Computer Modern Sans Serif', 'Lucida Grande', 'Verdana', 'Geneva', 'Lucid', 'Arial', 'Helvetica', 'Avant Garde', sans-serif" font-size="24px">Europa</text>
 <path d="m1142.7 38.28h24v-21.48h-24z" fill="#ff5733" stroke="#ff5733"/>
 <text transform="rotate(-0 1185.9 35.76)" x="1185.885312" y="35.76" font-family="'DejaVu Sans', 'Bitstream Vera Sans', 'Computer Modern Sans Serif', 'Lucida Grande', 'Verdana', 'Geneva', 'Lucid', 'Arial', 'Helvetica', 'Avant Garde', sans-serif" font-size="24px">Asia</text>
 <defs>
  <clipPath id="a">
   <rect x="83.533" y="34.416" width="1846.1" height="490.19"/>
  </clipPath>
 </defs>
</svg>
