<?xml version="1.0" encoding="UTF-8"?>
<!DOCTYPE svg  PUBLIC '-//W3C//DTD SVG 1.1//EN'  'http://www.w3.org/Graphics/SVG/1.1/DTD/svg11.dtd'>
<svg width="2066.2pt" height="1030.1pt" version="1.1" viewBox="0 0 2066.2 1030.1" xmlns="http://www.w3.org/2000/svg" xmlns:xlink="http://www.w3.org/1999/xlink">
 <defs>
  <style type="text/css">*{stroke-linejoin: round; stroke-linecap: butt}</style>
 </defs>
 <path d="m0 1030.1h2066.2v-1030.1h-2066.2v1030.1z" opacity="0"/>
 <path d="m185.12 818.56h1865.8v-762.37h-1865.8v762.37z" opacity="0"/>
 <defs>
  <path id="b" d="m0 0v3.5" stroke="#000" stroke-width=".8"/>
 </defs>
 <use x="239.995754" y="818.561069" stroke="#000000" stroke-width=".8" xlink:href="#b"/>
 <text transform="translate(233.2 950.69) rotate(-90)" font-family="'Montserrat'" font-size="35px" font-weight="500">1er año</text>
 <use x="349.746636" y="818.561069" stroke="#000000" stroke-width=".8" xlink:href="#b"/>
 <text transform="translate(342.95 968.15) rotate(-90)" font-family="'Montserrat'" font-size="35px" font-weight="500">2do año</text>
 <use x="459.497518" y="818.561069" stroke="#000000" stroke-width=".8" xlink:href="#b"/>
 <text transform="translate(452.71 995.04) rotate(-90)" font-family="'Montserrat'" font-size="35px" font-weight="500">Año 2009</text>
 <use x="569.248401" y="818.561069" stroke="#000000" stroke-width=".8" xlink:href="#b"/>
 <text transform="translate(562.46 986.39) rotate(-90)" font-family="'Montserrat'" font-size="35px" font-weight="500">Año 2010</text>
 <use x="678.999283" y="818.561069" stroke="#000000" stroke-width=".8" xlink:href="#b"/>
 <text transform="translate(672.21 976) rotate(-90)" font-family="'Montserrat'" font-size="35px" font-weight="500">Año 2011</text>
 <use x="788.750165" y="818.561069" stroke="#000000" stroke-width=".8" xlink:href="#b"/>
 <text transform="translate(781.96 983.14) rotate(-90)" font-family="'Montserrat'" font-size="35px" font-weight="500">Año 2012</text>
 <use x="898.501048" y="818.561069" stroke="#000000" stroke-width=".8" xlink:href="#b"/>
 <text transform="translate(891.71 983.07) rotate(-90)" font-family="'Montserrat'" font-size="35px" font-weight="500">Año 2013</text>
 <use x="1008.25193" y="818.561069" stroke="#000000" stroke-width=".8" xlink:href="#b"/>
 <text transform="translate(1001.5 986.46) rotate(-90)" font-family="'Montserrat'" font-size="35px" font-weight="500">Año 2014</text>
 <use x="1118.002813" y="818.561069" stroke="#000000" stroke-width=".8" xlink:href="#b"/>
 <text transform="translate(1111.2 983.14) rotate(-90)" font-family="'Montserrat'" font-size="35px" font-weight="500">Año 2015</text>
 <use x="1227.753695" y="818.561069" stroke="#000000" stroke-width=".8" xlink:href="#b"/>
 <text transform="translate(1221 984.64) rotate(-90)" font-family="'Montserrat'" font-size="35px" font-weight="500">Año 2016</text>
 <use x="1337.504577" y="818.561069" stroke="#000000" stroke-width=".8" xlink:href="#b"/>
 <text transform="translate(1330.7 983.97) rotate(-90)" font-family="'Montserrat'" font-size="35px" font-weight="500">Año 2017</text>
 <use x="1447.25546" y="818.561069" stroke="#000000" stroke-width=".8" xlink:href="#b"/>
 <text transform="translate(1440.5 985.59) rotate(-90)" font-family="'Montserrat'" font-size="35px" font-weight="500">Año 2018</text>
 <use x="1557.006342" y="818.561069" stroke="#000000" stroke-width=".8" xlink:href="#b"/>
 <text transform="translate(1550.2 984.64) rotate(-90)" font-family="'Montserrat'" font-size="35px" font-weight="500">Año 2019</text>
 <use x="1666.757224" y="818.561069" stroke="#000000" stroke-width=".8" xlink:href="#b"/>
 <text transform="translate(1660 993.53) rotate(-90)" font-family="'Montserrat'" font-size="35px" font-weight="500">Año 2020</text>
 <use x="1776.508107" y="818.561069" stroke="#000000" stroke-width=".8" xlink:href="#b"/>
 <text transform="translate(1769.7 983.14) rotate(-90)" font-family="'Montserrat'" font-size="35px" font-weight="500">Año 2021</text>
 <use x="1886.258989" y="818.561069" stroke="#000000" stroke-width=".8" xlink:href="#b"/>
 <text transform="translate(1879.5 990.28) rotate(-90)" font-family="'Montserrat'" font-size="35px" font-weight="500">Año 2022</text>
 <use x="1996.009871" y="818.561069" stroke="#000000" stroke-width=".8" xlink:href="#b"/>
 <text transform="translate(1989.2 1022.9) rotate(-90)" font-family="'Montserrat'" font-size="35px" font-weight="500">Último año</text>
 <path d="m185.12 818.56h1865.8" clip-path="url(#a)" fill="none" stroke="#b9b9b9" stroke-linecap="square" stroke-width=".75"/>
 <defs>
  <path id="c" d="m0 0h-3.5" stroke="#000" stroke-width=".8"/>
 </defs>
 <use x="185.120312" y="818.561069" stroke="#000000" stroke-width=".8" xlink:href="#c"/>
 <text transform="rotate(-0 178.12 829.69)" x="178.120312" y="829.691538" font-family="'Montserrat'" font-size="30px" font-weight="500" text-anchor="end">0</text>
 <path d="m185.12 652.83h1865.8" clip-path="url(#a)" fill="none" stroke="#b9b9b9" stroke-linecap="square" stroke-width=".75"/>
 <use x="185.120312" y="652.828164" stroke="#000000" stroke-width=".8" xlink:href="#c"/>
 <text transform="rotate(-0 178.12 663.96)" x="178.120312" y="663.958633" font-family="'Montserrat'" font-size="30px" font-weight="500" text-anchor="end">5,000,000</text>
 <path d="m185.12 487.1h1865.8" clip-path="url(#a)" fill="none" stroke="#b9b9b9" stroke-linecap="square" stroke-width=".75"/>
 <use x="185.120312" y="487.09526" stroke="#000000" stroke-width=".8" xlink:href="#c"/>
 <text transform="rotate(-0 178.12 498.23)" x="178.120312" y="498.225729" font-family="'Montserrat'" font-size="30px" font-weight="500" text-anchor="end">10,000,000</text>
 <path d="m185.12 321.36h1865.8" clip-path="url(#a)" fill="none" stroke="#b9b9b9" stroke-linecap="square" stroke-width=".75"/>
 <use x="185.120312" y="321.362356" stroke="#000000" stroke-width=".8" xlink:href="#c"/>
 <text transform="rotate(-0 178.12 332.49)" x="178.120312" y="332.492824" font-family="'Montserrat'" font-size="30px" font-weight="500" text-anchor="end">15,000,000</text>
 <path d="m185.12 155.63h1865.8" clip-path="url(#a)" fill="none" stroke="#b9b9b9" stroke-linecap="square" stroke-width=".75"/>
 <use x="185.120312" y="155.629451" stroke="#000000" stroke-width=".8" xlink:href="#c"/>
 <text transform="rotate(-0 178.12 166.76)" x="178.120312" y="166.75992" font-family="'Montserrat'" font-size="30px" font-weight="500" text-anchor="end">20,000,000</text>
 <path d="m196.1 818.56h87.801v-155.91h-87.801z" clip-path="url(#a)" fill="#10302c"/>
 <path d="m196.1 662.65h87.801v-146.33h-87.801z" clip-path="url(#a)" fill="#4c6a67"/>
 <path d="m305.85 818.56h87.801v-49.72h-87.801z" clip-path="url(#a)" fill="#10302c"/>
 <path d="m305.85 768.84h87.801v-33.372h-87.801z" clip-path="url(#a)" fill="#4c6a67"/>
 <path d="m415.6 818.56h87.801v-66.293h-87.801z" clip-path="url(#a)" fill="#10302c"/>
 <path d="m415.6 752.27h87.801v-49.761h-87.801z" clip-path="url(#a)" fill="#4c6a67"/>
 <path d="m525.35 818.56h87.801v-82.866h-87.801z" clip-path="url(#a)" fill="#10302c"/>
 <path d="m525.35 735.69h87.801v-66.481h-87.801z" clip-path="url(#a)" fill="#4c6a67"/>
 <path d="m635.1 818.56h87.801v-99.44h-87.801z" clip-path="url(#a)" fill="#10302c"/>
 <path d="m635.1 719.12h87.801v-82.907h-87.801z" clip-path="url(#a)" fill="#4c6a67"/>
 <path d="m744.85 818.56h87.801v-116.01h-87.801z" clip-path="url(#a)" fill="#10302c"/>
 <path d="m744.85 702.55h87.801v-99.665h-87.801z" clip-path="url(#a)" fill="#4c6a67"/>
 <path d="m854.6 818.56h87.801v-132.59h-87.801z" clip-path="url(#a)" fill="#10302c"/>
 <path d="m854.6 685.97h87.801v-116.09h-87.801z" clip-path="url(#a)" fill="#4c6a67"/>
 <path d="m964.35 818.56h87.801v-149.16h-87.801z" clip-path="url(#a)" fill="#10302c"/>
 <path d="m964.35 669.4h87.801v-132.85h-87.801z" clip-path="url(#a)" fill="#4c6a67"/>
 <path d="m1074.1 818.56h87.801v-165.73h-87.801z" clip-path="url(#a)" fill="#10302c"/>
 <path d="m1074.1 652.83h87.801v-149.27h-87.801z" clip-path="url(#a)" fill="#4c6a67"/>
 <path d="m1183.9 818.56h87.801v-182.31h-87.801z" clip-path="url(#a)" fill="#10302c"/>
 <path d="m1183.9 636.25h87.801v-166.03h-87.801z" clip-path="url(#a)" fill="#4c6a67"/>
 <path d="m1293.6 818.56h87.801v-198.88h-87.801z" clip-path="url(#a)" fill="#10302c"/>
 <path d="m1293.6 619.68h87.801v-199.03h-87.801z" clip-path="url(#a)" fill="#4c6a67"/>
 <path d="m1403.4 818.56h87.801v-215.45h-87.801z" clip-path="url(#a)" fill="#10302c"/>
 <path d="m1403.4 603.11h87.801v-232.07h-87.801z" clip-path="url(#a)" fill="#4c6a67"/>
 <path d="m1513.1 818.56h87.801v-232.03h-87.801z" clip-path="url(#a)" fill="#10302c"/>
 <path d="m1513.1 586.53h87.801v-265.43h-87.801z" clip-path="url(#a)" fill="#4c6a67"/>
 <path d="m1622.9 818.56h87.801v-248.6h-87.801z" clip-path="url(#a)" fill="#10302c"/>
 <path d="m1622.9 569.96h87.801v-298.43h-87.801z" clip-path="url(#a)" fill="#4c6a67"/>
 <path d="m1732.6 818.56h87.801v-265.17h-87.801z" clip-path="url(#a)" fill="#10302c"/>
 <path d="m1732.6 553.39h87.801v-315.19h-87.801z" clip-path="url(#a)" fill="#4c6a67"/>
 <path d="m1842.4 818.56h87.801v-298.32h-87.801z" clip-path="url(#a)" fill="#10302c"/>
 <path d="m1842.4 520.24h87.801v-324.99h-87.801z" clip-path="url(#a)" fill="#4c6a67"/>
 <path d="m1952.1 818.56h87.801v-331.47h-87.801z" clip-path="url(#a)" fill="#10302c"/>
 <path d="m1952.1 487.1h87.801v-331.47h-87.801z" clip-path="url(#a)" fill="#4c6a67"/>
 <path d="m185.12 818.56h1865.8" fill="none" stroke="#000" stroke-linecap="square" stroke-width=".8"/>
 <text transform="rotate(-0 240 744.44)" x="239.995754" y="744.440774" fill="#ffffff" font-family="'Montserrat'" font-size="14px" font-weight="700" text-anchor="middle">4,703,717</text>
 <text transform="rotate(-0 240 593.32)" x="239.995754" y="593.321212" fill="#ffffff" font-family="'Montserrat'" font-size="14px" font-weight="700" text-anchor="middle">4,414,542</text>
 <path d="m201.66 503.77h76.663q14.4 0 14.4-14.4v6.5503q0-14.4-14.4-14.4h-76.663q-14.4 0-14.4 14.4v-6.5503q0 14.4 14.4 14.4z" fill="none" stroke="#002f2a" stroke-width="1.5"/>
 <text transform="rotate(-0 240 497.58)" x="239.995754" y="497.581391" font-family="'Montserrat'" font-size="18px" font-weight="700" text-anchor="middle">9,118,259  </text>
 <text transform="rotate(-0 240 465.73)" x="239.995754" y="465.728099" fill="#4c6a67" font-family="'Montserrat'" font-size="25px" font-weight="600" text-anchor="middle">5%</text>
 <text transform="rotate(-0 349.75 797.54)" x="349.746636" y="797.536909" fill="#ffffff" font-family="'Montserrat'" font-size="14px" font-weight="700" text-anchor="middle">1,500,000</text>
 <text transform="rotate(-0 349.75 755.99)" x="349.746636" y="755.991161" fill="#ffffff" font-family="'Montserrat'" font-size="14px" font-weight="700" text-anchor="middle">1,006,789</text>
 <path d="m306.78 722.92h85.933q14.4 0 14.4-14.4v6.5503q0-14.4-14.4-14.4h-85.933q-14.4 0-14.4 14.4v-6.5503q0 14.4 14.4 14.4z" fill="none" stroke="#002f2a" stroke-width="1.5"/>
 <text transform="rotate(-0 349.75 716.73)" x="349.746636" y="716.729021" font-family="'Montserrat'" font-size="18px" font-weight="700" text-anchor="middle">2,506,789  </text>
 <text transform="rotate(-0 349.75 684.88)" x="349.746636" y="684.875729" fill="#4c6a67" font-family="'Montserrat'" font-size="25px" font-weight="600" text-anchor="middle">1.4%</text>
 <text transform="rotate(-0 459.5 789.25)" x="459.497518" y="789.250256" fill="#ffffff" font-family="'Montserrat'" font-size="14px" font-weight="700" text-anchor="middle">2,000,001</text>
 <text transform="rotate(-0 459.5 731.22)" x="459.497518" y="731.223266" fill="#ffffff" font-family="'Montserrat'" font-size="14px" font-weight="700" text-anchor="middle">1,501,235</text>
 <path d="m419.98 689.96h79.04q14.4 0 14.4-14.4v6.5503q0-14.4-14.4-14.4h-79.04q-14.4 0-14.4 14.4v-6.5503q0 14.4 14.4 14.4z" fill="none" stroke="#002f2a" stroke-width="1.5"/>
 <text transform="rotate(-0 459.5 683.77)" x="459.497518" y="683.766537" font-family="'Montserrat'" font-size="18px" font-weight="700" text-anchor="middle">3,501,235  </text>
 <text transform="rotate(-0 459.5 651.91)" x="459.497518" y="651.913245" fill="#4c6a67" font-family="'Montserrat'" font-size="25px" font-weight="600" text-anchor="middle">1.9%</text>
 <text transform="rotate(-0 569.25 780.96)" x="569.248401" y="780.963617" fill="#ffffff" font-family="'Montserrat'" font-size="14px" font-weight="700" text-anchor="middle">2,500,000</text>
 <text transform="rotate(-0 569.25 706.29)" x="569.248401" y="706.289684" fill="#ffffff" font-family="'Montserrat'" font-size="14px" font-weight="700" text-anchor="middle">2,005,679</text>
 <path d="m525.98 656.67h86.546q14.4 0 14.4-14.4v6.5503q0-14.4-14.4-14.4h-86.546q-14.4 0-14.4 14.4v-6.5503q0 14.4 14.4 14.4z" fill="none" stroke="#002f2a" stroke-width="1.5"/>
 <text transform="rotate(-0 569.25 650.47)" x="569.248401" y="650.472652" font-family="'Montserrat'" font-size="18px" font-weight="700" text-anchor="middle">4,505,679  </text>
 <text transform="rotate(-0 569.25 618.62)" x="569.248401" y="618.61936" fill="#4c6a67" font-family="'Montserrat'" font-size="25px" font-weight="600" text-anchor="middle">2.5%</text>
 <text transform="rotate(-0 679 772.68)" x="678.999283" y="772.676964" fill="#ffffff" font-family="'Montserrat'" font-size="14px" font-weight="700" text-anchor="middle">3,000,001</text>
 <text transform="rotate(-0 679 681.5)" x="678.999283" y="681.503391" fill="#ffffff" font-family="'Montserrat'" font-size="14px" font-weight="700" text-anchor="middle">2,501,235</text>
 <path d="m639.45 623.67h79.093q14.4 0 14.4-14.4v6.5503q0-14.4-14.4-14.4h-79.093q-14.4 0-14.4 14.4v-6.5503q0 14.4 14.4 14.4z" fill="none" stroke="#002f2a" stroke-width="1.5"/>
 <text transform="rotate(-0 679 617.47)" x="678.999283" y="617.473371" font-family="'Montserrat'" font-size="18px" font-weight="700" text-anchor="middle">5,501,235  </text>
 <text transform="rotate(-0 679 585.62)" x="678.999283" y="585.620079" fill="#4c6a67" font-family="'Montserrat'" font-size="25px" font-weight="600" text-anchor="middle">3%</text>
 <text transform="rotate(-0 788.75 764.39)" x="788.750165" y="764.39033" fill="#ffffff" font-family="'Montserrat'" font-size="14px" font-weight="700" text-anchor="middle">3,500,000</text>
 <text transform="rotate(-0 788.75 656.55)" x="788.750165" y="656.551422" fill="#ffffff" font-family="'Montserrat'" font-size="14px" font-weight="700" text-anchor="middle">3,006,789</text>
 <path d="m745.36 590.34h86.78q14.4 0 14.4-14.4v6.5503q0-14.4-14.4-14.4h-86.78q-14.4 0-14.4 14.4v-6.5503q0 14.4 14.4 14.4z" fill="none" stroke="#002f2a" stroke-width="1.5"/>
 <text transform="rotate(-0 788.75 584.14)" x="788.750165" y="584.142701" font-family="'Montserrat'" font-size="18px" font-weight="700" text-anchor="middle">6,506,789  </text>
 <text transform="rotate(-0 788.75 552.29)" x="788.750165" y="552.289409" fill="#4c6a67" font-family="'Montserrat'" font-size="25px" font-weight="600" text-anchor="middle">3.6%</text>
 <text transform="rotate(-0 898.5 756.1)" x="898.501048" y="756.103677" fill="#ffffff" font-family="'Montserrat'" font-size="14px" font-weight="700" text-anchor="middle">4,000,001</text>
 <text transform="rotate(-0 898.5 631.77)" x="898.501048" y="631.765113" fill="#ffffff" font-family="'Montserrat'" font-size="14px" font-weight="700" text-anchor="middle">3,502,346</text>
 <path d="m855.68 557.34h85.646q14.4 0 14.4-14.4v6.5503q0-14.4-14.4-14.4h-85.646q-14.4 0-14.4 14.4v-6.5503q0 14.4 14.4 14.4z" fill="none" stroke="#002f2a" stroke-width="1.5"/>
 <text transform="rotate(-0 898.5 551.14)" x="898.501048" y="551.143387" font-family="'Montserrat'" font-size="18px" font-weight="700" text-anchor="middle">7,502,346  </text>
 <text transform="rotate(-0 898.5 519.29)" x="898.501048" y="519.290095" fill="#4c6a67" font-family="'Montserrat'" font-size="25px" font-weight="600" text-anchor="middle">4.1%</text>
 <text transform="rotate(-0 1008.3 747.82)" x="1008.25193" y="747.817041" fill="#ffffff" font-family="'Montserrat'" font-size="14px" font-weight="700" text-anchor="middle">4,500,000</text>
 <text transform="rotate(-0 1008.3 606.81)" x="1008.25193" y="606.813305" fill="#ffffff" font-family="'Montserrat'" font-size="14px" font-weight="700" text-anchor="middle">4,007,890</text>
 <path d="m964.28 524.01h87.95q14.4 0 14.4-14.4v6.5503q0-14.4-14.4-14.4h-87.95q-14.4 0-14.4 14.4v-6.5503q0 14.4 14.4 14.4z" fill="none" stroke="#002f2a" stroke-width="1.5"/>
 <text transform="rotate(-0 1008.3 517.81)" x="1008.25193" y="517.813045" font-family="'Montserrat'" font-size="18px" font-weight="700" text-anchor="middle">8,507,890  </text>
 <text transform="rotate(-0 1008.3 485.96)" x="1008.25193" y="485.959753" fill="#4c6a67" font-family="'Montserrat'" font-size="25px" font-weight="600" text-anchor="middle">4.7%</text>
 <text transform="rotate(-0 1118 739.53)" x="1118.002813" y="739.530389" fill="#ffffff" font-family="'Montserrat'" font-size="14px" font-weight="700" text-anchor="middle">5,000,001</text>
 <text transform="rotate(-0 1118 582.03)" x="1118.002813" y="582.02683" fill="#ffffff" font-family="'Montserrat'" font-size="14px" font-weight="700" text-anchor="middle">4,503,457</text>
 <path d="m1075.1 491.01h85.736q14.4 0 14.4-14.4v6.5503q0-14.4-14.4-14.4h-85.736q-14.4 0-14.4 14.4v-6.5503q0 14.4 14.4 14.4z" fill="none" stroke="#002f2a" stroke-width="1.5"/>
 <text transform="rotate(-0 1118 484.81)" x="1118.002813" y="484.8134" font-family="'Montserrat'" font-size="18px" font-weight="700" text-anchor="middle">9,503,457  </text>
 <text transform="rotate(-0 1118 452.96)" x="1118.002813" y="452.960108" fill="#4c6a67" font-family="'Montserrat'" font-size="25px" font-weight="600" text-anchor="middle">5.3%</text>
 <text transform="rotate(-0 1227.8 731.24)" x="1227.753695" y="731.243736" fill="#ffffff" font-family="'Montserrat'" font-size="14px" font-weight="700" text-anchor="middle">5,500,001</text>
 <text transform="rotate(-0 1227.8 557.07)" x="1227.753695" y="557.074806" fill="#ffffff" font-family="'Montserrat'" font-size="14px" font-weight="700" text-anchor="middle">5,009,012</text>
 <path d="m1182.7 457.68h90.022q14.4 0 14.4-14.4v6.5503q0-14.4-14.4-14.4h-90.022q-14.4 0-14.4 14.4v-6.5503q0 14.4 14.4 14.4z" fill="none" stroke="#002f2a" stroke-width="1.5"/>
 <text transform="rotate(-0 1227.8 451.48)" x="1227.753695" y="451.482656" font-family="'Montserrat'" font-size="18px" font-weight="700" text-anchor="middle">10,509,013  </text>
 <text transform="rotate(-0 1227.8 419.63)" x="1227.753695" y="419.629364" fill="#4c6a67" font-family="'Montserrat'" font-size="25px" font-weight="600" text-anchor="middle">5.8%</text>
 <text transform="rotate(-0 1337.5 722.96)" x="1337.504577" y="722.9571" fill="#ffffff" font-family="'Montserrat'" font-size="14px" font-weight="700" text-anchor="middle">6,000,000</text>
 <text transform="rotate(-0 1337.5 524)" x="1337.504577" y="524.001903" fill="#ffffff" font-family="'Montserrat'" font-size="14px" font-weight="700" text-anchor="middle">6,004,568</text>
 <path d="m1290 408.1h94.989q14.4 0 14.4-14.4v6.5503q0-14.4-14.4-14.4h-94.989q-14.4 0-14.4 14.4v-6.5503q0 14.4 14.4 14.4z" fill="none" stroke="#002f2a" stroke-width="1.5"/>
 <text transform="rotate(-0 1337.5 401.91)" x="1337.504577" y="401.910122" font-family="'Montserrat'" font-size="18px" font-weight="700" text-anchor="middle">12,004,568  </text>
 <text transform="rotate(-0 1337.5 370.06)" x="1337.504577" y="370.05683" fill="#4c6a67" font-family="'Montserrat'" font-size="25px" font-weight="600" text-anchor="middle">6.6%</text>
 <text transform="rotate(-0 1447.3 714.67)" x="1447.25546" y="714.670448" fill="#ffffff" font-family="'Montserrat'" font-size="14px" font-weight="700" text-anchor="middle">6,500,001</text>
 <text transform="rotate(-0 1447.3 490.91)" x="1447.25546" y="490.910552" fill="#ffffff" font-family="'Montserrat'" font-size="14px" font-weight="700" text-anchor="middle">7,001,235</text>
 <path d="m1404.2 358.49h86.096q14.4 0 14.4-14.4v6.5503q0-14.4-14.4-14.4h-86.096q-14.4 0-14.4 14.4v-6.5503q0 14.4 14.4 14.4z" fill="none" stroke="#002f2a" stroke-width="1.5"/>
 <text transform="rotate(-0 1447.3 352.3)" x="1447.25546" y="352.300724" font-family="'Montserrat'" font-size="18px" font-weight="700" text-anchor="middle">13,501,235  </text>
 <text transform="rotate(-0 1447.3 320.45)" x="1447.25546" y="320.447432" fill="#4c6a67" font-family="'Montserrat'" font-size="25px" font-weight="600" text-anchor="middle">7.5%</text>
 <text transform="rotate(-0 1557 706.38)" x="1557.006342" y="706.383812" fill="#ffffff" font-family="'Montserrat'" font-size="14px" font-weight="700" text-anchor="middle">7,000,000</text>
 <text transform="rotate(-0 1557 457.65)" x="1557.006342" y="457.653685" fill="#ffffff" font-family="'Montserrat'" font-size="14px" font-weight="700" text-anchor="middle">8,007,890</text>
 <path d="m1509.3 308.55h95.349q14.4 0 14.4-14.4v6.5503q0-14.4-14.4-14.4h-95.349q-14.4 0-14.4 14.4v-6.5503q0 14.4 14.4 14.4z" fill="none" stroke="#002f2a" stroke-width="1.5"/>
 <text transform="rotate(-0 1557 302.36)" x="1557.006342" y="302.360263" font-family="'Montserrat'" font-size="18px" font-weight="700" text-anchor="middle">15,007,890  </text>
 <text transform="rotate(-0 1557 270.51)" x="1557.006342" y="270.506971" fill="#4c6a67" font-family="'Montserrat'" font-size="25px" font-weight="600" text-anchor="middle">8.3%</text>
 <text transform="rotate(-0 1666.8 698.1)" x="1666.757224" y="698.097159" fill="#ffffff" font-family="'Montserrat'" font-size="14px" font-weight="700" text-anchor="middle">7,500,001</text>
 <text transform="rotate(-0 1666.8 424.58)" x="1666.757224" y="424.580564" fill="#ffffff" font-family="'Montserrat'" font-size="14px" font-weight="700" text-anchor="middle">9,003,457</text>
 <path d="m1620 258.98h93.513q14.4 0 14.4-14.4v6.5503q0-14.4-14.4-14.4h-93.513q-14.4 0-14.4 14.4v-6.5503q0 14.4 14.4 14.4z" fill="none" stroke="#002f2a" stroke-width="1.5"/>
 <text transform="rotate(-0 1666.8 252.79)" x="1666.757224" y="252.787327" font-family="'Montserrat'" font-size="18px" font-weight="700" text-anchor="middle">16,503,458  </text>
 <text transform="rotate(-0 1666.8 220.93)" x="1666.757224" y="220.934035" fill="#4c6a67" font-family="'Montserrat'" font-size="25px" font-weight="600" text-anchor="middle">9.1%</text>
 <text transform="rotate(-0 1776.5 689.81)" x="1776.508107" y="689.810523" fill="#ffffff" font-family="'Montserrat'" font-size="14px" font-weight="700" text-anchor="middle">8,000,000</text>
 <text transform="rotate(-0 1776.5 399.63)" x="1776.508107" y="399.628573" fill="#ffffff" font-family="'Montserrat'" font-size="14px" font-weight="700" text-anchor="middle">9,509,012</text>
 <path d="m1732 225.65h88.959q14.4 0 14.4-14.4v6.5503q0-14.4-14.4-14.4h-88.959q-14.4 0-14.4 14.4v-6.5503q0 14.4 14.4 14.4z" fill="none" stroke="#002f2a" stroke-width="1.5"/>
 <text transform="rotate(-0 1776.5 219.46)" x="1776.508107" y="219.456617" font-family="'Montserrat'" font-size="18px" font-weight="700" text-anchor="middle">17,509,013  </text>
 <text transform="rotate(-0 1776.5 187.6)" x="1776.508107" y="187.603325" fill="#4c6a67" font-family="'Montserrat'" font-size="25px" font-weight="600" text-anchor="middle">9.7%</text>
 <text transform="rotate(-0 1886.3 673.24)" x="1886.258989" y="673.237226" fill="#ffffff" font-family="'Montserrat'" font-size="14px" font-weight="700" text-anchor="middle">9,000,001</text>
 <text transform="rotate(-0 1886.3 361.58)" x="1886.258989" y="361.58365" fill="#ffffff" font-family="'Montserrat'" font-size="14px" font-weight="700" text-anchor="middle">9,804,568</text>
 <path d="m1838.5 182.71h95.493q14.4 0 14.4-14.4v6.5503q0-14.4-14.4-14.4h-95.493q-14.4 0-14.4 14.4v-6.5503q0 14.4 14.4 14.4z" fill="none" stroke="#002f2a" stroke-width="1.5"/>
 <text transform="rotate(-0 1886.3 176.51)" x="1886.258989" y="176.513365" font-family="'Montserrat'" font-size="18px" font-weight="700" text-anchor="middle">18,804,569  </text>
 <text transform="rotate(-0 1886.3 144.66)" x="1886.258989" y="144.660073" fill="#4c6a67" font-family="'Montserrat'" font-size="25px" font-weight="600" text-anchor="middle">10.4%</text>
 <text transform="rotate(-0 1996 656.66)" x="1996.009871" y="656.663946" fill="#ffffff" font-family="'Montserrat'" font-size="14px" font-weight="700" text-anchor="middle">10,000,000</text>
 <text transform="rotate(-0 1996 325.2)" x="1996.009871" y="325.198137" fill="#ffffff" font-family="'Montserrat'" font-size="14px" font-weight="700" text-anchor="middle">10,000,000</text>
 <path d="m1944.7 143.08h102.59q14.4 0 14.4-14.4v6.5503q0-14.4-14.4-14.4h-102.59q-14.4 0-14.4 14.4v-6.5503q0 14.4 14.4 14.4z" fill="none" stroke="#002f2a" stroke-width="1.5"/>
 <text transform="rotate(-0 1996 136.89)" x="1996.009871" y="136.888899" font-family="'Montserrat'" font-size="18px" font-weight="700" text-anchor="middle">20,000,000  </text>
 <text transform="rotate(-0 1996 105.04)" x="1996.009871" y="105.035607" fill="#4c6a67" font-family="'Montserrat'" font-size="25px" font-weight="600" text-anchor="middle">11.1%</text>
 <path d="m919.97 38.28h24v-21.48h-24z" fill="#10302c"/>
 <text transform="rotate(-0 963.17 35.76)" x="963.172813" y="35.76" font-family="'DejaVu Sans', 'Bitstream Vera Sans', 'Computer Modern Sans Serif', 'Lucida Grande', 'Verdana', 'Geneva', 'Lucid', 'Arial', 'Helvetica', 'Avant Garde', sans-serif" font-size="24px">Cantidad 1</text>
 <path d="m1142 38.28h24v-21.48h-24z" fill="#4c6a67"/>
 <text transform="rotate(-0 1185.2 35.76)" x="1185.202813" y="35.76" font-family="'DejaVu Sans', 'Bitstream Vera Sans', 'Computer Modern Sans Serif', 'Lucida Grande', 'Verdana', 'Geneva', 'Lucid', 'Arial', 'Helvetica', 'Avant Garde', sans-serif" font-size="24px">Cantidad 2</text>
 <defs>
  <clipPath id="a">
   <rect x="185.12" y="56.19" width="1865.8" height="762.37"/>
  </clipPath>
 </defs>
</svg>
