<svg xmlns="http://www.w3.org/2000/svg" xmlns:xlink="http://www.w3.org/1999/xlink" width="2987pt" height="753.68" viewBox="0 0 2987 565.26"><defs><style>*{stroke-linejoin:round;stroke-linecap:butt}</style></defs><defs><path id="b" stroke="#000" stroke-width=".8" d="M0 0v3.5"/></defs><use xlink:href="#b" x="122.535" y="318.108" stroke="#000" stroke-width=".8"/><text font-family="'Montserrat'" font-size="25" font-weight="500" transform="rotate(-90 318.135 200.595)">Aguascalientes</text><use xlink:href="#b" x="213.242" y="318.108" stroke="#000" stroke-width=".8"/><text font-family="'Montserrat'" font-size="25" font-weight="500" transform="rotate(-90 358.435 150.195)">Baja California</text><use xlink:href="#b" x="303.949" y="318.108" stroke="#000" stroke-width=".8"/><text font-family="'Montserrat'" font-size="25" font-weight="500" transform="rotate(-90 428.505 129.555)">Baja California Sur</text><use xlink:href="#b" x="394.656" y="318.108" stroke="#000" stroke-width=".8"/><text font-family="'Montserrat'" font-size="25" font-weight="500" transform="rotate(-90 426.655 36.855)">Campeche</text><use xlink:href="#b" x="485.364" y="318.108" stroke="#000" stroke-width=".8"/><text font-family="'Montserrat'" font-size="25" font-weight="500" transform="rotate(-90 453.58 -26.93)">Chiapas</text><use xlink:href="#b" x="576.071" y="318.108" stroke="#000" stroke-width=".8"/><text font-family="'Montserrat'" font-size="25" font-weight="500" transform="rotate(-90 518.1 -53.12)">Chihuahua</text><use xlink:href="#b" x="666.778" y="318.108" stroke="#000" stroke-width=".8"/><text font-family="'Montserrat'" font-size="25" font-weight="500" transform="rotate(-90 606.985 -54.945)">Ciudad de México</text><use xlink:href="#b" x="757.485" y="318.108" stroke="#000" stroke-width=".8"/><text font-family="'Montserrat'" font-size="25" font-weight="500" transform="rotate(-90 594.745 -157.885)">Coahuila</text><use xlink:href="#b" x="848.192" y="318.108" stroke="#000" stroke-width=".8"/><text font-family="'Montserrat'" font-size="25" font-weight="500" transform="rotate(-90 628.86 -214.48)">Colima</text><use xlink:href="#b" x="938.899" y="318.108" stroke="#000" stroke-width=".8"/><text font-family="'Montserrat'" font-size="25" font-weight="500" transform="rotate(-90 685.965 -247.935)">Durango</text><use xlink:href="#b" x="1029.606" y="318.108" stroke="#000" stroke-width=".8"/><text font-family="'Montserrat'" font-size="25" font-weight="500" transform="rotate(-90 786.655 -238.145)">Estado de México</text><use xlink:href="#b" x="1120.313" y="318.108" stroke="#000" stroke-width=".8"/><text font-family="'Montserrat'" font-size="25" font-weight="500" transform="rotate(-90 794.38 -320.92)">Guanajuato</text><use xlink:href="#b" x="1211.02" y="318.108" stroke="#000" stroke-width=".8"/><text font-family="'Montserrat'" font-size="25" font-weight="500" transform="rotate(-90 822.38 -383.82)">Guerrero</text><use xlink:href="#b" x="1301.727" y="318.108" stroke="#000" stroke-width=".8"/><text font-family="'Montserrat'" font-size="25" font-weight="500" transform="rotate(-90 860.595 -436.105)">Hidalgo</text><use xlink:href="#b" x="1392.434" y="318.108" stroke="#000" stroke-width=".8"/><text font-family="'Montserrat'" font-size="25" font-weight="500" transform="rotate(-90 898.555 -489.045)">Jalisco</text><use xlink:href="#b" x="1483.141" y="318.108" stroke="#000" stroke-width=".8"/><text font-family="'Montserrat'" font-size="25" font-weight="500" transform="rotate(-90 971.315 -506.985)">Michoacán</text><use xlink:href="#b" x="1573.848" y="318.108" stroke="#000" stroke-width=".8"/><text font-family="'Montserrat'" font-size="25" font-weight="500" transform="rotate(-90 997.39 -571.61)">Morelos</text><use xlink:href="#b" x="1664.555" y="318.108" stroke="#000" stroke-width=".8"/><text font-family="'Montserrat'" font-size="25" font-weight="500" transform="rotate(-90 1038.23 -621.37)">Nayarit</text><use xlink:href="#b" x="1755.262" y="318.108" stroke="#000" stroke-width=".8"/><text font-family="'Montserrat'" font-size="25" font-weight="500" transform="rotate(-90 1113.83 -636.57)">Nuevo León</text><use xlink:href="#b" x="1845.969" y="318.108" stroke="#000" stroke-width=".8"/><text font-family="'Montserrat'" font-size="25" font-weight="500" transform="rotate(-90 1130.065 -711.035)">Oaxaca</text><use xlink:href="#b" x="1936.676" y="318.108" stroke="#000" stroke-width=".8"/><text font-family="'Montserrat'" font-size="25" font-weight="500" transform="rotate(-90 1173.08 -758.72)">Puebla</text><use xlink:href="#b" x="2027.383" y="318.108" stroke="#000" stroke-width=".8"/><text font-family="'Montserrat'" font-size="25" font-weight="500" transform="rotate(-90 1238.905 -783.595)">Querétaro</text><use xlink:href="#b" x="2118.09" y="318.108" stroke="#000" stroke-width=".8"/><text font-family="'Montserrat'" font-size="25" font-weight="500" transform="rotate(-90 1307.08 -806.12)">Quintana Roo</text><use xlink:href="#b" x="2208.797" y="318.108" stroke="#000" stroke-width=".8"/><text font-family="'Montserrat'" font-size="25" font-weight="500" transform="rotate(-90 1360.445 -843.455)">San Luis Potosí</text><use xlink:href="#b" x="2299.504" y="318.108" stroke="#000" stroke-width=".8"/><text font-family="'Montserrat'" font-size="25" font-weight="500" transform="rotate(-90 1356.04 -938.66)">Sinaloa</text><use xlink:href="#b" x="2390.211" y="318.108" stroke="#000" stroke-width=".8"/><text font-family="'Montserrat'" font-size="25" font-weight="500" transform="rotate(-90 1400 -985.4)">Sonora</text><use xlink:href="#b" x="2480.918" y="318.108" stroke="#000" stroke-width=".8"/><text font-family="'Montserrat'" font-size="25" font-weight="500" transform="rotate(-90 1452.75 -1023.35)">Tabasco</text><use xlink:href="#b" x="2571.625" y="318.108" stroke="#000" stroke-width=".8"/><text font-family="'Montserrat'" font-size="25" font-weight="500" transform="rotate(-90 1519.155 -1047.645)">Tamaulipas</text><use xlink:href="#b" x="2662.332" y="318.108" stroke="#000" stroke-width=".8"/><text font-family="'Montserrat'" font-size="25" font-weight="500" transform="rotate(-90 1542.08 -1115.42)">Tlaxcala</text><use xlink:href="#b" x="2753.039" y="318.108" stroke="#000" stroke-width=".8"/><text font-family="'Montserrat'" font-size="25" font-weight="500" transform="rotate(-90 1593.04 -1155.16)">Veracruz</text><use xlink:href="#b" x="2843.746" y="318.108" stroke="#000" stroke-width=".8"/><text font-family="'Montserrat'" font-size="25" font-weight="500" transform="rotate(-90 1634.33 -1204.57)">Yucatán</text><use xlink:href="#b" x="2934.453" y="318.108" stroke="#000" stroke-width=".8"/><text font-family="'Montserrat'" font-size="25" font-weight="500" transform="rotate(-90 1691.35 -1238.25)">Zacatecas</text><path fill="none" stroke="#b9b9b9" stroke-linecap="square" stroke-width=".75" d="M77.182 318.11h2902.6" clip-path="url(#a)"/><defs><path id="c" stroke="#000" stroke-width=".8" d="M0 0h-3.5"/></defs><use xlink:href="#c" x="77.182" y="318.108" stroke="#000" stroke-width=".8"/><text x="70.182" y="326.466" font-family="'DejaVu Sans', 'Bitstream Vera Sans', 'Computer Modern Sans Serif', 'Lucida Grande', 'Verdana', 'Geneva', 'Lucid', 'Arial', 'Helvetica', 'Avant Garde', sans-serif" font-size="22" font-weight="500" text-anchor="end">0</text><path fill="none" stroke="#b9b9b9" stroke-linecap="square" stroke-width=".75" d="M77.182 250.23h2902.6" clip-path="url(#a)"/><use xlink:href="#c" x="77.182" y="250.234" stroke="#000" stroke-width=".8"/><text x="70.182" y="258.592" font-family="'DejaVu Sans', 'Bitstream Vera Sans', 'Computer Modern Sans Serif', 'Lucida Grande', 'Verdana', 'Geneva', 'Lucid', 'Arial', 'Helvetica', 'Avant Garde', sans-serif" font-size="22" font-weight="500" text-anchor="end">500</text><path fill="none" stroke="#b9b9b9" stroke-linecap="square" stroke-width=".75" d="M77.182 182.36h2902.6" clip-path="url(#a)"/><use xlink:href="#c" x="77.182" y="182.361" stroke="#000" stroke-width=".8"/><text x="70.182" y="190.719" font-family="'DejaVu Sans', 'Bitstream Vera Sans', 'Computer Modern Sans Serif', 'Lucida Grande', 'Verdana', 'Geneva', 'Lucid', 'Arial', 'Helvetica', 'Avant Garde', sans-serif" font-size="22" font-weight="500" text-anchor="end">1,000</text><path fill="none" stroke="#b9b9b9" stroke-linecap="square" stroke-width=".75" d="M77.182 114.49h2902.6" clip-path="url(#a)"/><use xlink:href="#c" x="77.182" y="114.487" stroke="#000" stroke-width=".8"/><text x="70.182" y="122.846" font-family="'DejaVu Sans', 'Bitstream Vera Sans', 'Computer Modern Sans Serif', 'Lucida Grande', 'Verdana', 'Geneva', 'Lucid', 'Arial', 'Helvetica', 'Avant Garde', sans-serif" font-size="22" font-weight="500" text-anchor="end">1,500</text><path fill="none" stroke="#b9b9b9" stroke-linecap="square" stroke-width=".75" d="M77.182 46.614h2902.6" clip-path="url(#a)"/><use xlink:href="#c" x="77.182" y="46.614" stroke="#000" stroke-width=".8"/><text x="70.182" y="54.972" font-family="'DejaVu Sans', 'Bitstream Vera Sans', 'Computer Modern Sans Serif', 'Lucida Grande', 'Verdana', 'Geneva', 'Lucid', 'Arial', 'Helvetica', 'Avant Garde', sans-serif" font-size="22" font-weight="500" text-anchor="end">2,000</text><path fill="#10302c" d="M81.717 318.11h81.636V151.68H81.717zM172.42 318.11h81.636V106.48H172.42zM263.13 318.11h81.636V187.79H263.13zM353.84 318.11h81.636V128.88H353.84zM444.55 318.11h81.636V151.14H444.55zM535.25 318.11h81.636V155.89H535.25zM625.96 318.11h81.636V70.51H625.96zM716.67 318.11h81.636V162.82H716.67zM807.37 318.11h81.636V82.18H807.37zM898.08 318.11h81.636v-30H898.08zM988.79 318.11h81.636v-76.833H988.79zM1079.5 318.11h81.636V136.48H1079.5zM1170.2 318.11h81.636v-58.371H1170.2zM1260.9 318.11h81.636V103.36H1260.9zM1351.6 318.11h81.636v-25.385H1351.6zM1442.3 318.11h81.636V115.03H1442.3zM1533 318.11h81.636V152.09H1533zM1623.7 318.11h81.636V186.3H1623.7zM1714.4 318.11h81.636V75.53H1714.4zM1805.2 318.11h81.636v-31.222H1805.2zM1895.9 318.11h81.636V75.8H1895.9zM1986.6 318.11h81.636V123.72H1986.6zM2077.3 318.11h81.636V200.15H2077.3zM2168 318.11h81.636v-60.136H2168zM2258.7 318.11h81.636V98.88H2258.7zM2349.4 318.11h81.636V109.47H2349.4zM2440.1 318.11h81.636V195.26H2440.1zM2530.8 318.11h81.636v-65.837H2530.8zM2621.5 318.11h81.636V139.6H2621.5zM2712.2 318.11h81.636V174.9H2712.2zM2802.9 318.11h81.636v-51.041H2802.9zM2893.6 318.11h81.636v-174.3H2893.6z" clip-path="url(#a)"/><path fill="none" stroke="#000" stroke-linecap="square" stroke-width=".8" d="M77.182 318.11h2902.6"/><path fill="none" stroke="#002f2a" stroke-width="1.5" d="M99.506 146.14h46.059q16 0 16-16v7.278q0-16-16-16H99.506q-16 0-16 16v-7.278q0 16 16 16z"/><text x="122.535" y="139.258" font-family="'Montserrat'" font-size="20" font-weight="700" text-anchor="middle">1,226  </text><text x="122.535" y="104.701" fill="#4c6a67" font-family="'Montserrat'" font-size="22" font-weight="600" text-anchor="middle">3.5%</text><path fill="none" stroke="#002f2a" stroke-width="1.5" d="M190.11 100.94h46.259q16 0 16-16v7.278q0-16-16-16H190.11q-16 0-16 16V84.94q0 16 16 16z"/><text x="213.242" y="94.055" font-family="'Montserrat'" font-size="20" font-weight="700" text-anchor="middle">1,559  </text><text x="213.242" y="59.498" fill="#4c6a67" font-family="'Montserrat'" font-size="22" font-weight="600" text-anchor="middle">4.4%</text><path fill="none" stroke="#002f2a" stroke-width="1.5" d="M286.1 182.25h35.7q16 0 16-16v7.278q0-16-16-16h-35.7q-16 0-16 16v-7.278q0 16 16 16z"/><text x="303.949" y="175.367" font-family="'Montserrat'" font-size="20" font-weight="700" text-anchor="middle">960  </text><text x="303.949" y="140.81" fill="#4c6a67" font-family="'Montserrat'" font-size="22" font-weight="600" text-anchor="middle">2.7%</text><path fill="none" stroke="#002f2a" stroke-width="1.5" d="M370.62 123.33h48.081q16 0 16-16v7.278q0-16-16-16H370.62q-16 0-16 16v-7.278q0 16 16 16z"/><text x="394.656" y="116.453" font-family="'Montserrat'" font-size="20" font-weight="700" text-anchor="middle">1,394  </text><text x="394.656" y="81.896" fill="#4c6a67" font-family="'Montserrat'" font-size="22" font-weight="600" text-anchor="middle">3.9%</text><path fill="none" stroke="#002f2a" stroke-width="1.5" d="M461.89 145.6h46.941q16 0 16-16v7.278q0-16-16-16H461.89q-16 0-16 16V129.6q0 16 16 16z"/><text x="485.364" y="138.715" font-family="'Montserrat'" font-size="20" font-weight="700" text-anchor="middle">1,230  </text><text x="485.364" y="104.158" fill="#4c6a67" font-family="'Montserrat'" font-size="22" font-weight="600" text-anchor="middle">3.5%</text><path fill="none" stroke="#002f2a" stroke-width="1.5" d="M554.97 150.35h42.2q16 0 16-16v7.278q0-16-16-16h-42.2q-16 0-16 16v-7.278q0 16 16 16z"/><text x="576.071" y="143.467" font-family="'Montserrat'" font-size="20" font-weight="700" text-anchor="middle">1,195  </text><text x="576.071" y="108.909" fill="#4c6a67" font-family="'Montserrat'" font-size="22" font-weight="600" text-anchor="middle">3.4%</text><path fill="none" stroke="#002f2a" stroke-width="1.5" d="M642.53 64.963h48.5q16 0 16-16v7.278q0-16-16-16h-48.5q-16 0-16 16v-7.278q0 16 16 16z"/><text x="666.778" y="58.082" font-family="'Montserrat'" font-size="20" font-weight="700" text-anchor="middle">1,824  </text><text x="666.778" y="23.525" fill="#4c6a67" font-family="'Montserrat'" font-size="22" font-weight="600" text-anchor="middle">5.2%</text><path fill="none" stroke="#002f2a" stroke-width="1.5" d="M734.92 157.27h45.122q16 0 16-16v7.278q0-16-16-16H734.92q-16 0-16 16v-7.278q0 16 16 16z"/><text x="757.485" y="150.39" font-family="'Montserrat'" font-size="20" font-weight="700" text-anchor="middle">1,144  </text><text x="757.485" y="115.832" fill="#4c6a67" font-family="'Montserrat'" font-size="22" font-weight="600" text-anchor="middle">3.2%</text><path fill="none" stroke="#002f2a" stroke-width="1.5" d="M824.61 76.637h47.159q16 0 16-16v7.278q0-16-16-16H824.61q-16 0-16 16v-7.278q0 16 16 16z"/><text x="848.192" y="69.756" font-family="'Montserrat'" font-size="20" font-weight="700" text-anchor="middle">1,738  </text><text x="848.192" y="35.199" fill="#4c6a67" font-family="'Montserrat'" font-size="22" font-weight="600" text-anchor="middle">4.9%</text><path fill="none" stroke="#002f2a" stroke-width="1.5" d="M924.86 282.57h28.078q16 0 16-16v7.278q0-16-16-16H924.86q-16 0-16 16v-7.278q0 16 16 16z"/><text x="938.899" y="275.684" font-family="'Montserrat'" font-size="20" font-weight="700" text-anchor="middle">221  </text><text x="938.899" y="241.127" fill="#4c6a67" font-family="'Montserrat'" font-size="22" font-weight="600" text-anchor="middle">0.6%</text><path fill="none" stroke="#002f2a" stroke-width="1.5" d="M1012.6 235.73h34.019q16 0 16-16v7.278q0-16-16-16H1012.6q-16 0-16 16v-7.278q0 16 16 16z"/><text x="1029.606" y="228.851" font-family="'Montserrat'" font-size="20" font-weight="700" text-anchor="middle">566  </text><text x="1029.606" y="194.294" fill="#4c6a67" font-family="'Montserrat'" font-size="22" font-weight="600" text-anchor="middle">1.6%</text><path fill="none" stroke="#002f2a" stroke-width="1.5" d="M1097 130.94h46.6q16 0 16-16v7.278q0-16-16-16H1097q-16 0-16 16v-7.278q0 16 16 16z"/><text x="1120.313" y="124.055" font-family="'Montserrat'" font-size="20" font-weight="700" text-anchor="middle">1,338  </text><text x="1120.313" y="89.498" fill="#4c6a67" font-family="'Montserrat'" font-size="22" font-weight="600" text-anchor="middle">3.8%</text><path fill="none" stroke="#002f2a" stroke-width="1.5" d="M1193.1 254.19h35.841q16 0 16-16v7.278q0-16-16-16H1193.1q-16 0-16 16v-7.278q0 16 16 16z"/><text x="1211.02" y="247.313" font-family="'Montserrat'" font-size="20" font-weight="700" text-anchor="middle">430  </text><text x="1211.02" y="212.756" fill="#4c6a67" font-family="'Montserrat'" font-size="22" font-weight="600" text-anchor="middle">1.2%</text><path fill="none" stroke="#002f2a" stroke-width="1.5" d="M1278.4 97.814h46.619q16 0 16-16v7.278q0-16-16-16H1278.4q-16 0-16 16v-7.278q0 16 16 16z"/><text x="1301.727" y="90.933" font-family="'Montserrat'" font-size="20" font-weight="700" text-anchor="middle">1,582  </text><text x="1301.727" y="56.375" fill="#4c6a67" font-family="'Montserrat'" font-size="22" font-weight="600" text-anchor="middle">4.5%</text><path fill="none" stroke="#002f2a" stroke-width="1.5" d="M1377.4 287.18h30.078q16 0 16-16v7.278q0-16-16-16H1377.4q-16 0-16 16v-7.278q0 16 16 16z"/><text x="1392.434" y="280.299" font-family="'Montserrat'" font-size="20" font-weight="700" text-anchor="middle">187  </text><text x="1392.434" y="245.742" fill="#4c6a67" font-family="'Montserrat'" font-size="22" font-weight="600" text-anchor="middle">0.5%</text><path fill="none" stroke="#002f2a" stroke-width="1.5" d="M1458.7 109.49h48.981q16 0 16-16v7.278q0-16-16-16H1458.7q-16 0-16 16V93.49q0 16 16 16z"/><text x="1483.141" y="102.607" font-family="'Montserrat'" font-size="20" font-weight="700" text-anchor="middle">1,496  </text><text x="1483.141" y="68.05" fill="#4c6a67" font-family="'Montserrat'" font-size="22" font-weight="600" text-anchor="middle">4.2%</text><path fill="none" stroke="#002f2a" stroke-width="1.5" d="M1551.3 146.55h45.159q16 0 16-16v7.278q0-16-16-16H1551.3q-16 0-16 16v-7.278q0 16 16 16z"/><text x="1573.848" y="139.666" font-family="'Montserrat'" font-size="20" font-weight="700" text-anchor="middle">1,223  </text><text x="1573.848" y="105.108" fill="#4c6a67" font-family="'Montserrat'" font-size="22" font-weight="600" text-anchor="middle">3.5%</text><path fill="none" stroke="#002f2a" stroke-width="1.5" d="M1649.7 180.76h29.619q16 0 16-16v7.278q0-16-16-16H1649.7q-16 0-16 16v-7.278q0 16 16 16z"/><text x="1664.555" y="173.874" font-family="'Montserrat'" font-size="20" font-weight="700" text-anchor="middle">971  </text><text x="1664.555" y="139.317" fill="#4c6a67" font-family="'Montserrat'" font-size="22" font-weight="600" text-anchor="middle">2.7%</text><path fill="none" stroke="#002f2a" stroke-width="1.5" d="M1731.4 69.986h47.719q16 0 16-16v7.278q0-16-16-16H1731.4q-16 0-16 16v-7.278q0 16 16 16z"/><text x="1755.262" y="63.105" font-family="'Montserrat'" font-size="20" font-weight="700" text-anchor="middle">1,787  </text><text x="1755.262" y="28.547" fill="#4c6a67" font-family="'Montserrat'" font-size="22" font-weight="600" text-anchor="middle">5.0%</text><path fill="none" stroke="#002f2a" stroke-width="1.5" d="M1829 281.34h33.859q16 0 16-16v7.278q0-16-16-16H1829q-16 0-16 16v-7.278q0 16 16 16z"/><text x="1845.969" y="274.462" font-family="'Montserrat'" font-size="20" font-weight="700" text-anchor="middle">230  </text><text x="1845.969" y="239.905" fill="#4c6a67" font-family="'Montserrat'" font-size="22" font-weight="600" text-anchor="middle">0.6%</text><path fill="none" stroke="#002f2a" stroke-width="1.5" d="M1913.1 70.257h47.219q16 0 16-16v7.278q0-16-16-16H1913.1q-16 0-16 16v-7.278q0 16 16 16z"/><text x="1936.676" y="63.376" font-family="'Montserrat'" font-size="20" font-weight="700" text-anchor="middle">1,785  </text><text x="1936.676" y="28.819" fill="#4c6a67" font-family="'Montserrat'" font-size="22" font-weight="600" text-anchor="middle">5.0%</text><path fill="none" stroke="#002f2a" stroke-width="1.5" d="M2003.8 118.18h47.141q16 0 16-16v7.278q0-16-16-16H2003.8q-16 0-16 16v-7.278q0 16 16 16z"/><text x="2027.383" y="111.295" font-family="'Montserrat'" font-size="20" font-weight="700" text-anchor="middle">1,432  </text><text x="2027.383" y="76.737" fill="#4c6a67" font-family="'Montserrat'" font-size="22" font-weight="600" text-anchor="middle">4.0%</text><path fill="none" stroke="#002f2a" stroke-width="1.5" d="M2100.4 194.6h35.319q16 0 16-16v7.278q0-16-16-16H2100.4q-16 0-16 16V178.6q0 16 16 16z"/><text x="2118.09" y="187.72" font-family="'Montserrat'" font-size="20" font-weight="700" text-anchor="middle">869  </text><text x="2118.09" y="153.163" fill="#4c6a67" font-family="'Montserrat'" font-size="22" font-weight="600" text-anchor="middle">2.5%</text><path fill="none" stroke="#002f2a" stroke-width="1.5" d="M2190.8 252.43h36.041q16 0 16-16v7.278q0-16-16-16H2190.8q-16 0-16 16v-7.278q0 16 16 16z"/><text x="2208.797" y="245.548" font-family="'Montserrat'" font-size="20" font-weight="700" text-anchor="middle">443  </text><text x="2208.797" y="210.991" fill="#4c6a67" font-family="'Montserrat'" font-size="22" font-weight="600" text-anchor="middle">1.3%</text><path fill="none" stroke="#002f2a" stroke-width="1.5" d="M2278.4 93.334h42.2q16 0 16-16v7.278q0-16-16-16h-42.2q-16 0-16 16v-7.278q0 16 16 16z"/><text x="2299.504" y="86.453" font-family="'Montserrat'" font-size="20" font-weight="700" text-anchor="middle">1,615  </text><text x="2299.504" y="51.896" fill="#4c6a67" font-family="'Montserrat'" font-size="22" font-weight="600" text-anchor="middle">4.6%</text><path fill="none" stroke="#002f2a" stroke-width="1.5" d="M2367.3 103.92h45.859q16 0 16-16v7.278q0-16-16-16H2367.3q-16 0-16 16V87.92q0 16 16 16z"/><text x="2390.211" y="97.041" font-family="'Montserrat'" font-size="20" font-weight="700" text-anchor="middle">1,537  </text><text x="2390.211" y="62.484" fill="#4c6a67" font-family="'Montserrat'" font-size="22" font-weight="600" text-anchor="middle">4.3%</text><path fill="none" stroke="#002f2a" stroke-width="1.5" d="M2463.5 189.71h34.859q16 0 16-16v7.278q0-16-16-16H2463.5q-16 0-16 16v-7.278q0 16 16 16z"/><text x="2480.918" y="182.833" font-family="'Montserrat'" font-size="20" font-weight="700" text-anchor="middle">905  </text><text x="2480.918" y="148.276" fill="#4c6a67" font-family="'Montserrat'" font-size="22" font-weight="600" text-anchor="middle">2.6%</text><path fill="none" stroke="#002f2a" stroke-width="1.5" d="M2553.9 246.73h35.519q16 0 16-16v7.278q0-16-16-16H2553.9q-16 0-16 16v-7.278q0 16 16 16z"/><text x="2571.625" y="239.847" font-family="'Montserrat'" font-size="20" font-weight="700" text-anchor="middle">485  </text><text x="2571.625" y="205.29" fill="#4c6a67" font-family="'Montserrat'" font-size="22" font-weight="600" text-anchor="middle">1.4%</text><path fill="none" stroke="#002f2a" stroke-width="1.5" d="M2641.7 134.06h41.3q16 0 16-16v7.278q0-16-16-16h-41.3q-16 0-16 16v-7.278q0 16 16 16z"/><text x="2662.332" y="127.177" font-family="'Montserrat'" font-size="20" font-weight="700" text-anchor="middle">1,315  </text><text x="2662.332" y="92.62" fill="#4c6a67" font-family="'Montserrat'" font-size="22" font-weight="600" text-anchor="middle">3.7%</text><path fill="none" stroke="#002f2a" stroke-width="1.5" d="M2729.5 169.35h47.1q16 0 16-16v7.278q0-16-16-16h-47.1q-16 0-16 16v-7.278q0 16 16 16z"/><text x="2753.039" y="162.471" font-family="'Montserrat'" font-size="20" font-weight="700" text-anchor="middle">1,055  </text><text x="2753.039" y="127.914" fill="#4c6a67" font-family="'Montserrat'" font-size="22" font-weight="600" text-anchor="middle">3.0%</text><path fill="none" stroke="#002f2a" stroke-width="1.5" d="M2826.9 261.52h33.619q16 0 16-16v7.278q0-16-16-16H2826.9q-16 0-16 16v-7.278q0 16 16 16z"/><text x="2843.746" y="254.643" font-family="'Montserrat'" font-size="20" font-weight="700" text-anchor="middle">376  </text><text x="2843.746" y="220.086" fill="#4c6a67" font-family="'Montserrat'" font-size="22" font-weight="600" text-anchor="middle">1.1%</text><path fill="none" stroke="#002f2a" stroke-width="1.5" d="M2910.2 138.27h48.5q16 0 16-16v7.278q0-16-16-16h-48.5q-16 0-16 16v-7.278q0 16 16 16z"/><text x="2934.453" y="131.385" font-family="'Montserrat'" font-size="20" font-weight="700" text-anchor="middle">1,284  </text><text x="2934.453" y="96.828" fill="#4c6a67" font-family="'Montserrat'" font-size="22" font-weight="600" text-anchor="middle">3.6%</text><defs><clipPath id="a"><path d="M77.182 33.365h2902.6v284.74H77.182z"/></clipPath></defs></svg>