<?xml version="1.0" encoding="utf-8" standalone="no"?>
<!DOCTYPE svg PUBLIC "-//W3C//DTD SVG 1.1//EN"
  "http://www.w3.org/Graphics/SVG/1.1/DTD/svg11.dtd">
<svg xmlns:xlink="http://www.w3.org/1999/xlink" width="2109.646875pt" height="568.682344pt" viewBox="0 0 2109.646875 568.682344" xmlns="http://www.w3.org/2000/svg" version="1.1">
 <metadata>
  <rdf:RDF xmlns:dc="http://purl.org/dc/elements/1.1/" xmlns:cc="http://creativecommons.org/ns#" xmlns:rdf="http://www.w3.org/1999/02/22-rdf-syntax-ns#">
   <cc:Work>
    <dc:type rdf:resource="http://purl.org/dc/dcmitype/StillImage"/>
    <dc:date>2025-07-02T14:39:32.793096</dc:date>
    <dc:format>image/svg+xml</dc:format>
    <dc:creator>
     <cc:Agent>
      <dc:title>Matplotlib v3.10.1, https://matplotlib.org/</dc:title>
     </cc:Agent>
    </dc:creator>
   </cc:Work>
  </rdf:RDF>
 </metadata>
 <defs>
  <style type="text/css">*{stroke-linejoin: round; stroke-linecap: butt}</style>
 </defs>
 <g id="figure_1">
  <g id="patch_1">
   <path d="M 0 568.682344 
L 2109.646875 568.682344 
L 2109.646875 0 
L 0 0 
L 0 568.682344 
z
" style="fill: none; opacity: 0"/>
  </g>
  <g id="axes_1">
   <g id="patch_2">
    <path d="M 105.176875 531.08 
L 2102.446875 531.08 
L 2102.446875 7.2 
L 105.176875 7.2 
L 105.176875 531.08 
z
" style="fill: none; opacity: 0"/>
   </g>
   <g id="matplotlib.axis_1">
    <g id="xtick_1">
     <g id="line2d_1">
      <defs>
       <path id="m37d2c243fd" d="M 0 0 
L 0 3.5 
" style="stroke: #000000; stroke-width: 0.8"/>
      </defs>
      <g>
       <use xlink:href="#m37d2c243fd" x="152.730923" y="531.08" style="stroke: #000000; stroke-width: 0.8"/>
      </g>
     </g>
     <g id="text_1">
      <text style="font-weight: 500; font-size: 25px; font-family: 'Montserrat'; text-anchor: middle" x="152.730923" y="556.630781" transform="rotate(-0 152.730923 556.630781)">2006</text>
     </g>
    </g>
    <g id="xtick_2">
     <g id="line2d_2">
      <g>
       <use xlink:href="#m37d2c243fd" x="247.839018" y="531.08" style="stroke: #000000; stroke-width: 0.8"/>
      </g>
     </g>
     <g id="text_2">
      <text style="font-weight: 500; font-size: 25px; font-family: 'Montserrat'; text-anchor: middle" x="247.839018" y="556.630781" transform="rotate(-0 247.839018 556.630781)">2007</text>
     </g>
    </g>
    <g id="xtick_3">
     <g id="line2d_3">
      <g>
       <use xlink:href="#m37d2c243fd" x="342.947113" y="531.08" style="stroke: #000000; stroke-width: 0.8"/>
      </g>
     </g>
     <g id="text_3">
      <text style="font-weight: 500; font-size: 25px; font-family: 'Montserrat'; text-anchor: middle" x="342.947113" y="556.630781" transform="rotate(-0 342.947113 556.630781)">2008</text>
     </g>
    </g>
    <g id="xtick_4">
     <g id="line2d_4">
      <g>
       <use xlink:href="#m37d2c243fd" x="438.055208" y="531.08" style="stroke: #000000; stroke-width: 0.8"/>
      </g>
     </g>
     <g id="text_4">
      <text style="font-weight: 500; font-size: 25px; font-family: 'Montserrat'; text-anchor: middle" x="438.055208" y="556.630781" transform="rotate(-0 438.055208 556.630781)">2009</text>
     </g>
    </g>
    <g id="xtick_5">
     <g id="line2d_5">
      <g>
       <use xlink:href="#m37d2c243fd" x="533.163304" y="531.08" style="stroke: #000000; stroke-width: 0.8"/>
      </g>
     </g>
     <g id="text_5">
      <text style="font-weight: 500; font-size: 25px; font-family: 'Montserrat'; text-anchor: middle" x="533.163304" y="556.630781" transform="rotate(-0 533.163304 556.630781)">2010</text>
     </g>
    </g>
    <g id="xtick_6">
     <g id="line2d_6">
      <g>
       <use xlink:href="#m37d2c243fd" x="628.271399" y="531.08" style="stroke: #000000; stroke-width: 0.8"/>
      </g>
     </g>
     <g id="text_6">
      <text style="font-weight: 500; font-size: 25px; font-family: 'Montserrat'; text-anchor: middle" x="628.271399" y="556.630781" transform="rotate(-0 628.271399 556.630781)">2011</text>
     </g>
    </g>
    <g id="xtick_7">
     <g id="line2d_7">
      <g>
       <use xlink:href="#m37d2c243fd" x="723.379494" y="531.08" style="stroke: #000000; stroke-width: 0.8"/>
      </g>
     </g>
     <g id="text_7">
      <text style="font-weight: 500; font-size: 25px; font-family: 'Montserrat'; text-anchor: middle" x="723.379494" y="556.630781" transform="rotate(-0 723.379494 556.630781)">2012</text>
     </g>
    </g>
    <g id="xtick_8">
     <g id="line2d_8">
      <g>
       <use xlink:href="#m37d2c243fd" x="818.487589" y="531.08" style="stroke: #000000; stroke-width: 0.8"/>
      </g>
     </g>
     <g id="text_8">
      <text style="font-weight: 500; font-size: 25px; font-family: 'Montserrat'; text-anchor: middle" x="818.487589" y="556.630781" transform="rotate(-0 818.487589 556.630781)">2013</text>
     </g>
    </g>
    <g id="xtick_9">
     <g id="line2d_9">
      <g>
       <use xlink:href="#m37d2c243fd" x="913.595685" y="531.08" style="stroke: #000000; stroke-width: 0.8"/>
      </g>
     </g>
     <g id="text_9">
      <text style="font-weight: 500; font-size: 25px; font-family: 'Montserrat'; text-anchor: middle" x="913.595685" y="556.630781" transform="rotate(-0 913.595685 556.630781)">2014</text>
     </g>
    </g>
    <g id="xtick_10">
     <g id="line2d_10">
      <g>
       <use xlink:href="#m37d2c243fd" x="1008.70378" y="531.08" style="stroke: #000000; stroke-width: 0.8"/>
      </g>
     </g>
     <g id="text_10">
      <text style="font-weight: 500; font-size: 25px; font-family: 'Montserrat'; text-anchor: middle" x="1008.70378" y="556.630781" transform="rotate(-0 1008.70378 556.630781)">2015</text>
     </g>
    </g>
    <g id="xtick_11">
     <g id="line2d_11">
      <g>
       <use xlink:href="#m37d2c243fd" x="1103.811875" y="531.08" style="stroke: #000000; stroke-width: 0.8"/>
      </g>
     </g>
     <g id="text_11">
      <text style="font-weight: 500; font-size: 25px; font-family: 'Montserrat'; text-anchor: middle" x="1103.811875" y="556.630781" transform="rotate(-0 1103.811875 556.630781)">2016</text>
     </g>
    </g>
    <g id="xtick_12">
     <g id="line2d_12">
      <g>
       <use xlink:href="#m37d2c243fd" x="1198.91997" y="531.08" style="stroke: #000000; stroke-width: 0.8"/>
      </g>
     </g>
     <g id="text_12">
      <text style="font-weight: 500; font-size: 25px; font-family: 'Montserrat'; text-anchor: middle" x="1198.91997" y="556.630781" transform="rotate(-0 1198.91997 556.630781)">2017</text>
     </g>
    </g>
    <g id="xtick_13">
     <g id="line2d_13">
      <g>
       <use xlink:href="#m37d2c243fd" x="1294.028065" y="531.08" style="stroke: #000000; stroke-width: 0.8"/>
      </g>
     </g>
     <g id="text_13">
      <text style="font-weight: 500; font-size: 25px; font-family: 'Montserrat'; text-anchor: middle" x="1294.028065" y="556.630781" transform="rotate(-0 1294.028065 556.630781)">2018</text>
     </g>
    </g>
    <g id="xtick_14">
     <g id="line2d_14">
      <g>
       <use xlink:href="#m37d2c243fd" x="1389.136161" y="531.08" style="stroke: #000000; stroke-width: 0.8"/>
      </g>
     </g>
     <g id="text_14">
      <text style="font-weight: 500; font-size: 25px; font-family: 'Montserrat'; text-anchor: middle" x="1389.136161" y="556.630781" transform="rotate(-0 1389.136161 556.630781)">2019</text>
     </g>
    </g>
    <g id="xtick_15">
     <g id="line2d_15">
      <g>
       <use xlink:href="#m37d2c243fd" x="1484.244256" y="531.08" style="stroke: #000000; stroke-width: 0.8"/>
      </g>
     </g>
     <g id="text_15">
      <text style="font-weight: 500; font-size: 25px; font-family: 'Montserrat'; text-anchor: middle" x="1484.244256" y="556.630781" transform="rotate(-0 1484.244256 556.630781)">2020</text>
     </g>
    </g>
    <g id="xtick_16">
     <g id="line2d_16">
      <g>
       <use xlink:href="#m37d2c243fd" x="1579.352351" y="531.08" style="stroke: #000000; stroke-width: 0.8"/>
      </g>
     </g>
     <g id="text_16">
      <text style="font-weight: 500; font-size: 25px; font-family: 'Montserrat'; text-anchor: middle" x="1579.352351" y="556.630781" transform="rotate(-0 1579.352351 556.630781)">2021</text>
     </g>
    </g>
    <g id="xtick_17">
     <g id="line2d_17">
      <g>
       <use xlink:href="#m37d2c243fd" x="1674.460446" y="531.08" style="stroke: #000000; stroke-width: 0.8"/>
      </g>
     </g>
     <g id="text_17">
      <text style="font-weight: 500; font-size: 25px; font-family: 'Montserrat'; text-anchor: middle" x="1674.460446" y="556.630781" transform="rotate(-0 1674.460446 556.630781)">2022</text>
     </g>
    </g>
    <g id="xtick_18">
     <g id="line2d_18">
      <g>
       <use xlink:href="#m37d2c243fd" x="1769.568542" y="531.08" style="stroke: #000000; stroke-width: 0.8"/>
      </g>
     </g>
     <g id="text_18">
      <text style="font-weight: 500; font-size: 25px; font-family: 'Montserrat'; text-anchor: middle" x="1769.568542" y="556.630781" transform="rotate(-0 1769.568542 556.630781)">2023</text>
     </g>
    </g>
    <g id="xtick_19">
     <g id="line2d_19">
      <g>
       <use xlink:href="#m37d2c243fd" x="1864.676637" y="531.08" style="stroke: #000000; stroke-width: 0.8"/>
      </g>
     </g>
     <g id="text_19">
      <text style="font-weight: 500; font-size: 25px; font-family: 'Montserrat'; text-anchor: middle" x="1864.676637" y="556.630781" transform="rotate(-0 1864.676637 556.630781)">2024</text>
     </g>
    </g>
    <g id="xtick_20">
     <g id="line2d_20">
      <g>
       <use xlink:href="#m37d2c243fd" x="1959.784732" y="531.08" style="stroke: #000000; stroke-width: 0.8"/>
      </g>
     </g>
     <g id="text_20">
      <text style="font-weight: 500; font-size: 25px; font-family: 'Montserrat'; text-anchor: middle" x="1959.784732" y="556.630781" transform="rotate(-0 1959.784732 556.630781)">2025</text>
     </g>
    </g>
    <g id="xtick_21">
     <g id="line2d_21">
      <g>
       <use xlink:href="#m37d2c243fd" x="2054.892827" y="531.08" style="stroke: #000000; stroke-width: 0.8"/>
      </g>
     </g>
     <g id="text_21">
      <text style="font-weight: 500; font-size: 25px; font-family: 'Montserrat'; text-anchor: middle" x="2054.892827" y="556.630781" transform="rotate(-0 2054.892827 556.630781)"> </text>
     </g>
    </g>
   </g>
   <g id="matplotlib.axis_2">
    <g id="ytick_1">
     <g id="line2d_22">
      <path d="M 105.176875 523.245746 
L 2102.446875 523.245746 
" clip-path="url(#p2c3041f9c5)" style="fill: none; stroke: #b9b9b9; stroke-width: 0.75; stroke-linecap: square"/>
     </g>
     <g id="line2d_23">
      <defs>
       <path id="maeb9402eeb" d="M 0 0 
L -3.5 0 
" style="stroke: #000000; stroke-width: 0.8"/>
      </defs>
      <g>
       <use xlink:href="#maeb9402eeb" x="105.176875" y="523.245746" style="stroke: #000000; stroke-width: 0.8"/>
      </g>
     </g>
     <g id="text_22">
      <text style="font-weight: 500; font-size: 22px; font-family: 'DejaVu Sans', 'Bitstream Vera Sans', 'Computer Modern Sans Serif', 'Lucida Grande', 'Verdana', 'Geneva', 'Lucid', 'Arial', 'Helvetica', 'Avant Garde', sans-serif; text-anchor: end" x="98.176875" y="531.604027" transform="rotate(-0 98.176875 531.604027)">50,000</text>
     </g>
    </g>
    <g id="ytick_2">
     <g id="line2d_24">
      <path d="M 105.176875 381.4 
L 2102.446875 381.4 
" clip-path="url(#p2c3041f9c5)" style="fill: none; stroke: #b9b9b9; stroke-width: 0.75; stroke-linecap: square"/>
     </g>
     <g id="line2d_25">
      <g>
       <use xlink:href="#maeb9402eeb" x="105.176875" y="381.4" style="stroke: #000000; stroke-width: 0.8"/>
      </g>
     </g>
     <g id="text_23">
      <text style="font-weight: 500; font-size: 22px; font-family: 'DejaVu Sans', 'Bitstream Vera Sans', 'Computer Modern Sans Serif', 'Lucida Grande', 'Verdana', 'Geneva', 'Lucid', 'Arial', 'Helvetica', 'Avant Garde', sans-serif; text-anchor: end" x="98.176875" y="389.758281" transform="rotate(-0 98.176875 389.758281)">0</text>
     </g>
    </g>
    <g id="ytick_3">
     <g id="line2d_26">
      <path d="M 105.176875 239.554254 
L 2102.446875 239.554254 
" clip-path="url(#p2c3041f9c5)" style="fill: none; stroke: #b9b9b9; stroke-width: 0.75; stroke-linecap: square"/>
     </g>
     <g id="line2d_27">
      <g>
       <use xlink:href="#maeb9402eeb" x="105.176875" y="239.554254" style="stroke: #000000; stroke-width: 0.8"/>
      </g>
     </g>
     <g id="text_24">
      <text style="font-weight: 500; font-size: 22px; font-family: 'DejaVu Sans', 'Bitstream Vera Sans', 'Computer Modern Sans Serif', 'Lucida Grande', 'Verdana', 'Geneva', 'Lucid', 'Arial', 'Helvetica', 'Avant Garde', sans-serif; text-anchor: end" x="98.176875" y="247.912535" transform="rotate(-0 98.176875 247.912535)">50,000</text>
     </g>
    </g>
    <g id="ytick_4">
     <g id="line2d_28">
      <path d="M 105.176875 97.708508 
L 2102.446875 97.708508 
" clip-path="url(#p2c3041f9c5)" style="fill: none; stroke: #b9b9b9; stroke-width: 0.75; stroke-linecap: square"/>
     </g>
     <g id="line2d_29">
      <g>
       <use xlink:href="#maeb9402eeb" x="105.176875" y="97.708508" style="stroke: #000000; stroke-width: 0.8"/>
      </g>
     </g>
     <g id="text_25">
      <text style="font-weight: 500; font-size: 22px; font-family: 'DejaVu Sans', 'Bitstream Vera Sans', 'Computer Modern Sans Serif', 'Lucida Grande', 'Verdana', 'Geneva', 'Lucid', 'Arial', 'Helvetica', 'Avant Garde', sans-serif; text-anchor: end" x="98.176875" y="106.066789" transform="rotate(-0 98.176875 106.066789)">100,000</text>
     </g>
    </g>
   </g>
   <g id="patch_3">
    <path d="M 121.820792 381.4 
L 183.641054 381.4 
L 183.641054 380.038281 
L 121.820792 380.038281 
z
" clip-path="url(#p2c3041f9c5)" style="fill: #114a44"/>
   </g>
   <g id="patch_4">
    <path d="M 121.820792 380.038281 
L 183.641054 380.038281 
L 183.641054 379.740405 
L 121.820792 379.740405 
z
" clip-path="url(#p2c3041f9c5)" style="fill: #739489"/>
   </g>
   <g id="patch_5">
    <path d="M 121.820792 381.4 
L 183.641054 381.4 
L 183.641054 381.402837 
L 121.820792 381.402837 
z
" clip-path="url(#p2c3041f9c5)" style="fill: #3d5c93"/>
   </g>
   <g id="patch_6">
    <path d="M 216.928887 381.4 
L 278.749149 381.4 
L 278.749149 379.740405 
L 216.928887 379.740405 
z
" clip-path="url(#p2c3041f9c5)" style="fill: #114a44"/>
   </g>
   <g id="patch_7">
    <path d="M 216.928887 379.740405 
L 278.749149 379.740405 
L 278.749149 378.489325 
L 216.928887 378.489325 
z
" clip-path="url(#p2c3041f9c5)" style="fill: #739489"/>
   </g>
   <g id="patch_8">
    <path d="M 216.928887 381.4 
L 278.749149 381.4 
L 278.749149 381.402837 
L 216.928887 381.402837 
z
" clip-path="url(#p2c3041f9c5)" style="fill: #3d5c93"/>
   </g>
   <g id="patch_9">
    <path d="M 216.928887 381.402837 
L 278.749149 381.402837 
L 278.749149 381.431206 
L 216.928887 381.431206 
z
" clip-path="url(#p2c3041f9c5)" style="fill: #7393b3"/>
   </g>
   <g id="patch_10">
    <path d="M 312.036982 381.4 
L 373.857244 381.4 
L 373.857244 378.489325 
L 312.036982 378.489325 
z
" clip-path="url(#p2c3041f9c5)" style="fill: #114a44"/>
   </g>
   <g id="patch_11">
    <path d="M 312.036982 378.489325 
L 373.857244 378.489325 
L 373.857244 376.795687 
L 312.036982 376.795687 
z
" clip-path="url(#p2c3041f9c5)" style="fill: #739489"/>
   </g>
   <g id="patch_12">
    <path d="M 312.036982 381.4 
L 373.857244 381.4 
L 373.857244 381.431206 
L 312.036982 381.431206 
z
" clip-path="url(#p2c3041f9c5)" style="fill: #3d5c93"/>
   </g>
   <g id="patch_13">
    <path d="M 312.036982 381.431206 
L 373.857244 381.431206 
L 373.857244 381.442554 
L 312.036982 381.442554 
z
" clip-path="url(#p2c3041f9c5)" style="fill: #7393b3"/>
   </g>
   <g id="patch_14">
    <path d="M 407.145077 381.4 
L 468.965339 381.4 
L 468.965339 376.795687 
L 407.145077 376.795687 
z
" clip-path="url(#p2c3041f9c5)" style="fill: #114a44"/>
   </g>
   <g id="patch_15">
    <path d="M 407.145077 376.795687 
L 468.965339 376.795687 
L 468.965339 374.032532 
L 407.145077 374.032532 
z
" clip-path="url(#p2c3041f9c5)" style="fill: #739489"/>
   </g>
   <g id="patch_16">
    <path d="M 407.145077 381.4 
L 468.965339 381.4 
L 468.965339 381.442554 
L 407.145077 381.442554 
z
" clip-path="url(#p2c3041f9c5)" style="fill: #3d5c93"/>
   </g>
   <g id="patch_17">
    <path d="M 407.145077 381.442554 
L 468.965339 381.442554 
L 468.965339 381.482271 
L 407.145077 381.482271 
z
" clip-path="url(#p2c3041f9c5)" style="fill: #7393b3"/>
   </g>
   <g id="patch_18">
    <path d="M 502.253173 381.4 
L 564.073435 381.4 
L 564.073435 374.032532 
L 502.253173 374.032532 
z
" clip-path="url(#p2c3041f9c5)" style="fill: #114a44"/>
   </g>
   <g id="patch_19">
    <path d="M 502.253173 374.032532 
L 564.073435 374.032532 
L 564.073435 367.518975 
L 502.253173 367.518975 
z
" clip-path="url(#p2c3041f9c5)" style="fill: #739489"/>
   </g>
   <g id="patch_20">
    <path d="M 502.253173 381.4 
L 564.073435 381.4 
L 564.073435 381.482271 
L 502.253173 381.482271 
z
" clip-path="url(#p2c3041f9c5)" style="fill: #3d5c93"/>
   </g>
   <g id="patch_21">
    <path d="M 502.253173 381.482271 
L 564.073435 381.482271 
L 564.073435 381.533335 
L 502.253173 381.533335 
z
" clip-path="url(#p2c3041f9c5)" style="fill: #7393b3"/>
   </g>
   <g id="patch_22">
    <path d="M 597.361268 381.4 
L 659.18153 381.4 
L 659.18153 367.518975 
L 597.361268 367.518975 
z
" clip-path="url(#p2c3041f9c5)" style="fill: #114a44"/>
   </g>
   <g id="patch_23">
    <path d="M 597.361268 367.518975 
L 659.18153 367.518975 
L 659.18153 359.530223 
L 597.361268 359.530223 
z
" clip-path="url(#p2c3041f9c5)" style="fill: #739489"/>
   </g>
   <g id="patch_24">
    <path d="M 597.361268 381.4 
L 659.18153 381.4 
L 659.18153 381.533335 
L 597.361268 381.533335 
z
" clip-path="url(#p2c3041f9c5)" style="fill: #3d5c93"/>
   </g>
   <g id="patch_25">
    <path d="M 597.361268 381.533335 
L 659.18153 381.533335 
L 659.18153 381.601421 
L 597.361268 381.601421 
z
" clip-path="url(#p2c3041f9c5)" style="fill: #7393b3"/>
   </g>
   <g id="patch_26">
    <path d="M 692.469363 381.4 
L 754.289625 381.4 
L 754.289625 359.530223 
L 692.469363 359.530223 
z
" clip-path="url(#p2c3041f9c5)" style="fill: #114a44"/>
   </g>
   <g id="patch_27">
    <path d="M 692.469363 359.530223 
L 754.289625 359.530223 
L 754.289625 352.293253 
L 692.469363 352.293253 
z
" clip-path="url(#p2c3041f9c5)" style="fill: #739489"/>
   </g>
   <g id="patch_28">
    <path d="M 692.469363 381.4 
L 754.289625 381.4 
L 754.289625 381.601421 
L 692.469363 381.601421 
z
" clip-path="url(#p2c3041f9c5)" style="fill: #3d5c93"/>
   </g>
   <g id="patch_29">
    <path d="M 692.469363 381.601421 
L 754.289625 381.601421 
L 754.289625 381.689365 
L 692.469363 381.689365 
z
" clip-path="url(#p2c3041f9c5)" style="fill: #7393b3"/>
   </g>
   <g id="patch_30">
    <path d="M 787.577458 381.4 
L 849.39772 381.4 
L 849.39772 352.293253 
L 787.577458 352.293253 
z
" clip-path="url(#p2c3041f9c5)" style="fill: #114a44"/>
   </g>
   <g id="patch_31">
    <path d="M 787.577458 352.293253 
L 849.39772 352.293253 
L 849.39772 344.162655 
L 787.577458 344.162655 
z
" clip-path="url(#p2c3041f9c5)" style="fill: #739489"/>
   </g>
   <g id="patch_32">
    <path d="M 787.577458 381.4 
L 849.39772 381.4 
L 849.39772 381.689365 
L 787.577458 381.689365 
z
" clip-path="url(#p2c3041f9c5)" style="fill: #3d5c93"/>
   </g>
   <g id="patch_33">
    <path d="M 787.577458 381.689365 
L 849.39772 381.689365 
L 849.39772 381.890786 
L 787.577458 381.890786 
z
" clip-path="url(#p2c3041f9c5)" style="fill: #7393b3"/>
   </g>
   <g id="patch_34">
    <path d="M 882.685554 381.4 
L 944.505815 381.4 
L 944.505815 344.162655 
L 882.685554 344.162655 
z
" clip-path="url(#p2c3041f9c5)" style="fill: #114a44"/>
   </g>
   <g id="patch_35">
    <path d="M 882.685554 344.162655 
L 944.505815 344.162655 
L 944.505815 335.978155 
L 882.685554 335.978155 
z
" clip-path="url(#p2c3041f9c5)" style="fill: #739489"/>
   </g>
   <g id="patch_36">
    <path d="M 882.685554 381.4 
L 944.505815 381.4 
L 944.505815 381.890786 
L 882.685554 381.890786 
z
" clip-path="url(#p2c3041f9c5)" style="fill: #3d5c93"/>
   </g>
   <g id="patch_37">
    <path d="M 882.685554 381.890786 
L 944.505815 381.890786 
L 944.505815 382.20001 
L 882.685554 382.20001 
z
" clip-path="url(#p2c3041f9c5)" style="fill: #7393b3"/>
   </g>
   <g id="patch_38">
    <path d="M 977.793649 381.4 
L 1039.613911 381.4 
L 1039.613911 335.978155 
L 977.793649 335.978155 
z
" clip-path="url(#p2c3041f9c5)" style="fill: #114a44"/>
   </g>
   <g id="patch_39">
    <path d="M 977.793649 335.978155 
L 1039.613911 335.978155 
L 1039.613911 327.958197 
L 977.793649 327.958197 
z
" clip-path="url(#p2c3041f9c5)" style="fill: #739489"/>
   </g>
   <g id="patch_40">
    <path d="M 977.793649 381.4 
L 1039.613911 381.4 
L 1039.613911 382.20001 
L 977.793649 382.20001 
z
" clip-path="url(#p2c3041f9c5)" style="fill: #3d5c93"/>
   </g>
   <g id="patch_41">
    <path d="M 977.793649 382.20001 
L 1039.613911 382.20001 
L 1039.613911 382.764556 
L 977.793649 382.764556 
z
" clip-path="url(#p2c3041f9c5)" style="fill: #7393b3"/>
   </g>
   <g id="patch_42">
    <path d="M 1072.901744 381.4 
L 1134.722006 381.4 
L 1134.722006 327.958197 
L 1072.901744 327.958197 
z
" clip-path="url(#p2c3041f9c5)" style="fill: #114a44"/>
   </g>
   <g id="patch_43">
    <path d="M 1072.901744 327.958197 
L 1134.722006 327.958197 
L 1134.722006 317.413384 
L 1072.901744 317.413384 
z
" clip-path="url(#p2c3041f9c5)" style="fill: #739489"/>
   </g>
   <g id="patch_44">
    <path d="M 1072.901744 381.4 
L 1134.722006 381.4 
L 1134.722006 382.764556 
L 1072.901744 382.764556 
z
" clip-path="url(#p2c3041f9c5)" style="fill: #3d5c93"/>
   </g>
   <g id="patch_45">
    <path d="M 1072.901744 382.764556 
L 1134.722006 382.764556 
L 1134.722006 383.297896 
L 1072.901744 383.297896 
z
" clip-path="url(#p2c3041f9c5)" style="fill: #7393b3"/>
   </g>
   <g id="patch_46">
    <path d="M 1168.009839 381.4 
L 1229.830101 381.4 
L 1229.830101 317.413384 
L 1168.009839 317.413384 
z
" clip-path="url(#p2c3041f9c5)" style="fill: #114a44"/>
   </g>
   <g id="patch_47">
    <path d="M 1168.009839 317.413384 
L 1229.830101 317.413384 
L 1229.830101 302.947955 
L 1168.009839 302.947955 
z
" clip-path="url(#p2c3041f9c5)" style="fill: #739489"/>
   </g>
   <g id="patch_48">
    <path d="M 1168.009839 381.4 
L 1229.830101 381.4 
L 1229.830101 383.297896 
L 1168.009839 383.297896 
z
" clip-path="url(#p2c3041f9c5)" style="fill: #3d5c93"/>
   </g>
   <g id="patch_49">
    <path d="M 1168.009839 383.297896 
L 1229.830101 383.297896 
L 1229.830101 384.106417 
L 1168.009839 384.106417 
z
" clip-path="url(#p2c3041f9c5)" style="fill: #7393b3"/>
   </g>
   <g id="patch_50">
    <path d="M 1263.117935 381.4 
L 1324.938196 381.4 
L 1324.938196 302.947955 
L 1263.117935 302.947955 
z
" clip-path="url(#p2c3041f9c5)" style="fill: #114a44"/>
   </g>
   <g id="patch_51">
    <path d="M 1263.117935 302.947955 
L 1324.938196 302.947955 
L 1324.938196 291.657033 
L 1263.117935 291.657033 
z
" clip-path="url(#p2c3041f9c5)" style="fill: #739489"/>
   </g>
   <g id="patch_52">
    <path d="M 1263.117935 381.4 
L 1324.938196 381.4 
L 1324.938196 384.106417 
L 1263.117935 384.106417 
z
" clip-path="url(#p2c3041f9c5)" style="fill: #3d5c93"/>
   </g>
   <g id="patch_53">
    <path d="M 1263.117935 384.106417 
L 1324.938196 384.106417 
L 1324.938196 385.241183 
L 1263.117935 385.241183 
z
" clip-path="url(#p2c3041f9c5)" style="fill: #7393b3"/>
   </g>
   <g id="patch_54">
    <path d="M 1358.22603 381.4 
L 1420.046292 381.4 
L 1420.046292 291.657033 
L 1358.22603 291.657033 
z
" clip-path="url(#p2c3041f9c5)" style="fill: #114a44"/>
   </g>
   <g id="patch_55">
    <path d="M 1358.22603 291.657033 
L 1420.046292 291.657033 
L 1420.046292 277.662532 
L 1358.22603 277.662532 
z
" clip-path="url(#p2c3041f9c5)" style="fill: #739489"/>
   </g>
   <g id="patch_56">
    <path d="M 1358.22603 381.4 
L 1420.046292 381.4 
L 1420.046292 385.241183 
L 1358.22603 385.241183 
z
" clip-path="url(#p2c3041f9c5)" style="fill: #3d5c93"/>
   </g>
   <g id="patch_57">
    <path d="M 1358.22603 385.241183 
L 1420.046292 385.241183 
L 1420.046292 386.88943 
L 1358.22603 386.88943 
z
" clip-path="url(#p2c3041f9c5)" style="fill: #7393b3"/>
   </g>
   <g id="patch_58">
    <path d="M 1453.334125 381.4 
L 1515.154387 381.4 
L 1515.154387 277.662532 
L 1453.334125 277.662532 
z
" clip-path="url(#p2c3041f9c5)" style="fill: #114a44"/>
   </g>
   <g id="patch_59">
    <path d="M 1453.334125 277.662532 
L 1515.154387 277.662532 
L 1515.154387 254.153018 
L 1453.334125 254.153018 
z
" clip-path="url(#p2c3041f9c5)" style="fill: #739489"/>
   </g>
   <g id="patch_60">
    <path d="M 1453.334125 381.4 
L 1515.154387 381.4 
L 1515.154387 386.88943 
L 1453.334125 386.88943 
z
" clip-path="url(#p2c3041f9c5)" style="fill: #3d5c93"/>
   </g>
   <g id="patch_61">
    <path d="M 1453.334125 386.88943 
L 1515.154387 386.88943 
L 1515.154387 393.005819 
L 1453.334125 393.005819 
z
" clip-path="url(#p2c3041f9c5)" style="fill: #7393b3"/>
   </g>
   <g id="patch_62">
    <path d="M 1548.44222 381.4 
L 1610.262482 381.4 
L 1610.262482 254.153018 
L 1548.44222 254.153018 
z
" clip-path="url(#p2c3041f9c5)" style="fill: #114a44"/>
   </g>
   <g id="patch_63">
    <path d="M 1548.44222 254.153018 
L 1610.262482 254.153018 
L 1610.262482 225.41507 
L 1548.44222 225.41507 
z
" clip-path="url(#p2c3041f9c5)" style="fill: #739489"/>
   </g>
   <g id="patch_64">
    <path d="M 1548.44222 381.4 
L 1610.262482 381.4 
L 1610.262482 393.005819 
L 1548.44222 393.005819 
z
" clip-path="url(#p2c3041f9c5)" style="fill: #3d5c93"/>
   </g>
   <g id="patch_65">
    <path d="M 1548.44222 393.005819 
L 1610.262482 393.005819 
L 1610.262482 401.527911 
L 1548.44222 401.527911 
z
" clip-path="url(#p2c3041f9c5)" style="fill: #7393b3"/>
   </g>
   <g id="patch_66">
    <path d="M 1643.550315 381.4 
L 1705.370577 381.4 
L 1705.370577 225.41507 
L 1643.550315 225.41507 
z
" clip-path="url(#p2c3041f9c5)" style="fill: #114a44"/>
   </g>
   <g id="patch_67">
    <path d="M 1643.550315 225.41507 
L 1705.370577 225.41507 
L 1705.370577 197.179256 
L 1643.550315 197.179256 
z
" clip-path="url(#p2c3041f9c5)" style="fill: #739489"/>
   </g>
   <g id="patch_68">
    <path d="M 1643.550315 381.4 
L 1705.370577 381.4 
L 1705.370577 401.527911 
L 1643.550315 401.527911 
z
" clip-path="url(#p2c3041f9c5)" style="fill: #3d5c93"/>
   </g>
   <g id="patch_69">
    <path d="M 1643.550315 401.527911 
L 1705.370577 401.527911 
L 1705.370577 410.787602 
L 1643.550315 410.787602 
z
" clip-path="url(#p2c3041f9c5)" style="fill: #7393b3"/>
   </g>
   <g id="patch_70">
    <path d="M 1738.658411 381.4 
L 1800.478673 381.4 
L 1800.478673 197.179256 
L 1738.658411 197.179256 
z
" clip-path="url(#p2c3041f9c5)" style="fill: #114a44"/>
   </g>
   <g id="patch_71">
    <path d="M 1738.658411 197.179256 
L 1800.478673 197.179256 
L 1800.478673 153.04537 
L 1738.658411 153.04537 
z
" clip-path="url(#p2c3041f9c5)" style="fill: #739489"/>
   </g>
   <g id="patch_72">
    <path d="M 1738.658411 381.4 
L 1800.478673 381.4 
L 1800.478673 410.787602 
L 1738.658411 410.787602 
z
" clip-path="url(#p2c3041f9c5)" style="fill: #3d5c93"/>
   </g>
   <g id="patch_73">
    <path d="M 1738.658411 410.787602 
L 1800.478673 410.787602 
L 1800.478673 435.190744 
L 1738.658411 435.190744 
z
" clip-path="url(#p2c3041f9c5)" style="fill: #7393b3"/>
   </g>
   <g id="patch_74">
    <path d="M 1833.766506 381.4 
L 1895.586768 381.4 
L 1895.586768 153.04537 
L 1833.766506 153.04537 
z
" clip-path="url(#p2c3041f9c5)" style="fill: #114a44"/>
   </g>
   <g id="patch_75">
    <path d="M 1833.766506 153.04537 
L 1895.586768 153.04537 
L 1895.586768 86.735321 
L 1833.766506 86.735321 
z
" clip-path="url(#p2c3041f9c5)" style="fill: #739489"/>
   </g>
   <g id="patch_76">
    <path d="M 1833.766506 381.4 
L 1895.586768 381.4 
L 1895.586768 435.190744 
L 1833.766506 435.190744 
z
" clip-path="url(#p2c3041f9c5)" style="fill: #3d5c93"/>
   </g>
   <g id="patch_77">
    <path d="M 1833.766506 435.190744 
L 1895.586768 435.190744 
L 1895.586768 471.137293 
L 1833.766506 471.137293 
z
" clip-path="url(#p2c3041f9c5)" style="fill: #7393b3"/>
   </g>
   <g id="patch_78">
    <path d="M 1928.874601 381.4 
L 1990.694863 381.4 
L 1990.694863 86.735321 
L 1928.874601 86.735321 
z
" clip-path="url(#p2c3041f9c5)" style="fill: #114a44"/>
   </g>
   <g id="patch_79">
    <path d="M 1928.874601 86.735321 
L 1990.694863 86.735321 
L 1990.694863 56.008696 
L 1928.874601 56.008696 
z
" clip-path="url(#p2c3041f9c5)" style="fill: #739489"/>
   </g>
   <g id="patch_80">
    <path d="M 1928.874601 381.4 
L 1990.694863 381.4 
L 1990.694863 471.137293 
L 1928.874601 471.137293 
z
" clip-path="url(#p2c3041f9c5)" style="fill: #3d5c93"/>
   </g>
   <g id="patch_81">
    <path d="M 1928.874601 471.137293 
L 1990.694863 471.137293 
L 1990.694863 488.618362 
L 1928.874601 488.618362 
z
" clip-path="url(#p2c3041f9c5)" style="fill: #7393b3"/>
   </g>
   <g id="patch_82">
    <path d="M 2023.982696 381.4 
L 2085.802958 381.4 
L 2085.802958 420.356516 
L 2023.982696 420.356516 
L 2023.982696 381.4 
z
" clip-path="url(#p2c3041f9c5)" style="fill: none; stroke-dasharray: 3.5,5.775; stroke-dashoffset: 0; stroke: #114a44; stroke-width: 3.5; stroke-linejoin: miter"/>
   </g>
   <g id="line2d_30">
    <path d="M 105.176875 381.4 
L 2102.446875 381.4 
" clip-path="url(#p2c3041f9c5)" style="fill: none; stroke: #000000; stroke-linecap: square"/>
   </g>
   <g id="patch_83">
    <path d="M 105.176875 531.08 
L 2102.446875 531.08 
" style="fill: none; stroke: #000000; stroke-width: 0.8; stroke-linejoin: miter; stroke-linecap: square"/>
   </g>
   <g id="text_26">
    <g id="patch_84">
     <path d="M 140.11686 370.764405 
L 165.344985 370.764405 
Q 177.344985 370.764405 177.344985 358.764405 
L 177.344985 364.222999 
Q 177.344985 352.222999 165.344985 352.222999 
L 140.11686 352.222999 
Q 128.11686 352.222999 128.11686 364.222999 
L 128.11686 358.764405 
Q 128.11686 370.764405 140.11686 370.764405 
L 140.11686 370.764405 
z
" style="fill: none; stroke: #002f2a; stroke-width: 1.5; stroke-linejoin: miter"/>
    </g>
    <text style="font-weight: 700; font-size: 15px; font-family: 'Montserrat'; text-anchor: middle" x="152.730923" y="365.603467" transform="rotate(-0 152.730923 365.603467)">  585  </text>
   </g>
   <g id="text_27">
    <g id="patch_85">
     <path d="M 151.051626 408.920243 
L 154.410219 408.920243 
Q 166.410219 408.920243 166.410219 396.920243 
L 166.410219 402.378837 
Q 166.410219 390.378837 154.410219 390.378837 
L 151.051626 390.378837 
Q 139.051626 390.378837 139.051626 402.378837 
L 139.051626 396.920243 
Q 139.051626 408.920243 151.051626 408.920243 
L 151.051626 408.920243 
z
" style="fill: none; stroke: #002f2a; stroke-width: 1.5; stroke-linejoin: miter"/>
    </g>
    <text style="font-weight: 700; font-size: 15px; font-family: 'Montserrat'; text-anchor: middle" x="152.730923" y="403.759306" transform="rotate(-0 152.730923 403.759306)">  1  </text>
   </g>
   <g id="text_28">
    <g id="patch_86">
     <path d="M 229.898783 369.513325 
L 265.779252 369.513325 
Q 277.779252 369.513325 277.779252 357.513325 
L 277.779252 362.971919 
Q 277.779252 350.971919 265.779252 350.971919 
L 229.898783 350.971919 
Q 217.898783 350.971919 217.898783 362.971919 
L 217.898783 357.513325 
Q 217.898783 369.513325 229.898783 369.513325 
L 229.898783 369.513325 
z
" style="fill: none; stroke: #002f2a; stroke-width: 1.5; stroke-linejoin: miter"/>
    </g>
    <text style="font-weight: 700; font-size: 15px; font-family: 'Montserrat'; text-anchor: middle" x="247.839018" y="364.352388" transform="rotate(-0 247.839018 364.352388)">  1,026  </text>
   </g>
   <g id="text_29">
    <g id="patch_87">
     <path d="M 243.219487 408.948612 
L 252.458549 408.948612 
Q 264.458549 408.948612 264.458549 396.948612 
L 264.458549 402.407206 
Q 264.458549 390.407206 252.458549 390.407206 
L 243.219487 390.407206 
Q 231.219487 390.407206 231.219487 402.407206 
L 231.219487 396.948612 
Q 231.219487 408.948612 243.219487 408.948612 
L 243.219487 408.948612 
z
" style="fill: none; stroke: #002f2a; stroke-width: 1.5; stroke-linejoin: miter"/>
    </g>
    <text style="font-weight: 700; font-size: 15px; font-family: 'Montserrat'; text-anchor: middle" x="247.839018" y="403.787675" transform="rotate(-0 247.839018 403.787675)">  11  </text>
   </g>
   <g id="text_30">
    <g id="patch_88">
     <path d="M 325.659613 367.819687 
L 360.234613 367.819687 
Q 372.234613 367.819687 372.234613 355.819687 
L 372.234613 361.278281 
Q 372.234613 349.278281 360.234613 349.278281 
L 325.659613 349.278281 
Q 313.659613 349.278281 313.659613 361.278281 
L 313.659613 355.819687 
Q 313.659613 367.819687 325.659613 367.819687 
L 325.659613 367.819687 
z
" style="fill: none; stroke: #002f2a; stroke-width: 1.5; stroke-linejoin: miter"/>
    </g>
    <text style="font-weight: 700; font-size: 15px; font-family: 'Montserrat'; text-anchor: middle" x="342.947113" y="362.65875" transform="rotate(-0 342.947113 362.65875)">  1,623  </text>
   </g>
   <g id="text_31">
    <g id="patch_89">
     <path d="M 336.805316 408.95996 
L 349.08891 408.95996 
Q 361.08891 408.95996 361.08891 396.95996 
L 361.08891 402.418554 
Q 361.08891 390.418554 349.08891 390.418554 
L 336.805316 390.418554 
Q 324.805316 390.418554 324.805316 402.418554 
L 324.805316 396.95996 
Q 324.805316 408.95996 336.805316 408.95996 
L 336.805316 408.95996 
z
" style="fill: none; stroke: #002f2a; stroke-width: 1.5; stroke-linejoin: miter"/>
    </g>
    <text style="font-weight: 700; font-size: 15px; font-family: 'Montserrat'; text-anchor: middle" x="342.947113" y="403.799022" transform="rotate(-0 342.947113 403.799022)">  15  </text>
   </g>
   <g id="text_32">
    <g id="patch_90">
     <path d="M 419.035677 365.056532 
L 457.07474 365.056532 
Q 469.07474 365.056532 469.07474 353.056532 
L 469.07474 358.515126 
Q 469.07474 346.515126 457.07474 346.515126 
L 419.035677 346.515126 
Q 407.035677 346.515126 407.035677 358.515126 
L 407.035677 353.056532 
Q 407.035677 365.056532 419.035677 365.056532 
L 419.035677 365.056532 
z
" style="fill: none; stroke: #002f2a; stroke-width: 1.5; stroke-linejoin: miter"/>
    </g>
    <text style="font-weight: 700; font-size: 15px; font-family: 'Montserrat'; text-anchor: middle" x="438.055208" y="359.895594" transform="rotate(-0 438.055208 359.895594)">  2,597  </text>
   </g>
   <g id="text_33">
    <g id="patch_91">
     <path d="M 430.113411 408.999677 
L 445.997005 408.999677 
Q 457.997005 408.999677 457.997005 396.999677 
L 457.997005 402.458271 
Q 457.997005 390.458271 445.997005 390.458271 
L 430.113411 390.458271 
Q 418.113411 390.458271 418.113411 402.458271 
L 418.113411 396.999677 
Q 418.113411 408.999677 430.113411 408.999677 
L 430.113411 408.999677 
z
" style="fill: none; stroke: #002f2a; stroke-width: 1.5; stroke-linejoin: miter"/>
    </g>
    <text style="font-weight: 700; font-size: 15px; font-family: 'Montserrat'; text-anchor: middle" x="438.055208" y="403.838739" transform="rotate(-0 438.055208 403.838739)">  29  </text>
   </g>
   <g id="text_34">
    <text style="font-weight: 700; font-size: 7px; font-family: 'Montserrat'; text-anchor: middle; fill: #ffffff" x="533.163304" y="379.634157" transform="rotate(-0 533.163304 379.634157)">2,597 (53.1%)</text>
   </g>
   <g id="text_35">
    <text style="font-weight: 700; font-size: 7px; font-family: 'Montserrat'; text-anchor: middle; fill: #ffffff" x="533.163304" y="372.693644" transform="rotate(-0 533.163304 372.693644)">2,296 (46.9%)</text>
   </g>
   <g id="text_36">
    <g id="patch_92">
     <path d="M 513.123069 358.542975 
L 553.203538 358.542975 
Q 565.203538 358.542975 565.203538 346.542975 
L 565.203538 352.001569 
Q 565.203538 340.001569 553.203538 340.001569 
L 513.123069 340.001569 
Q 501.123069 340.001569 501.123069 352.001569 
L 501.123069 346.542975 
Q 501.123069 358.542975 513.123069 358.542975 
L 513.123069 358.542975 
z
" style="fill: none; stroke: #002f2a; stroke-width: 1.5; stroke-linejoin: miter"/>
    </g>
    <text style="font-weight: 700; font-size: 15px; font-family: 'Montserrat'; text-anchor: middle" x="533.163304" y="353.382038" transform="rotate(-0 533.163304 353.382038)">  4,893  </text>
   </g>
   <g id="text_37">
    <g id="patch_93">
     <path d="M 524.606272 409.050741 
L 541.720335 409.050741 
Q 553.720335 409.050741 553.720335 397.050741 
L 553.720335 402.509335 
Q 553.720335 390.509335 541.720335 390.509335 
L 524.606272 390.509335 
Q 512.606272 390.509335 512.606272 402.509335 
L 512.606272 397.050741 
Q 512.606272 409.050741 524.606272 409.050741 
L 524.606272 409.050741 
z
" style="fill: none; stroke: #002f2a; stroke-width: 1.5; stroke-linejoin: miter"/>
    </g>
    <text style="font-weight: 700; font-size: 15px; font-family: 'Montserrat'; text-anchor: middle" x="533.163304" y="403.889804" transform="rotate(-0 533.163304 403.889804)">  47  </text>
   </g>
   <g id="text_38">
    <text style="font-weight: 700; font-size: 7px; font-family: 'Montserrat'; text-anchor: middle; fill: #ffffff" x="628.271399" y="376.377378" transform="rotate(-0 628.271399 376.377378)">4,893 (63.5%)</text>
   </g>
   <g id="text_39">
    <text style="font-weight: 700; font-size: 7px; font-family: 'Montserrat'; text-anchor: middle; fill: #ffffff" x="628.271399" y="365.44249" transform="rotate(-0 628.271399 365.44249)">2,816 (36.5%)</text>
   </g>
   <g id="text_40">
    <g id="patch_94">
     <path d="M 608.396399 350.554223 
L 648.146399 350.554223 
Q 660.146399 350.554223 660.146399 338.554223 
L 660.146399 344.012817 
Q 660.146399 332.012817 648.146399 332.012817 
L 608.396399 332.012817 
Q 596.396399 332.012817 596.396399 344.012817 
L 596.396399 338.554223 
Q 596.396399 350.554223 608.396399 350.554223 
L 608.396399 350.554223 
z
" style="fill: none; stroke: #002f2a; stroke-width: 1.5; stroke-linejoin: miter"/>
    </g>
    <text style="font-weight: 700; font-size: 15px; font-family: 'Montserrat'; text-anchor: middle" x="628.271399" y="345.393285" transform="rotate(-0 628.271399 345.393285)">  7,709  </text>
   </g>
   <g id="text_41">
    <g id="patch_95">
     <path d="M 621.942102 409.118827 
L 634.600696 409.118827 
Q 646.600696 409.118827 646.600696 397.118827 
L 646.600696 402.577421 
Q 646.600696 390.577421 634.600696 390.577421 
L 621.942102 390.577421 
Q 609.942102 390.577421 609.942102 402.577421 
L 609.942102 397.118827 
Q 609.942102 409.118827 621.942102 409.118827 
L 621.942102 409.118827 
z
" style="fill: none; stroke: #002f2a; stroke-width: 1.5; stroke-linejoin: miter"/>
    </g>
    <text style="font-weight: 700; font-size: 15px; font-family: 'Montserrat'; text-anchor: middle" x="628.271399" y="403.95789" transform="rotate(-0 628.271399 403.95789)">  71  </text>
   </g>
   <g id="text_42">
    <text style="font-weight: 700; font-size: 7px; font-family: 'Montserrat'; text-anchor: middle; fill: #ffffff" x="723.379494" y="372.383002" transform="rotate(-0 723.379494 372.383002)">7,709 (75.1%)</text>
   </g>
   <g id="text_43">
    <text style="font-weight: 700; font-size: 7px; font-family: 'Montserrat'; text-anchor: middle; fill: #ffffff" x="723.379494" y="357.829629" transform="rotate(-0 723.379494 357.829629)">2,551 (24.9%)</text>
   </g>
   <g id="text_44">
    <g id="patch_96">
     <path d="M 700.346291 343.317253 
L 746.412697 343.317253 
Q 758.412697 343.317253 758.412697 331.317253 
L 758.412697 336.775847 
Q 758.412697 324.775847 746.412697 324.775847 
L 700.346291 324.775847 
Q 688.346291 324.775847 688.346291 336.775847 
L 688.346291 331.317253 
Q 688.346291 343.317253 700.346291 343.317253 
L 700.346291 343.317253 
z
" style="fill: none; stroke: #002f2a; stroke-width: 1.5; stroke-linejoin: miter"/>
    </g>
    <text style="font-weight: 700; font-size: 15px; font-family: 'Montserrat'; text-anchor: middle" x="723.379494" y="338.156315" transform="rotate(-0 723.379494 338.156315)">  10,260  </text>
   </g>
   <g id="text_45">
    <g id="patch_97">
     <path d="M 712.182228 409.206772 
L 734.57676 409.206772 
Q 746.57676 409.206772 746.57676 397.206772 
L 746.57676 402.665365 
Q 746.57676 390.665365 734.57676 390.665365 
L 712.182228 390.665365 
Q 700.182228 390.665365 700.182228 402.665365 
L 700.182228 397.206772 
Q 700.182228 409.206772 712.182228 409.206772 
L 712.182228 409.206772 
z
" style="fill: none; stroke: #002f2a; stroke-width: 1.5; stroke-linejoin: miter"/>
    </g>
    <text style="font-weight: 700; font-size: 15px; font-family: 'Montserrat'; text-anchor: middle" x="723.379494" y="404.045834" transform="rotate(-0 723.379494 404.045834)">  102  </text>
   </g>
   <g id="text_46">
    <text style="font-weight: 700; font-size: 7px; font-family: 'Montserrat'; text-anchor: middle; fill: #ffffff" x="818.487589" y="368.764517" transform="rotate(-0 818.487589 368.764517)">10,260 (78.2%)</text>
   </g>
   <g id="text_47">
    <text style="font-weight: 700; font-size: 7px; font-family: 'Montserrat'; text-anchor: middle; fill: #ffffff" x="818.487589" y="350.145844" transform="rotate(-0 818.487589 350.145844)">2,866 (21.8%)</text>
   </g>
   <g id="text_48">
    <g id="patch_98">
     <path d="M 798.259855 335.186655 
L 838.715324 335.186655 
Q 850.715324 335.186655 850.715324 323.186655 
L 850.715324 328.645249 
Q 850.715324 316.645249 838.715324 316.645249 
L 798.259855 316.645249 
Q 786.259855 316.645249 786.259855 328.645249 
L 786.259855 323.186655 
Q 786.259855 335.186655 798.259855 335.186655 
L 798.259855 335.186655 
z
" style="fill: none; stroke: #002f2a; stroke-width: 1.5; stroke-linejoin: miter"/>
    </g>
    <text style="font-weight: 700; font-size: 15px; font-family: 'Montserrat'; text-anchor: middle" x="818.487589" y="330.025717" transform="rotate(-0 818.487589 330.025717)">  13,126  </text>
   </g>
   <g id="text_49">
    <g id="patch_99">
     <path d="M 807.718058 409.408193 
L 829.257121 409.408193 
Q 841.257121 409.408193 841.257121 397.408193 
L 841.257121 402.866786 
Q 841.257121 390.866786 829.257121 390.866786 
L 807.718058 390.866786 
Q 795.718058 390.866786 795.718058 402.866786 
L 795.718058 397.408193 
Q 795.718058 409.408193 807.718058 409.408193 
L 807.718058 409.408193 
z
" style="fill: none; stroke: #002f2a; stroke-width: 1.5; stroke-linejoin: miter"/>
    </g>
    <text style="font-weight: 700; font-size: 15px; font-family: 'Montserrat'; text-anchor: middle" x="818.487589" y="404.247255" transform="rotate(-0 818.487589 404.247255)">  173  </text>
   </g>
   <g id="text_50">
    <text style="font-weight: 700; font-size: 7px; font-family: 'Montserrat'; text-anchor: middle; fill: #ffffff" x="913.595685" y="364.699218" transform="rotate(-0 913.595685 364.699218)">13,126 (82.0%)</text>
   </g>
   <g id="text_51">
    <text style="font-weight: 700; font-size: 7px; font-family: 'Montserrat'; text-anchor: middle; fill: #ffffff" x="913.595685" y="341.988296" transform="rotate(-0 913.595685 341.988296)">2,885 (18.0%)</text>
   </g>
   <g id="text_52">
    <g id="patch_100">
     <path d="M 894.199981 327.002155 
L 932.991388 327.002155 
Q 944.991388 327.002155 944.991388 315.002155 
L 944.991388 320.460749 
Q 944.991388 308.460749 932.991388 308.460749 
L 894.199981 308.460749 
Q 882.199981 308.460749 882.199981 320.460749 
L 882.199981 315.002155 
Q 882.199981 327.002155 894.199981 327.002155 
L 894.199981 327.002155 
z
" style="fill: none; stroke: #002f2a; stroke-width: 1.5; stroke-linejoin: miter"/>
    </g>
    <text style="font-weight: 700; font-size: 15px; font-family: 'Montserrat'; text-anchor: middle" x="913.595685" y="321.841218" transform="rotate(-0 913.595685 321.841218)">  16,011  </text>
   </g>
   <g id="text_53">
    <g id="patch_101">
     <path d="M 901.056622 409.717416 
L 926.134747 409.717416 
Q 938.134747 409.717416 938.134747 397.717416 
L 938.134747 403.17601 
Q 938.134747 391.17601 926.134747 391.17601 
L 901.056622 391.17601 
Q 889.056622 391.17601 889.056622 403.17601 
L 889.056622 397.717416 
Q 889.056622 409.717416 901.056622 409.717416 
L 901.056622 409.717416 
z
" style="fill: none; stroke: #002f2a; stroke-width: 1.5; stroke-linejoin: miter"/>
    </g>
    <text style="font-weight: 700; font-size: 15px; font-family: 'Montserrat'; text-anchor: middle" x="913.595685" y="404.556479" transform="rotate(-0 913.595685 404.556479)">  282  </text>
   </g>
   <g id="text_54">
    <text style="font-weight: 700; font-size: 7px; font-family: 'Montserrat'; text-anchor: middle; fill: #ffffff" x="1008.70378" y="360.606968" transform="rotate(-0 1008.70378 360.606968)">16,011 (85.0%)</text>
   </g>
   <g id="text_55">
    <text style="font-weight: 700; font-size: 7px; font-family: 'Montserrat'; text-anchor: middle; fill: #ffffff" x="1008.70378" y="333.886067" transform="rotate(-0 1008.70378 333.886067)">2,827 (15.0%)</text>
   </g>
   <g id="text_56">
    <g id="patch_102">
     <path d="M 985.769014 318.982197 
L 1031.638545 318.982197 
Q 1043.638545 318.982197 1043.638545 306.982197 
L 1043.638545 312.44079 
Q 1043.638545 300.44079 1031.638545 300.44079 
L 985.769014 300.44079 
Q 973.769014 300.44079 973.769014 312.44079 
L 973.769014 306.982197 
Q 973.769014 318.982197 985.769014 318.982197 
L 985.769014 318.982197 
z
" style="fill: none; stroke: #002f2a; stroke-width: 1.5; stroke-linejoin: miter"/>
    </g>
    <text style="font-weight: 700; font-size: 15px; font-family: 'Montserrat'; text-anchor: middle" x="1008.70378" y="313.821259" transform="rotate(-0 1008.70378 313.821259)">  18,838  </text>
   </g>
   <g id="text_57">
    <g id="patch_103">
     <path d="M 996.906514 410.281962 
L 1020.501045 410.281962 
Q 1032.501045 410.281962 1032.501045 398.281962 
L 1032.501045 403.740556 
Q 1032.501045 391.740556 1020.501045 391.740556 
L 996.906514 391.740556 
Q 984.906514 391.740556 984.906514 403.740556 
L 984.906514 398.281962 
Q 984.906514 410.281962 996.906514 410.281962 
L 996.906514 410.281962 
z
" style="fill: none; stroke: #002f2a; stroke-width: 1.5; stroke-linejoin: miter"/>
    </g>
    <text style="font-weight: 700; font-size: 15px; font-family: 'Montserrat'; text-anchor: middle" x="1008.70378" y="405.121025" transform="rotate(-0 1008.70378 405.121025)">  481  </text>
   </g>
   <g id="text_58">
    <text style="font-weight: 700; font-size: 7px; font-family: 'Montserrat'; text-anchor: middle; fill: #ffffff" x="1103.811875" y="356.596989" transform="rotate(-0 1103.811875 356.596989)">18,838 (83.5%)</text>
   </g>
   <g id="text_59">
    <text style="font-weight: 700; font-size: 7px; font-family: 'Montserrat'; text-anchor: middle; fill: #ffffff" x="1103.811875" y="324.603681" transform="rotate(-0 1103.811875 324.603681)">3,717 (16.5%)</text>
   </g>
   <g id="text_60">
    <g id="patch_104">
     <path d="M 1080.870078 308.437384 
L 1126.753672 308.437384 
Q 1138.753672 308.437384 1138.753672 296.437384 
L 1138.753672 301.895978 
Q 1138.753672 289.895978 1126.753672 289.895978 
L 1080.870078 289.895978 
Q 1068.870078 289.895978 1068.870078 301.895978 
L 1068.870078 296.437384 
Q 1068.870078 308.437384 1080.870078 308.437384 
L 1080.870078 308.437384 
z
" style="fill: none; stroke: #002f2a; stroke-width: 1.5; stroke-linejoin: miter"/>
    </g>
    <text style="font-weight: 700; font-size: 15px; font-family: 'Montserrat'; text-anchor: middle" x="1103.811875" y="303.276446" transform="rotate(-0 1103.811875 303.276446)">  22,555  </text>
   </g>
   <g id="text_61">
    <g id="patch_105">
     <path d="M 1090.739609 410.815302 
L 1116.884141 410.815302 
Q 1128.884141 410.815302 1128.884141 398.815302 
L 1128.884141 404.273896 
Q 1128.884141 392.273896 1116.884141 392.273896 
L 1090.739609 392.273896 
Q 1078.739609 392.273896 1078.739609 404.273896 
L 1078.739609 398.815302 
Q 1078.739609 410.815302 1090.739609 410.815302 
L 1090.739609 410.815302 
z
" style="fill: none; stroke: #002f2a; stroke-width: 1.5; stroke-linejoin: miter"/>
    </g>
    <text style="font-weight: 700; font-size: 15px; font-family: 'Montserrat'; text-anchor: middle" x="1103.811875" y="405.654365" transform="rotate(-0 1103.811875 405.654365)">  669  </text>
   </g>
   <g id="text_62">
    <text style="font-weight: 700; font-size: 7px; font-family: 'Montserrat'; text-anchor: middle; fill: #ffffff" x="1198.91997" y="351.324583" transform="rotate(-0 1198.91997 351.324583)">22,555 (81.6%)</text>
   </g>
   <g id="text_63">
    <text style="font-weight: 700; font-size: 7px; font-family: 'Montserrat'; text-anchor: middle; fill: #ffffff" x="1198.91997" y="312.09856" transform="rotate(-0 1198.91997 312.09856)">5,099 (18.4%)</text>
   </g>
   <g id="text_64">
    <g id="patch_106">
     <path d="M 1174.73247 293.971955 
L 1223.10747 293.971955 
Q 1235.10747 293.971955 1235.10747 281.971955 
L 1235.10747 287.430549 
Q 1235.10747 275.430549 1223.10747 275.430549 
L 1174.73247 275.430549 
Q 1162.73247 275.430549 1162.73247 287.430549 
L 1162.73247 281.971955 
Q 1162.73247 293.971955 1174.73247 293.971955 
L 1174.73247 293.971955 
z
" style="fill: none; stroke: #002f2a; stroke-width: 1.5; stroke-linejoin: miter"/>
    </g>
    <text style="font-weight: 700; font-size: 15px; font-family: 'Montserrat'; text-anchor: middle" x="1198.91997" y="288.811017" transform="rotate(-0 1198.91997 288.811017)">  27,654  </text>
   </g>
   <g id="text_65">
    <g id="patch_107">
     <path d="M 1185.772705 411.623823 
L 1212.067236 411.623823 
Q 1224.067236 411.623823 1224.067236 399.623823 
L 1224.067236 405.082417 
Q 1224.067236 393.082417 1212.067236 393.082417 
L 1185.772705 393.082417 
Q 1173.772705 393.082417 1173.772705 405.082417 
L 1173.772705 399.623823 
Q 1173.772705 411.623823 1185.772705 411.623823 
L 1185.772705 411.623823 
z
" style="fill: none; stroke: #002f2a; stroke-width: 1.5; stroke-linejoin: miter"/>
    </g>
    <text style="font-weight: 700; font-size: 15px; font-family: 'Montserrat'; text-anchor: middle" x="1198.91997" y="406.462886" transform="rotate(-0 1198.91997 406.462886)">  954  </text>
   </g>
   <g id="text_66">
    <text style="font-weight: 700; font-size: 7px; font-family: 'Montserrat'; text-anchor: middle; fill: #ffffff" x="1294.028065" y="344.091868" transform="rotate(-0 1294.028065 344.091868)">27,654 (87.4%)</text>
   </g>
   <g id="text_67">
    <text style="font-weight: 700; font-size: 7px; font-family: 'Montserrat'; text-anchor: middle; fill: #ffffff" x="1294.028065" y="299.220385" transform="rotate(-0 1294.028065 299.220385)">3,980 (12.6%)</text>
   </g>
   <g id="text_68">
    <g id="patch_108">
     <path d="M 1271.557362 282.681033 
L 1316.498769 282.681033 
Q 1328.498769 282.681033 1328.498769 270.681033 
L 1328.498769 276.139627 
Q 1328.498769 264.139627 1316.498769 264.139627 
L 1271.557362 264.139627 
Q 1259.557362 264.139627 1259.557362 276.139627 
L 1259.557362 270.681033 
Q 1259.557362 282.681033 1271.557362 282.681033 
L 1271.557362 282.681033 
z
" style="fill: none; stroke: #002f2a; stroke-width: 1.5; stroke-linejoin: miter"/>
    </g>
    <text style="font-weight: 700; font-size: 15px; font-family: 'Montserrat'; text-anchor: middle" x="1294.028065" y="277.520096" transform="rotate(-0 1294.028065 277.520096)">  31,634  </text>
   </g>
   <g id="text_69">
    <g id="patch_109">
     <path d="M 1276.312831 412.758589 
L 1311.7433 412.758589 
Q 1323.7433 412.758589 1323.7433 400.758589 
L 1323.7433 406.217183 
Q 1323.7433 394.217183 1311.7433 394.217183 
L 1276.312831 394.217183 
Q 1264.312831 394.217183 1264.312831 406.217183 
L 1264.312831 400.758589 
Q 1264.312831 412.758589 1276.312831 412.758589 
L 1276.312831 412.758589 
z
" style="fill: none; stroke: #002f2a; stroke-width: 1.5; stroke-linejoin: miter"/>
    </g>
    <text style="font-weight: 700; font-size: 15px; font-family: 'Montserrat'; text-anchor: middle" x="1294.028065" y="407.597652" transform="rotate(-0 1294.028065 407.597652)">  1,354  </text>
   </g>
   <g id="text_70">
    <text style="font-weight: 700; font-size: 7px; font-family: 'Montserrat'; text-anchor: middle; fill: #ffffff" x="1389.136161" y="338.446407" transform="rotate(-0 1389.136161 338.446407)">31,634 (86.5%)</text>
   </g>
   <g id="text_71">
    <text style="font-weight: 700; font-size: 7px; font-family: 'Montserrat'; text-anchor: middle; fill: #ffffff" x="1389.136161" y="286.577673" transform="rotate(-0 1389.136161 286.577673)">4,933 (13.5%)</text>
   </g>
   <g id="text_72">
    <g id="patch_110">
     <path d="M 1365.323661 268.686532 
L 1412.948661 268.686532 
Q 1424.948661 268.686532 1424.948661 256.686532 
L 1424.948661 262.145126 
Q 1424.948661 250.145126 1412.948661 250.145126 
L 1365.323661 250.145126 
Q 1353.323661 250.145126 1353.323661 262.145126 
L 1353.323661 256.686532 
Q 1353.323661 268.686532 1365.323661 268.686532 
L 1365.323661 268.686532 
z
" style="fill: none; stroke: #002f2a; stroke-width: 1.5; stroke-linejoin: miter"/>
    </g>
    <text style="font-weight: 700; font-size: 15px; font-family: 'Montserrat'; text-anchor: middle" x="1389.136161" y="263.525595" transform="rotate(-0 1389.136161 263.525595)">  36,567  </text>
   </g>
   <g id="text_73">
    <g id="patch_111">
     <path d="M 1371.811161 414.406837 
L 1406.461161 414.406837 
Q 1418.461161 414.406837 1418.461161 402.406837 
L 1418.461161 407.86543 
Q 1418.461161 395.86543 1406.461161 395.86543 
L 1371.811161 395.86543 
Q 1359.811161 395.86543 1359.811161 407.86543 
L 1359.811161 402.406837 
Q 1359.811161 414.406837 1371.811161 414.406837 
L 1371.811161 414.406837 
z
" style="fill: none; stroke: #002f2a; stroke-width: 1.5; stroke-linejoin: miter"/>
    </g>
    <text style="font-weight: 700; font-size: 15px; font-family: 'Montserrat'; text-anchor: middle" x="1389.136161" y="409.245899" transform="rotate(-0 1389.136161 409.245899)">  1,935  </text>
   </g>
   <g id="text_74">
    <text style="font-weight: 700; font-size: 7px; font-family: 'Montserrat'; text-anchor: middle; fill: #ffffff" x="1484.244256" y="331.449157" transform="rotate(-0 1484.244256 331.449157)">36,567 (81.5%)</text>
   </g>
   <g id="text_75">
    <text style="font-weight: 700; font-size: 7px; font-family: 'Montserrat'; text-anchor: middle; fill: #ffffff" x="1484.244256" y="267.825666" transform="rotate(-0 1484.244256 267.825666)">8,287 (18.5%)</text>
   </g>
   <g id="text_76">
    <text style="font-weight: 700; font-size: 7px; font-family: 'Montserrat'; text-anchor: middle; fill: #ffffff" x="1484.244256" y="386.062606" transform="rotate(-0 1484.244256 386.062606)">1,935 (47.3%)</text>
   </g>
   <g id="text_77">
    <text style="font-weight: 700; font-size: 7px; font-family: 'Montserrat'; text-anchor: middle; fill: #ffffff" x="1484.244256" y="391.865515" transform="rotate(-0 1484.244256 391.865515)">2,156 (52.7%)</text>
   </g>
   <g id="text_78">
    <g id="patch_112">
     <path d="M 1458.623553 245.177018 
L 1509.864959 245.177018 
Q 1521.864959 245.177018 1521.864959 233.177018 
L 1521.864959 238.635612 
Q 1521.864959 226.635612 1509.864959 226.635612 
L 1458.623553 226.635612 
Q 1446.623553 226.635612 1446.623553 238.635612 
L 1446.623553 233.177018 
Q 1446.623553 245.177018 1458.623553 245.177018 
L 1458.623553 245.177018 
z
" style="fill: none; stroke: #002f2a; stroke-width: 1.5; stroke-linejoin: miter"/>
    </g>
    <text style="font-weight: 700; font-size: 15px; font-family: 'Montserrat'; text-anchor: middle" x="1484.244256" y="240.016081" transform="rotate(-0 1484.244256 240.016081)">  44,854  </text>
   </g>
   <g id="text_79">
    <g id="patch_113">
     <path d="M 1465.561053 420.523225 
L 1502.927459 420.523225 
Q 1514.927459 420.523225 1514.927459 408.523225 
L 1514.927459 413.981819 
Q 1514.927459 401.981819 1502.927459 401.981819 
L 1465.561053 401.981819 
Q 1453.561053 401.981819 1453.561053 413.981819 
L 1453.561053 408.523225 
Q 1453.561053 420.523225 1465.561053 420.523225 
L 1465.561053 420.523225 
z
" style="fill: none; stroke: #002f2a; stroke-width: 1.5; stroke-linejoin: miter"/>
    </g>
    <text style="font-weight: 700; font-size: 15px; font-family: 'Montserrat'; text-anchor: middle" x="1484.244256" y="415.362288" transform="rotate(-0 1484.244256 415.362288)">  4,091  </text>
   </g>
   <g id="text_80">
    <text style="font-weight: 700; font-size: 7px; font-family: 'Montserrat'; text-anchor: middle; fill: #ffffff" x="1579.352351" y="319.6944" transform="rotate(-0 1579.352351 319.6944)">44,854 (81.6%)</text>
   </g>
   <g id="text_81">
    <text style="font-weight: 700; font-size: 7px; font-family: 'Montserrat'; text-anchor: middle; fill: #ffffff" x="1579.352351" y="241.701935" transform="rotate(-0 1579.352351 241.701935)">10,130 (18.4%)</text>
   </g>
   <g id="text_82">
    <text style="font-weight: 700; font-size: 7px; font-family: 'Montserrat'; text-anchor: middle; fill: #ffffff" x="1579.352351" y="389.1208" transform="rotate(-0 1579.352351 389.1208)">4,091 (57.7%)</text>
   </g>
   <g id="text_83">
    <text style="font-weight: 700; font-size: 7px; font-family: 'Montserrat'; text-anchor: middle; fill: #ffffff" x="1579.352351" y="399.184756" transform="rotate(-0 1579.352351 399.184756)">3,004 (42.3%)</text>
   </g>
   <g id="text_84">
    <g id="patch_114">
     <path d="M 1554.121882 216.43907 
L 1604.58282 216.43907 
Q 1616.58282 216.43907 1616.58282 204.43907 
L 1616.58282 209.897664 
Q 1616.58282 197.897664 1604.58282 197.897664 
L 1554.121882 197.897664 
Q 1542.121882 197.897664 1542.121882 209.897664 
L 1542.121882 204.43907 
Q 1542.121882 216.43907 1554.121882 216.43907 
L 1554.121882 216.43907 
z
" style="fill: none; stroke: #002f2a; stroke-width: 1.5; stroke-linejoin: miter"/>
    </g>
    <text style="font-weight: 700; font-size: 15px; font-family: 'Montserrat'; text-anchor: middle" x="1579.352351" y="211.278133" transform="rotate(-0 1579.352351 211.278133)">  54,984  </text>
   </g>
   <g id="text_85">
    <g id="patch_115">
     <path d="M 1559.664851 429.045318 
L 1599.039851 429.045318 
Q 1611.039851 429.045318 1611.039851 417.045318 
L 1611.039851 422.503911 
Q 1611.039851 410.503911 1599.039851 410.503911 
L 1559.664851 410.503911 
Q 1547.664851 410.503911 1547.664851 422.503911 
L 1547.664851 417.045318 
Q 1547.664851 429.045318 1559.664851 429.045318 
L 1559.664851 429.045318 
z
" style="fill: none; stroke: #002f2a; stroke-width: 1.5; stroke-linejoin: miter"/>
    </g>
    <text style="font-weight: 700; font-size: 15px; font-family: 'Montserrat'; text-anchor: middle" x="1579.352351" y="423.88438" transform="rotate(-0 1579.352351 423.88438)">  7,095  </text>
   </g>
   <g id="text_86">
    <text style="font-weight: 700; font-size: 7px; font-family: 'Montserrat'; text-anchor: middle; fill: #ffffff" x="1674.460446" y="305.325426" transform="rotate(-0 1674.460446 305.325426)">54,984 (84.7%)</text>
   </g>
   <g id="text_87">
    <text style="font-weight: 700; font-size: 7px; font-family: 'Montserrat'; text-anchor: middle; fill: #ffffff" x="1674.460446" y="213.215054" transform="rotate(-0 1674.460446 213.215054)">9,953 (15.3%)</text>
   </g>
   <g id="text_88">
    <text style="font-weight: 700; font-size: 7px; font-family: 'Montserrat'; text-anchor: middle; fill: #ffffff" x="1674.460446" y="393.381846" transform="rotate(-0 1674.460446 393.381846)">7,095 (68.5%)</text>
   </g>
   <g id="text_89">
    <text style="font-weight: 700; font-size: 7px; font-family: 'Montserrat'; text-anchor: middle; fill: #ffffff" x="1674.460446" y="408.075647" transform="rotate(-0 1674.460446 408.075647)">3,264 (31.5%)</text>
   </g>
   <g id="text_90">
    <g id="patch_116">
     <path d="M 1649.942478 188.203256 
L 1698.978415 188.203256 
Q 1710.978415 188.203256 1710.978415 176.203256 
L 1710.978415 181.66185 
Q 1710.978415 169.66185 1698.978415 169.66185 
L 1649.942478 169.66185 
Q 1637.942478 169.66185 1637.942478 181.66185 
L 1637.942478 176.203256 
Q 1637.942478 188.203256 1649.942478 188.203256 
L 1649.942478 188.203256 
z
" style="fill: none; stroke: #002f2a; stroke-width: 1.5; stroke-linejoin: miter"/>
    </g>
    <text style="font-weight: 700; font-size: 15px; font-family: 'Montserrat'; text-anchor: middle" x="1674.460446" y="183.042318" transform="rotate(-0 1674.460446 183.042318)">  64,937  </text>
   </g>
   <g id="text_91">
    <g id="patch_117">
     <path d="M 1652.042478 438.305008 
L 1696.878415 438.305008 
Q 1708.878415 438.305008 1708.878415 426.305008 
L 1708.878415 431.763602 
Q 1708.878415 419.763602 1696.878415 419.763602 
L 1652.042478 419.763602 
Q 1640.042478 419.763602 1640.042478 431.763602 
L 1640.042478 426.305008 
Q 1640.042478 438.305008 1652.042478 438.305008 
L 1652.042478 438.305008 
z
" style="fill: none; stroke: #002f2a; stroke-width: 1.5; stroke-linejoin: miter"/>
    </g>
    <text style="font-weight: 700; font-size: 15px; font-family: 'Montserrat'; text-anchor: middle" x="1674.460446" y="433.14407" transform="rotate(-0 1674.460446 433.14407)">  10,359  </text>
   </g>
   <g id="text_92">
    <text style="font-weight: 700; font-size: 7px; font-family: 'Montserrat'; text-anchor: middle; fill: #ffffff" x="1769.568542" y="291.207519" transform="rotate(-0 1769.568542 291.207519)">64,937 (80.7%)</text>
   </g>
   <g id="text_93">
    <text style="font-weight: 700; font-size: 7px; font-family: 'Montserrat'; text-anchor: middle; fill: #ffffff" x="1769.568542" y="177.030204" transform="rotate(-0 1769.568542 177.030204)">15,557 (19.3%)</text>
   </g>
   <g id="text_94">
    <text style="font-weight: 700; font-size: 7px; font-family: 'Montserrat'; text-anchor: middle; fill: #ffffff" x="1769.568542" y="398.011691" transform="rotate(-0 1769.568542 398.011691)">10,359 (54.6%)</text>
   </g>
   <g id="text_95">
    <text style="font-weight: 700; font-size: 7px; font-family: 'Montserrat'; text-anchor: middle; fill: #ffffff" x="1769.568542" y="424.907063" transform="rotate(-0 1769.568542 424.907063)">8,602 (45.4%)</text>
   </g>
   <g id="text_96">
    <g id="patch_118">
     <path d="M 1743.707604 144.06937 
L 1795.429479 144.06937 
Q 1807.429479 144.06937 1807.429479 132.06937 
L 1807.429479 137.527964 
Q 1807.429479 125.527964 1795.429479 125.527964 
L 1743.707604 125.527964 
Q 1731.707604 125.527964 1731.707604 137.527964 
L 1731.707604 132.06937 
Q 1731.707604 144.06937 1743.707604 144.06937 
L 1743.707604 144.06937 
z
" style="fill: none; stroke: #002f2a; stroke-width: 1.5; stroke-linejoin: miter"/>
    </g>
    <text style="font-weight: 700; font-size: 15px; font-family: 'Montserrat'; text-anchor: middle" x="1769.568542" y="138.908433" transform="rotate(-0 1769.568542 138.908433)">  80,494  </text>
   </g>
   <g id="text_97">
    <g id="patch_119">
     <path d="M 1748.478307 462.70815 
L 1790.658776 462.70815 
Q 1802.658776 462.70815 1802.658776 450.70815 
L 1802.658776 456.166744 
Q 1802.658776 444.166744 1790.658776 444.166744 
L 1748.478307 444.166744 
Q 1736.478307 444.166744 1736.478307 456.166744 
L 1736.478307 450.70815 
Q 1736.478307 462.70815 1748.478307 462.70815 
L 1748.478307 462.70815 
z
" style="fill: none; stroke: #002f2a; stroke-width: 1.5; stroke-linejoin: miter"/>
    </g>
    <text style="font-weight: 700; font-size: 15px; font-family: 'Montserrat'; text-anchor: middle" x="1769.568542" y="457.547213" transform="rotate(-0 1769.568542 457.547213)">  18,961  </text>
   </g>
   <g id="text_98">
    <text style="font-weight: 700; font-size: 7px; font-family: 'Montserrat'; text-anchor: middle; fill: #ffffff" x="1864.676637" y="269.140576" transform="rotate(-0 1864.676637 269.140576)">80,494 (77.5%)</text>
   </g>
   <g id="text_99">
    <text style="font-weight: 700; font-size: 7px; font-family: 'Montserrat'; text-anchor: middle; fill: #ffffff" x="1864.676637" y="121.808236" transform="rotate(-0 1864.676637 121.808236)">23,374 (22.5%)</text>
   </g>
   <g id="text_100">
    <text style="font-weight: 700; font-size: 7px; font-family: 'Montserrat'; text-anchor: middle; fill: #ffffff" x="1864.676637" y="410.213263" transform="rotate(-0 1864.676637 410.213263)">18,961 (59.9%)</text>
   </g>
   <g id="text_101">
    <text style="font-weight: 700; font-size: 7px; font-family: 'Montserrat'; text-anchor: middle; fill: #ffffff" x="1864.676637" y="455.081909" transform="rotate(-0 1864.676637 455.081909)">12,671 (40.1%)</text>
   </g>
   <g id="text_102">
    <g id="patch_120">
     <path d="M 1836.821168 77.759321 
L 1892.532106 77.759321 
Q 1904.532106 77.759321 1904.532106 65.759321 
L 1904.532106 71.217915 
Q 1904.532106 59.217915 1892.532106 59.217915 
L 1836.821168 59.217915 
Q 1824.821168 59.217915 1824.821168 71.217915 
L 1824.821168 65.759321 
Q 1824.821168 77.759321 1836.821168 77.759321 
L 1836.821168 77.759321 
z
" style="fill: none; stroke: #002f2a; stroke-width: 1.5; stroke-linejoin: miter"/>
    </g>
    <text style="font-weight: 700; font-size: 15px; font-family: 'Montserrat'; text-anchor: middle" x="1864.676637" y="72.598384" transform="rotate(-0 1864.676637 72.598384)">  103,868  </text>
   </g>
   <g id="text_103">
    <g id="patch_121">
     <path d="M 1842.948903 498.654699 
L 1886.404371 498.654699 
Q 1898.404371 498.654699 1898.404371 486.654699 
L 1898.404371 492.113293 
Q 1898.404371 480.113293 1886.404371 480.113293 
L 1842.948903 480.113293 
Q 1830.948903 480.113293 1830.948903 492.113293 
L 1830.948903 486.654699 
Q 1830.948903 498.654699 1842.948903 498.654699 
L 1842.948903 498.654699 
z
" style="fill: none; stroke: #002f2a; stroke-width: 1.5; stroke-linejoin: miter"/>
    </g>
    <text style="font-weight: 700; font-size: 15px; font-family: 'Montserrat'; text-anchor: middle" x="1864.676637" y="493.493761" transform="rotate(-0 1864.676637 493.493761)">  31,632  </text>
   </g>
   <g id="text_104">
    <text style="font-weight: 700; font-size: 7px; font-family: 'Montserrat'; text-anchor: middle; fill: #ffffff" x="1959.784732" y="235.985551" transform="rotate(-0 1959.784732 235.985551)">103,868 (90.6%)</text>
   </g>
   <g id="text_105">
    <text style="font-weight: 700; font-size: 7px; font-family: 'Montserrat'; text-anchor: middle; fill: #ffffff" x="1959.784732" y="73.289899" transform="rotate(-0 1959.784732 73.289899)">10,831 (9.4%)</text>
   </g>
   <g id="text_106">
    <text style="font-weight: 700; font-size: 7px; font-family: 'Montserrat'; text-anchor: middle; fill: #ffffff" x="1959.784732" y="428.186537" transform="rotate(-0 1959.784732 428.186537)">31,632 (83.7%)</text>
   </g>
   <g id="text_107">
    <text style="font-weight: 700; font-size: 7px; font-family: 'Montserrat'; text-anchor: middle; fill: #ffffff" x="1959.784732" y="481.795718" transform="rotate(-0 1959.784732 481.795718)">6,162 (16.3%)</text>
   </g>
   <g id="text_108">
    <g id="patch_122">
     <path d="M 1933.698795 47.032696 
L 1985.87067 47.032696 
Q 1997.87067 47.032696 1997.87067 35.032696 
L 1997.87067 40.491289 
Q 1997.87067 28.491289 1985.87067 28.491289 
L 1933.698795 28.491289 
Q 1921.698795 28.491289 1921.698795 40.491289 
L 1921.698795 35.032696 
Q 1921.698795 47.032696 1933.698795 47.032696 
L 1933.698795 47.032696 
z
" style="fill: none; stroke: #002f2a; stroke-width: 1.5; stroke-linejoin: miter"/>
    </g>
    <text style="font-weight: 700; font-size: 15px; font-family: 'Montserrat'; text-anchor: middle" x="1959.784732" y="41.871758" transform="rotate(-0 1959.784732 41.871758)">  114,699  </text>
   </g>
   <g id="text_109">
    <g id="patch_123">
     <path d="M 1935.394498 516.135769 
L 1984.174967 516.135769 
Q 1996.174967 516.135769 1996.174967 504.135769 
L 1996.174967 509.594362 
Q 1996.174967 497.594362 1984.174967 497.594362 
L 1935.394498 497.594362 
Q 1923.394498 497.594362 1923.394498 509.594362 
L 1923.394498 504.135769 
Q 1923.394498 516.135769 1935.394498 516.135769 
L 1935.394498 516.135769 
z
" style="fill: none; stroke: #002f2a; stroke-width: 1.5; stroke-linejoin: miter"/>
    </g>
    <text style="font-weight: 700; font-size: 15px; font-family: 'Montserrat'; text-anchor: middle" x="1959.784732" y="510.974831" transform="rotate(-0 1959.784732 510.974831)">  37,794  </text>
   </g>
   <g id="text_110">
    <text style="font-weight: 700; font-size: 7px; font-family: 'Montserrat'; text-anchor: middle; fill: #114a44" x="2054.892827" y="402.796148" transform="rotate(-0 2054.892827 402.796148)">13,732</text>
   </g>
   <g id="text_111">
    <g id="patch_124">
     <path d="M 2033.292827 447.873922 
L 2076.492827 447.873922 
Q 2088.492827 447.873922 2088.492827 435.873922 
L 2088.492827 441.332516 
Q 2088.492827 429.332516 2076.492827 429.332516 
L 2033.292827 429.332516 
Q 2021.292827 429.332516 2021.292827 441.332516 
L 2021.292827 435.873922 
Q 2021.292827 447.873922 2033.292827 447.873922 
L 2033.292827 447.873922 
z
" style="fill: none; stroke: #002f2a; stroke-width: 1.5; stroke-linejoin: miter"/>
    </g>
    <text style="font-weight: 700; font-size: 15px; font-family: 'Montserrat'; text-anchor: middle" x="2054.892827" y="442.712984" transform="rotate(-0 2054.892827 442.712984)">  13,732  </text>
   </g>
  </g>
 </g>
 <defs>
  <clipPath id="p2c3041f9c5">
   <rect x="105.176875" y="7.2" width="1997.27" height="523.88"/>
  </clipPath>
 </defs>
</svg>
