<?xml version="1.0" encoding="utf-8" standalone="no"?>
<!DOCTYPE svg PUBLIC "-//W3C//DTD SVG 1.1//EN"
  "http://www.w3.org/Graphics/SVG/1.1/DTD/svg11.dtd">
<svg xmlns:xlink="http://www.w3.org/1999/xlink" width="1392.823437pt" height="567.569647pt" viewBox="0 0 1392.823437 567.569647" xmlns="http://www.w3.org/2000/svg" version="1.1">
 <metadata>
  <rdf:RDF xmlns:dc="http://purl.org/dc/elements/1.1/" xmlns:cc="http://creativecommons.org/ns#" xmlns:rdf="http://www.w3.org/1999/02/22-rdf-syntax-ns#">
   <cc:Work>
    <dc:type rdf:resource="http://purl.org/dc/dcmitype/StillImage"/>
    <dc:date>2025-07-01T17:02:23.319415</dc:date>
    <dc:format>image/svg+xml</dc:format>
    <dc:creator>
     <cc:Agent>
      <dc:title>Matplotlib v3.10.1, https://matplotlib.org/</dc:title>
     </cc:Agent>
    </dc:creator>
   </cc:Work>
  </rdf:RDF>
 </metadata>
 <defs>
  <style type="text/css">*{stroke-linejoin: round; stroke-linecap: butt}</style>
 </defs>
 <g id="figure_1">
  <g id="patch_1">
   <path d="M 0 567.569647 
L 1392.823437 567.569647 
L 1392.823437 0 
L 0 0 
L 0 567.569647 
z
" style="fill: none; opacity: 0"/>
  </g>
  <g id="axes_1">
   <g id="patch_2">
    <path d="M 86.033438 431.615741 
L 1385.623438 431.615741 
L 1385.623438 35.543306 
L 86.033438 35.543306 
L 86.033438 431.615741 
z
" style="fill: none; opacity: 0"/>
   </g>
   <g id="matplotlib.axis_1">
    <g id="xtick_1">
     <g id="line2d_1">
      <defs>
       <path id="ma064af6a75" d="M 0 0 
L 0 3.5 
" style="stroke: #000000; stroke-width: 0.8"/>
      </defs>
      <g>
       <use xlink:href="#ma064af6a75" x="129.353104" y="431.615741" style="stroke: #000000; stroke-width: 0.8"/>
      </g>
     </g>
     <g id="text_1">
      <text style="font-weight: 500; font-size: 25px; font-family: 'Montserrat'" transform="translate(124.501542 560.369647) rotate(-90)">2007-2011</text>
     </g>
    </g>
    <g id="xtick_2">
     <g id="line2d_2">
      <g>
       <use xlink:href="#ma064af6a75" x="215.992437" y="431.615741" style="stroke: #000000; stroke-width: 0.8"/>
      </g>
     </g>
     <g id="text_2">
      <text style="font-weight: 500; font-size: 25px; font-family: 'Montserrat'" transform="translate(211.140875 493.244647) rotate(-90)">2012</text>
     </g>
    </g>
    <g id="xtick_3">
     <g id="line2d_3">
      <g>
       <use xlink:href="#ma064af6a75" x="302.631771" y="431.615741" style="stroke: #000000; stroke-width: 0.8"/>
      </g>
     </g>
     <g id="text_3">
      <text style="font-weight: 500; font-size: 25px; font-family: 'Montserrat'" transform="translate(297.780208 493.193866) rotate(-90)">2013</text>
     </g>
    </g>
    <g id="xtick_4">
     <g id="line2d_4">
      <g>
       <use xlink:href="#ma064af6a75" x="389.271104" y="431.615741" style="stroke: #000000; stroke-width: 0.8"/>
      </g>
     </g>
     <g id="text_4">
      <text style="font-weight: 500; font-size: 25px; font-family: 'Montserrat'" transform="translate(384.419542 495.619647) rotate(-90)">2014</text>
     </g>
    </g>
    <g id="xtick_5">
     <g id="line2d_5">
      <g>
       <use xlink:href="#ma064af6a75" x="475.910438" y="431.615741" style="stroke: #000000; stroke-width: 0.8"/>
      </g>
     </g>
     <g id="text_5">
      <text style="font-weight: 500; font-size: 25px; font-family: 'Montserrat'" transform="translate(471.058875 493.244647) rotate(-90)">2015</text>
     </g>
    </g>
    <g id="xtick_6">
     <g id="line2d_6">
      <g>
       <use xlink:href="#ma064af6a75" x="562.549771" y="431.615741" style="stroke: #000000; stroke-width: 0.8"/>
      </g>
     </g>
     <g id="text_6">
      <text style="font-weight: 500; font-size: 25px; font-family: 'Montserrat'" transform="translate(557.698208 494.318866) rotate(-90)">2016</text>
     </g>
    </g>
    <g id="xtick_7">
     <g id="line2d_7">
      <g>
       <use xlink:href="#ma064af6a75" x="649.189104" y="431.615741" style="stroke: #000000; stroke-width: 0.8"/>
      </g>
     </g>
     <g id="text_7">
      <text style="font-weight: 500; font-size: 25px; font-family: 'Montserrat'" transform="translate(644.337542 493.842303) rotate(-90)">2017</text>
     </g>
    </g>
    <g id="xtick_8">
     <g id="line2d_8">
      <g>
       <use xlink:href="#ma064af6a75" x="735.828438" y="431.615741" style="stroke: #000000; stroke-width: 0.8"/>
      </g>
     </g>
     <g id="text_8">
      <text style="font-weight: 500; font-size: 25px; font-family: 'Montserrat'" transform="translate(730.976875 494.994647) rotate(-90)">2018</text>
     </g>
    </g>
    <g id="xtick_9">
     <g id="line2d_9">
      <g>
       <use xlink:href="#ma064af6a75" x="822.467771" y="431.615741" style="stroke: #000000; stroke-width: 0.8"/>
      </g>
     </g>
     <g id="text_9">
      <text style="font-weight: 500; font-size: 25px; font-family: 'Montserrat'" transform="translate(817.616208 494.318866) rotate(-90)">2019</text>
     </g>
    </g>
    <g id="xtick_10">
     <g id="line2d_10">
      <g>
       <use xlink:href="#ma064af6a75" x="909.107104" y="431.615741" style="stroke: #000000; stroke-width: 0.8"/>
      </g>
     </g>
     <g id="text_10">
      <text style="font-weight: 500; font-size: 25px; font-family: 'Montserrat'" transform="translate(904.255542 500.670428) rotate(-90)">2020</text>
     </g>
    </g>
    <g id="xtick_11">
     <g id="line2d_11">
      <g>
       <use xlink:href="#ma064af6a75" x="995.746438" y="431.615741" style="stroke: #000000; stroke-width: 0.8"/>
      </g>
     </g>
     <g id="text_11">
      <text style="font-weight: 500; font-size: 25px; font-family: 'Montserrat'" transform="translate(990.894875 493.244647) rotate(-90)">2021</text>
     </g>
    </g>
    <g id="xtick_12">
     <g id="line2d_12">
      <g>
       <use xlink:href="#ma064af6a75" x="1082.385771" y="431.615741" style="stroke: #000000; stroke-width: 0.8"/>
      </g>
     </g>
     <g id="text_12">
      <text style="font-weight: 500; font-size: 25px; font-family: 'Montserrat'" transform="translate(1077.534208 498.346209) rotate(-90)">2022</text>
     </g>
    </g>
    <g id="xtick_13">
     <g id="line2d_13">
      <g>
       <use xlink:href="#ma064af6a75" x="1169.025104" y="431.615741" style="stroke: #000000; stroke-width: 0.8"/>
      </g>
     </g>
     <g id="text_13">
      <text style="font-weight: 500; font-size: 25px; font-family: 'Montserrat'" transform="translate(1164.173542 498.295428) rotate(-90)">2023</text>
     </g>
    </g>
    <g id="xtick_14">
     <g id="line2d_14">
      <g>
       <use xlink:href="#ma064af6a75" x="1255.664438" y="431.615741" style="stroke: #000000; stroke-width: 0.8"/>
      </g>
     </g>
     <g id="text_14">
      <text style="font-weight: 500; font-size: 25px; font-family: 'Montserrat'" transform="translate(1250.812875 500.721209) rotate(-90)">2024</text>
     </g>
    </g>
    <g id="xtick_15">
     <g id="line2d_15">
      <g>
       <use xlink:href="#ma064af6a75" x="1342.303771" y="431.615741" style="stroke: #000000; stroke-width: 0.8"/>
      </g>
     </g>
     <g id="text_15">
      <text style="font-weight: 500; font-size: 25px; font-family: 'Montserrat'" transform="translate(1337.452208 498.346209) rotate(-90)">2025</text>
     </g>
    </g>
   </g>
   <g id="matplotlib.axis_2">
    <g id="ytick_1">
     <g id="line2d_16">
      <path d="M 86.033438 431.615741 
L 1385.623438 431.615741 
" clip-path="url(#p604bb57f0a)" style="fill: none; stroke: #b9b9b9; stroke-width: 0.75; stroke-linecap: square"/>
     </g>
     <g id="line2d_17">
      <defs>
       <path id="mc0bc9a6a4f" d="M 0 0 
L -3.5 0 
" style="stroke: #000000; stroke-width: 0.8"/>
      </defs>
      <g>
       <use xlink:href="#mc0bc9a6a4f" x="86.033438" y="431.615741" style="stroke: #000000; stroke-width: 0.8"/>
      </g>
     </g>
     <g id="text_16">
      <text style="font-weight: 500; font-size: 22px; font-family: 'Montserrat'; text-anchor: end" x="79.033438" y="439.778084" transform="rotate(-0 79.033438 439.778084)">0</text>
     </g>
    </g>
    <g id="ytick_2">
     <g id="line2d_18">
      <path d="M 86.033438 354.883912 
L 1385.623438 354.883912 
" clip-path="url(#p604bb57f0a)" style="fill: none; stroke: #b9b9b9; stroke-width: 0.75; stroke-linecap: square"/>
     </g>
     <g id="line2d_19">
      <g>
       <use xlink:href="#mc0bc9a6a4f" x="86.033438" y="354.883912" style="stroke: #000000; stroke-width: 0.8"/>
      </g>
     </g>
     <g id="text_17">
      <text style="font-weight: 500; font-size: 22px; font-family: 'Montserrat'; text-anchor: end" x="79.033438" y="363.046256" transform="rotate(-0 79.033438 363.046256)">2,000</text>
     </g>
    </g>
    <g id="ytick_3">
     <g id="line2d_20">
      <path d="M 86.033438 278.152083 
L 1385.623438 278.152083 
" clip-path="url(#p604bb57f0a)" style="fill: none; stroke: #b9b9b9; stroke-width: 0.75; stroke-linecap: square"/>
     </g>
     <g id="line2d_21">
      <g>
       <use xlink:href="#mc0bc9a6a4f" x="86.033438" y="278.152083" style="stroke: #000000; stroke-width: 0.8"/>
      </g>
     </g>
     <g id="text_18">
      <text style="font-weight: 500; font-size: 22px; font-family: 'Montserrat'; text-anchor: end" x="79.033438" y="286.314427" transform="rotate(-0 79.033438 286.314427)">4,000</text>
     </g>
    </g>
    <g id="ytick_4">
     <g id="line2d_22">
      <path d="M 86.033438 201.420255 
L 1385.623438 201.420255 
" clip-path="url(#p604bb57f0a)" style="fill: none; stroke: #b9b9b9; stroke-width: 0.75; stroke-linecap: square"/>
     </g>
     <g id="line2d_23">
      <g>
       <use xlink:href="#mc0bc9a6a4f" x="86.033438" y="201.420255" style="stroke: #000000; stroke-width: 0.8"/>
      </g>
     </g>
     <g id="text_19">
      <text style="font-weight: 500; font-size: 22px; font-family: 'Montserrat'; text-anchor: end" x="79.033438" y="209.582598" transform="rotate(-0 79.033438 209.582598)">6,000</text>
     </g>
    </g>
    <g id="ytick_5">
     <g id="line2d_24">
      <path d="M 86.033438 124.688426 
L 1385.623438 124.688426 
" clip-path="url(#p604bb57f0a)" style="fill: none; stroke: #b9b9b9; stroke-width: 0.75; stroke-linecap: square"/>
     </g>
     <g id="line2d_25">
      <g>
       <use xlink:href="#mc0bc9a6a4f" x="86.033438" y="124.688426" style="stroke: #000000; stroke-width: 0.8"/>
      </g>
     </g>
     <g id="text_20">
      <text style="font-weight: 500; font-size: 22px; font-family: 'Montserrat'; text-anchor: end" x="79.033438" y="132.85077" transform="rotate(-0 79.033438 132.85077)">8,000</text>
     </g>
    </g>
    <g id="ytick_6">
     <g id="line2d_26">
      <path d="M 86.033438 47.956597 
L 1385.623438 47.956597 
" clip-path="url(#p604bb57f0a)" style="fill: none; stroke: #b9b9b9; stroke-width: 0.75; stroke-linecap: square"/>
     </g>
     <g id="line2d_27">
      <g>
       <use xlink:href="#mc0bc9a6a4f" x="86.033438" y="47.956597" style="stroke: #000000; stroke-width: 0.8"/>
      </g>
     </g>
     <g id="text_21">
      <text style="font-weight: 500; font-size: 22px; font-family: 'Montserrat'; text-anchor: end" x="79.033438" y="56.118941" transform="rotate(-0 79.033438 56.118941)">10,000</text>
     </g>
    </g>
   </g>
   <g id="patch_3">
    <path d="M 94.697371 431.615741 
L 164.008838 431.615741 
L 164.008838 335.432393 
L 94.697371 335.432393 
z
" clip-path="url(#p604bb57f0a)" style="fill: #10302c"/>
   </g>
   <g id="patch_4">
    <path d="M 94.697371 335.432393 
L 164.008838 335.432393 
L 164.008838 199.578691 
L 94.697371 199.578691 
z
" clip-path="url(#p604bb57f0a)" style="fill: #4c6a67"/>
   </g>
   <g id="patch_5">
    <path d="M 181.336704 431.615741 
L 250.648171 431.615741 
L 250.648171 405.526919 
L 181.336704 405.526919 
z
" clip-path="url(#p604bb57f0a)" style="fill: #10302c"/>
   </g>
   <g id="patch_6">
    <path d="M 181.336704 405.526919 
L 250.648171 405.526919 
L 250.648171 351.124052 
L 181.336704 351.124052 
z
" clip-path="url(#p604bb57f0a)" style="fill: #4c6a67"/>
   </g>
   <g id="patch_7">
    <path d="M 267.976038 431.615741 
L 337.287504 431.615741 
L 337.287504 398.505957 
L 267.976038 398.505957 
z
" clip-path="url(#p604bb57f0a)" style="fill: #10302c"/>
   </g>
   <g id="patch_8">
    <path d="M 267.976038 398.505957 
L 337.287504 398.505957 
L 337.287504 343.412504 
L 267.976038 343.412504 
z
" clip-path="url(#p604bb57f0a)" style="fill: #4c6a67"/>
   </g>
   <g id="patch_9">
    <path d="M 354.615371 431.615741 
L 423.926838 431.615741 
L 423.926838 398.275761 
L 354.615371 398.275761 
z
" clip-path="url(#p604bb57f0a)" style="fill: #10302c"/>
   </g>
   <g id="patch_10">
    <path d="M 354.615371 398.275761 
L 423.926838 398.275761 
L 423.926838 346.289947 
L 354.615371 346.289947 
z
" clip-path="url(#p604bb57f0a)" style="fill: #4c6a67"/>
   </g>
   <g id="patch_11">
    <path d="M 441.254704 431.615741 
L 510.566171 431.615741 
L 510.566171 401.345034 
L 441.254704 401.345034 
z
" clip-path="url(#p604bb57f0a)" style="fill: #10302c"/>
   </g>
   <g id="patch_12">
    <path d="M 441.254704 401.345034 
L 510.566171 401.345034 
L 510.566171 352.581957 
L 441.254704 352.581957 
z
" clip-path="url(#p604bb57f0a)" style="fill: #4c6a67"/>
   </g>
   <g id="patch_13">
    <path d="M 527.894037 431.615741 
L 597.205504 431.615741 
L 597.205504 394.400804 
L 527.894037 394.400804 
z
" clip-path="url(#p604bb57f0a)" style="fill: #10302c"/>
   </g>
   <g id="patch_14">
    <path d="M 527.894037 394.400804 
L 597.205504 394.400804 
L 597.205504 338.501667 
L 527.894037 338.501667 
z
" clip-path="url(#p604bb57f0a)" style="fill: #4c6a67"/>
   </g>
   <g id="patch_15">
    <path d="M 614.533371 431.615741 
L 683.844838 431.615741 
L 683.844838 390.564212 
L 614.533371 390.564212 
z
" clip-path="url(#p604bb57f0a)" style="fill: #10302c"/>
   </g>
   <g id="patch_16">
    <path d="M 614.533371 390.564212 
L 683.844838 390.564212 
L 683.844838 316.940023 
L 614.533371 316.940023 
z
" clip-path="url(#p604bb57f0a)" style="fill: #4c6a67"/>
   </g>
   <g id="patch_17">
    <path d="M 701.172704 431.615741 
L 770.484171 431.615741 
L 770.484171 407.521946 
L 701.172704 407.521946 
z
" clip-path="url(#p604bb57f0a)" style="fill: #10302c"/>
   </g>
   <g id="patch_18">
    <path d="M 701.172704 407.521946 
L 770.484171 407.521946 
L 770.484171 338.578398 
L 701.172704 338.578398 
z
" clip-path="url(#p604bb57f0a)" style="fill: #4c6a67"/>
   </g>
   <g id="patch_19">
    <path d="M 787.812037 431.615741 
L 857.123504 431.615741 
L 857.123504 405.335089 
L 787.812037 405.335089 
z
" clip-path="url(#p604bb57f0a)" style="fill: #10302c"/>
   </g>
   <g id="patch_20">
    <path d="M 787.812037 405.335089 
L 857.123504 405.335089 
L 857.123504 318.091 
L 787.812037 318.091 
z
" clip-path="url(#p604bb57f0a)" style="fill: #4c6a67"/>
   </g>
   <g id="patch_21">
    <path d="M 874.451371 431.615741 
L 943.762838 431.615741 
L 943.762838 386.037034 
L 874.451371 386.037034 
z
" clip-path="url(#p604bb57f0a)" style="fill: #10302c"/>
   </g>
   <g id="patch_22">
    <path d="M 874.451371 386.037034 
L 943.762838 386.037034 
L 943.762838 284.559191 
L 874.451371 284.559191 
z
" clip-path="url(#p604bb57f0a)" style="fill: #4c6a67"/>
   </g>
   <g id="patch_23">
    <path d="M 961.090704 431.615741 
L 1030.402171 431.615741 
L 1030.402171 368.734007 
L 961.090704 368.734007 
z
" clip-path="url(#p604bb57f0a)" style="fill: #10302c"/>
   </g>
   <g id="patch_24">
    <path d="M 961.090704 368.734007 
L 1030.402171 368.734007 
L 1030.402171 249.147452 
L 961.090704 249.147452 
z
" clip-path="url(#p604bb57f0a)" style="fill: #4c6a67"/>
   </g>
   <g id="patch_25">
    <path d="M 1047.730037 431.615741 
L 1117.041504 431.615741 
L 1117.041504 373.759942 
L 1047.730037 373.759942 
z
" clip-path="url(#p604bb57f0a)" style="fill: #10302c"/>
   </g>
   <g id="patch_26">
    <path d="M 1047.730037 373.759942 
L 1117.041504 373.759942 
L 1117.041504 264.263622 
L 1047.730037 264.263622 
z
" clip-path="url(#p604bb57f0a)" style="fill: #4c6a67"/>
   </g>
   <g id="patch_27">
    <path d="M 1134.369371 431.615741 
L 1203.680838 431.615741 
L 1203.680838 345.484263 
L 1134.369371 345.484263 
z
" clip-path="url(#p604bb57f0a)" style="fill: #10302c"/>
   </g>
   <g id="patch_28">
    <path d="M 1134.369371 345.484263 
L 1203.680838 345.484263 
L 1203.680838 197.698761 
L 1134.369371 197.698761 
z
" clip-path="url(#p604bb57f0a)" style="fill: #4c6a67"/>
   </g>
   <g id="patch_29">
    <path d="M 1221.008704 431.615741 
L 1290.320171 431.615741 
L 1290.320171 311.492063 
L 1221.008704 311.492063 
z
" clip-path="url(#p604bb57f0a)" style="fill: #10302c"/>
   </g>
   <g id="patch_30">
    <path d="M 1221.008704 311.492063 
L 1290.320171 311.492063 
L 1290.320171 87.204928 
L 1221.008704 87.204928 
z
" clip-path="url(#p604bb57f0a)" style="fill: #4c6a67"/>
   </g>
   <g id="patch_31">
    <path d="M 1307.648038 431.615741 
L 1376.959504 431.615741 
L 1376.959504 412.93154 
L 1307.648038 412.93154 
z
" clip-path="url(#p604bb57f0a)" style="fill: #10302c"/>
   </g>
   <g id="patch_32">
    <path d="M 1307.648038 412.93154 
L 1376.959504 412.93154 
L 1376.959504 259.659713 
L 1307.648038 259.659713 
z
" clip-path="url(#p604bb57f0a)" style="fill: #4c6a67"/>
   </g>
   <g id="patch_33">
    <path d="M 86.033437 431.615741 
L 1385.623438 431.615741 
" style="fill: none; stroke: #000000; stroke-width: 0.8; stroke-linejoin: miter; stroke-linecap: square"/>
   </g>
   <g id="text_22">
    <text style="font-weight: 700; font-size: 24px; font-family: 'Montserrat'; text-anchor: middle; fill: #ffffff" x="129.353104" y="390.099692" transform="rotate(-0 129.353104 390.099692)">2,507</text>
   </g>
   <g id="text_23">
    <text style="font-weight: 700; font-size: 24px; font-family: 'Montserrat'; text-anchor: middle; fill: #ffffff" x="129.353104" y="274.081167" transform="rotate(-0 129.353104 274.081167)">3,541</text>
   </g>
   <g id="text_24">
    <g id="patch_34">
     <path d="M 101.762479 190.696518 
L 156.943729 190.696518 
Q 172.943729 190.696518 172.943729 174.696518 
L 172.943729 181.974643 
Q 172.943729 165.974643 156.943729 165.974643 
L 101.762479 165.974643 
Q 85.762479 165.974643 85.762479 181.974643 
L 85.762479 174.696518 
Q 85.762479 190.696518 101.762479 190.696518 
L 101.762479 190.696518 
z
" style="fill: none; stroke: #002f2a; stroke-width: 1.5; stroke-linejoin: miter"/>
    </g>
    <text style="font-weight: 700; font-size: 20px; font-family: 'Montserrat'; text-anchor: middle" x="129.353104" y="183.815268" transform="rotate(-0 129.353104 183.815268)">  6,048  </text>
   </g>
   <g id="text_25">
    <text style="font-weight: 600; font-size: 22px; font-family: 'Montserrat'; text-anchor: middle; fill: #4c6a67" x="129.353104" y="135.898451" transform="rotate(-0 129.353104 135.898451)">10.4%</text>
   </g>
   <g id="text_26">
    <text style="font-weight: 700; font-size: 24px; font-family: 'Montserrat'; text-anchor: middle; fill: #ffffff" x="215.992437" y="425.146955" transform="rotate(-0 215.992437 425.146955)">680</text>
   </g>
   <g id="text_27">
    <text style="font-weight: 700; font-size: 24px; font-family: 'Montserrat'; text-anchor: middle; fill: #ffffff" x="215.992437" y="384.901111" transform="rotate(-0 215.992437 384.901111)">1,418</text>
   </g>
   <g id="text_28">
    <g id="patch_35">
     <path d="M 189.392437 342.241879 
L 242.592438 342.241879 
Q 258.592438 342.241879 258.592438 326.241879 
L 258.592438 333.520004 
Q 258.592438 317.520004 242.592438 317.520004 
L 189.392437 317.520004 
Q 173.392437 317.520004 173.392437 333.520004 
L 173.392437 326.241879 
Q 173.392437 342.241879 189.392437 342.241879 
L 189.392437 342.241879 
z
" style="fill: none; stroke: #002f2a; stroke-width: 1.5; stroke-linejoin: miter"/>
    </g>
    <text style="font-weight: 700; font-size: 20px; font-family: 'Montserrat'; text-anchor: middle" x="215.992437" y="335.360629" transform="rotate(-0 215.992437 335.360629)">  2,098  </text>
   </g>
   <g id="text_29">
    <text style="font-weight: 600; font-size: 22px; font-family: 'Montserrat'; text-anchor: middle; fill: #4c6a67" x="215.992437" y="287.443812" transform="rotate(-0 215.992437 287.443812)">3.6%</text>
   </g>
   <g id="text_30">
    <text style="font-weight: 700; font-size: 24px; font-family: 'Montserrat'; text-anchor: middle; fill: #ffffff" x="302.631771" y="421.636474" transform="rotate(-0 302.631771 421.636474)">863</text>
   </g>
   <g id="text_31">
    <text style="font-weight: 700; font-size: 24px; font-family: 'Montserrat'; text-anchor: middle; fill: #ffffff" x="302.631771" y="377.534855" transform="rotate(-0 302.631771 377.534855)">1,436</text>
   </g>
   <g id="text_32">
    <g id="patch_36">
     <path d="M 277.152083 334.530331 
L 328.111458 334.530331 
Q 344.111458 334.530331 344.111458 318.530331 
L 344.111458 325.808456 
Q 344.111458 309.808456 328.111458 309.808456 
L 277.152083 309.808456 
Q 261.152083 309.808456 261.152083 325.808456 
L 261.152083 318.530331 
Q 261.152083 334.530331 277.152083 334.530331 
L 277.152083 334.530331 
z
" style="fill: none; stroke: #002f2a; stroke-width: 1.5; stroke-linejoin: miter"/>
    </g>
    <text style="font-weight: 700; font-size: 20px; font-family: 'Montserrat'; text-anchor: middle" x="302.631771" y="327.649081" transform="rotate(-0 302.631771 327.649081)">  2,299  </text>
   </g>
   <g id="text_33">
    <text style="font-weight: 600; font-size: 22px; font-family: 'Montserrat'; text-anchor: middle; fill: #4c6a67" x="302.631771" y="279.732263" transform="rotate(-0 302.631771 279.732263)">4.0%</text>
   </g>
   <g id="text_34">
    <text style="font-weight: 700; font-size: 24px; font-family: 'Montserrat'; text-anchor: middle; fill: #ffffff" x="389.271104" y="421.521376" transform="rotate(-0 389.271104 421.521376)">869</text>
   </g>
   <g id="text_35">
    <text style="font-weight: 700; font-size: 24px; font-family: 'Montserrat'; text-anchor: middle; fill: #ffffff" x="389.271104" y="378.858479" transform="rotate(-0 389.271104 378.858479)">1,355</text>
   </g>
   <g id="text_36">
    <g id="patch_37">
     <path d="M 363.741417 337.407774 
L 414.800792 337.407774 
Q 430.800792 337.407774 430.800792 321.407774 
L 430.800792 328.685899 
Q 430.800792 312.685899 414.800792 312.685899 
L 363.741417 312.685899 
Q 347.741417 312.685899 347.741417 328.685899 
L 347.741417 321.407774 
Q 347.741417 337.407774 363.741417 337.407774 
L 363.741417 337.407774 
z
" style="fill: none; stroke: #002f2a; stroke-width: 1.5; stroke-linejoin: miter"/>
    </g>
    <text style="font-weight: 700; font-size: 20px; font-family: 'Montserrat'; text-anchor: middle" x="389.271104" y="330.526524" transform="rotate(-0 389.271104 330.526524)">  2,224  </text>
   </g>
   <g id="text_37">
    <text style="font-weight: 600; font-size: 22px; font-family: 'Montserrat'; text-anchor: middle; fill: #4c6a67" x="389.271104" y="282.609707" transform="rotate(-0 389.271104 282.609707)">3.8%</text>
   </g>
   <g id="text_38">
    <text style="font-weight: 700; font-size: 24px; font-family: 'Montserrat'; text-anchor: middle; fill: #ffffff" x="475.910438" y="423.056012" transform="rotate(-0 475.910438 423.056012)">789</text>
   </g>
   <g id="text_39">
    <text style="font-weight: 700; font-size: 24px; font-family: 'Montserrat'; text-anchor: middle; fill: #ffffff" x="475.910438" y="383.539121" transform="rotate(-0 475.910438 383.539121)">1,271</text>
   </g>
   <g id="text_40">
    <g id="patch_38">
     <path d="M 449.119813 343.699784 
L 502.701063 343.699784 
Q 518.701063 343.699784 518.701063 327.699784 
L 518.701063 334.977909 
Q 518.701063 318.977909 502.701063 318.977909 
L 449.119813 318.977909 
Q 433.119813 318.977909 433.119813 334.977909 
L 433.119813 327.699784 
Q 433.119813 343.699784 449.119813 343.699784 
L 449.119813 343.699784 
z
" style="fill: none; stroke: #002f2a; stroke-width: 1.5; stroke-linejoin: miter"/>
    </g>
    <text style="font-weight: 700; font-size: 20px; font-family: 'Montserrat'; text-anchor: middle" x="475.910438" y="336.818534" transform="rotate(-0 475.910438 336.818534)">  2,060  </text>
   </g>
   <g id="text_41">
    <text style="font-weight: 600; font-size: 22px; font-family: 'Montserrat'; text-anchor: middle; fill: #4c6a67" x="475.910438" y="288.901717" transform="rotate(-0 475.910438 288.901717)">3.5%</text>
   </g>
   <g id="text_42">
    <text style="font-weight: 700; font-size: 24px; font-family: 'Montserrat'; text-anchor: middle; fill: #ffffff" x="562.549771" y="419.583897" transform="rotate(-0 562.549771 419.583897)">970</text>
   </g>
   <g id="text_43">
    <text style="font-weight: 700; font-size: 24px; font-family: 'Montserrat'; text-anchor: middle; fill: #ffffff" x="562.549771" y="373.02686" transform="rotate(-0 562.549771 373.02686)">1,457</text>
   </g>
   <g id="text_44">
    <g id="patch_39">
     <path d="M 536.720083 329.619493 
L 588.379458 329.619493 
Q 604.379458 329.619493 604.379458 313.619493 
L 604.379458 320.897618 
Q 604.379458 304.897618 588.379458 304.897618 
L 536.720083 304.897618 
Q 520.720083 304.897618 520.720083 320.897618 
L 520.720083 313.619493 
Q 520.720083 329.619493 536.720083 329.619493 
L 536.720083 329.619493 
z
" style="fill: none; stroke: #002f2a; stroke-width: 1.5; stroke-linejoin: miter"/>
    </g>
    <text style="font-weight: 700; font-size: 20px; font-family: 'Montserrat'; text-anchor: middle" x="562.549771" y="322.738243" transform="rotate(-0 562.549771 322.738243)">  2,427  </text>
   </g>
   <g id="text_45">
    <text style="font-weight: 600; font-size: 22px; font-family: 'Montserrat'; text-anchor: middle; fill: #4c6a67" x="562.549771" y="274.821426" transform="rotate(-0 562.549771 274.821426)">4.2%</text>
   </g>
   <g id="text_46">
    <text style="font-weight: 700; font-size: 24px; font-family: 'Montserrat'; text-anchor: middle; fill: #ffffff" x="649.189104" y="417.665601" transform="rotate(-0 649.189104 417.665601)">1,070</text>
   </g>
   <g id="text_47">
    <text style="font-weight: 700; font-size: 24px; font-family: 'Montserrat'; text-anchor: middle; fill: #ffffff" x="649.189104" y="360.327742" transform="rotate(-0 649.189104 360.327742)">1,919</text>
   </g>
   <g id="text_48">
    <g id="patch_40">
     <path d="M 623.009417 308.05785 
L 675.368792 308.05785 
Q 691.368792 308.05785 691.368792 292.05785 
L 691.368792 299.335975 
Q 691.368792 283.335975 675.368792 283.335975 
L 623.009417 283.335975 
Q 607.009417 283.335975 607.009417 299.335975 
L 607.009417 292.05785 
Q 607.009417 308.05785 623.009417 308.05785 
L 623.009417 308.05785 
z
" style="fill: none; stroke: #002f2a; stroke-width: 1.5; stroke-linejoin: miter"/>
    </g>
    <text style="font-weight: 700; font-size: 20px; font-family: 'Montserrat'; text-anchor: middle" x="649.189104" y="301.1766" transform="rotate(-0 649.189104 301.1766)">  2,989  </text>
   </g>
   <g id="text_49">
    <text style="font-weight: 600; font-size: 22px; font-family: 'Montserrat'; text-anchor: middle; fill: #4c6a67" x="649.189104" y="253.259782" transform="rotate(-0 649.189104 253.259782)">5.2%</text>
   </g>
   <g id="text_50">
    <text style="font-weight: 700; font-size: 24px; font-family: 'Montserrat'; text-anchor: middle; fill: #ffffff" x="735.828438" y="426.144468" transform="rotate(-0 735.828438 426.144468)">628</text>
   </g>
   <g id="text_51">
    <text style="font-weight: 700; font-size: 24px; font-family: 'Montserrat'; text-anchor: middle; fill: #ffffff" x="735.828438" y="379.625797" transform="rotate(-0 735.828438 379.625797)">1,797</text>
   </g>
   <g id="text_52">
    <g id="patch_41">
     <path d="M 710.24875 329.696225 
L 761.408125 329.696225 
Q 777.408125 329.696225 777.408125 313.696225 
L 777.408125 320.97435 
Q 777.408125 304.97435 761.408125 304.97435 
L 710.24875 304.97435 
Q 694.24875 304.97435 694.24875 320.97435 
L 694.24875 313.696225 
Q 694.24875 329.696225 710.24875 329.696225 
L 710.24875 329.696225 
z
" style="fill: none; stroke: #002f2a; stroke-width: 1.5; stroke-linejoin: miter"/>
    </g>
    <text style="font-weight: 700; font-size: 20px; font-family: 'Montserrat'; text-anchor: middle" x="735.828438" y="322.814975" transform="rotate(-0 735.828438 322.814975)">  2,425  </text>
   </g>
   <g id="text_53">
    <text style="font-weight: 600; font-size: 22px; font-family: 'Montserrat'; text-anchor: middle; fill: #4c6a67" x="735.828438" y="274.898158" transform="rotate(-0 735.828438 274.898158)">4.2%</text>
   </g>
   <g id="text_54">
    <text style="font-weight: 700; font-size: 24px; font-family: 'Montserrat'; text-anchor: middle; fill: #ffffff" x="822.467771" y="425.05104" transform="rotate(-0 822.467771 425.05104)">685</text>
   </g>
   <g id="text_55">
    <text style="font-weight: 700; font-size: 24px; font-family: 'Montserrat'; text-anchor: middle; fill: #ffffff" x="822.467771" y="368.28867" transform="rotate(-0 822.467771 368.28867)">2,274</text>
   </g>
   <g id="text_56">
    <g id="patch_42">
     <path d="M 796.938083 309.208827 
L 847.997458 309.208827 
Q 863.997458 309.208827 863.997458 293.208827 
L 863.997458 300.486952 
Q 863.997458 284.486952 847.997458 284.486952 
L 796.938083 284.486952 
Q 780.938083 284.486952 780.938083 300.486952 
L 780.938083 293.208827 
Q 780.938083 309.208827 796.938083 309.208827 
L 796.938083 309.208827 
z
" style="fill: none; stroke: #002f2a; stroke-width: 1.5; stroke-linejoin: miter"/>
    </g>
    <text style="font-weight: 700; font-size: 20px; font-family: 'Montserrat'; text-anchor: middle" x="822.467771" y="302.327577" transform="rotate(-0 822.467771 302.327577)">  2,959  </text>
   </g>
   <g id="text_57">
    <text style="font-weight: 600; font-size: 22px; font-family: 'Montserrat'; text-anchor: middle; fill: #4c6a67" x="822.467771" y="254.41076" transform="rotate(-0 822.467771 254.41076)">5.1%</text>
   </g>
   <g id="text_58">
    <text style="font-weight: 700; font-size: 24px; font-family: 'Montserrat'; text-anchor: middle; fill: #ffffff" x="909.107104" y="415.402012" transform="rotate(-0 909.107104 415.402012)">1,188</text>
   </g>
   <g id="text_59">
    <text style="font-weight: 700; font-size: 24px; font-family: 'Montserrat'; text-anchor: middle; fill: #ffffff" x="909.107104" y="341.873738" transform="rotate(-0 909.107104 341.873738)">2,645</text>
   </g>
   <g id="text_60">
    <g id="patch_43">
     <path d="M 883.807104 275.677018 
L 934.407104 275.677018 
Q 950.407104 275.677018 950.407104 259.677018 
L 950.407104 266.955143 
Q 950.407104 250.955143 934.407104 250.955143 
L 883.807104 250.955143 
Q 867.807104 250.955143 867.807104 266.955143 
L 867.807104 259.677018 
Q 867.807104 275.677018 883.807104 275.677018 
L 883.807104 275.677018 
z
" style="fill: none; stroke: #002f2a; stroke-width: 1.5; stroke-linejoin: miter"/>
    </g>
    <text style="font-weight: 700; font-size: 20px; font-family: 'Montserrat'; text-anchor: middle" x="909.107104" y="268.795768" transform="rotate(-0 909.107104 268.795768)">  3,833  </text>
   </g>
   <g id="text_61">
    <text style="font-weight: 600; font-size: 22px; font-family: 'Montserrat'; text-anchor: middle; fill: #4c6a67" x="909.107104" y="220.878951" transform="rotate(-0 909.107104 220.878951)">6.6%</text>
   </g>
   <g id="text_62">
    <text style="font-weight: 700; font-size: 24px; font-family: 'Montserrat'; text-anchor: middle; fill: #ffffff" x="995.746438" y="406.750499" transform="rotate(-0 995.746438 406.750499)">1,639</text>
   </g>
   <g id="text_63">
    <text style="font-weight: 700; font-size: 24px; font-family: 'Montserrat'; text-anchor: middle; fill: #ffffff" x="995.746438" y="315.516355" transform="rotate(-0 995.746438 315.516355)">3,117</text>
   </g>
   <g id="text_64">
    <g id="patch_44">
     <path d="M 969.396438 240.265279 
L 1022.096438 240.265279 
Q 1038.096438 240.265279 1038.096438 224.265279 
L 1038.096438 231.543404 
Q 1038.096438 215.543404 1022.096438 215.543404 
L 969.396438 215.543404 
Q 953.396438 215.543404 953.396438 231.543404 
L 953.396438 224.265279 
Q 953.396438 240.265279 969.396438 240.265279 
L 969.396438 240.265279 
z
" style="fill: none; stroke: #002f2a; stroke-width: 1.5; stroke-linejoin: miter"/>
    </g>
    <text style="font-weight: 700; font-size: 20px; font-family: 'Montserrat'; text-anchor: middle" x="995.746438" y="233.384029" transform="rotate(-0 995.746438 233.384029)">  4,756  </text>
   </g>
   <g id="text_65">
    <text style="font-weight: 600; font-size: 22px; font-family: 'Montserrat'; text-anchor: middle; fill: #4c6a67" x="995.746438" y="185.467212" transform="rotate(-0 995.746438 185.467212)">8.2%</text>
   </g>
   <g id="text_66">
    <text style="font-weight: 700; font-size: 24px; font-family: 'Montserrat'; text-anchor: middle; fill: #ffffff" x="1082.385771" y="409.263466" transform="rotate(-0 1082.385771 409.263466)">1,508</text>
   </g>
   <g id="text_67">
    <text style="font-weight: 700; font-size: 24px; font-family: 'Montserrat'; text-anchor: middle; fill: #ffffff" x="1082.385771" y="325.587407" transform="rotate(-0 1082.385771 325.587407)">2,854</text>
   </g>
   <g id="text_68">
    <g id="patch_45">
     <path d="M 1056.365458 255.381449 
L 1108.406083 255.381449 
Q 1124.406083 255.381449 1124.406083 239.381449 
L 1124.406083 246.659574 
Q 1124.406083 230.659574 1108.406083 230.659574 
L 1056.365458 230.659574 
Q 1040.365458 230.659574 1040.365458 246.659574 
L 1040.365458 239.381449 
Q 1040.365458 255.381449 1056.365458 255.381449 
L 1056.365458 255.381449 
z
" style="fill: none; stroke: #002f2a; stroke-width: 1.5; stroke-linejoin: miter"/>
    </g>
    <text style="font-weight: 700; font-size: 20px; font-family: 'Montserrat'; text-anchor: middle" x="1082.385771" y="248.500199" transform="rotate(-0 1082.385771 248.500199)">  4,362  </text>
   </g>
   <g id="text_69">
    <text style="font-weight: 600; font-size: 22px; font-family: 'Montserrat'; text-anchor: middle; fill: #4c6a67" x="1082.385771" y="200.583382" transform="rotate(-0 1082.385771 200.583382)">7.5%</text>
   </g>
   <g id="text_70">
    <text style="font-weight: 700; font-size: 24px; font-family: 'Montserrat'; text-anchor: middle; fill: #ffffff" x="1169.025104" y="395.125627" transform="rotate(-0 1169.025104 395.125627)">2,245</text>
   </g>
   <g id="text_71">
    <text style="font-weight: 700; font-size: 24px; font-family: 'Montserrat'; text-anchor: middle; fill: #ffffff" x="1169.025104" y="278.167137" transform="rotate(-0 1169.025104 278.167137)">3,852</text>
   </g>
   <g id="text_72">
    <g id="patch_46">
     <path d="M 1142.354792 188.816588 
L 1195.695417 188.816588 
Q 1211.695417 188.816588 1211.695417 172.816588 
L 1211.695417 180.094713 
Q 1211.695417 164.094713 1195.695417 164.094713 
L 1142.354792 164.094713 
Q 1126.354792 164.094713 1126.354792 180.094713 
L 1126.354792 172.816588 
Q 1126.354792 188.816588 1142.354792 188.816588 
L 1142.354792 188.816588 
z
" style="fill: none; stroke: #002f2a; stroke-width: 1.5; stroke-linejoin: miter"/>
    </g>
    <text style="font-weight: 700; font-size: 20px; font-family: 'Montserrat'; text-anchor: middle" x="1169.025104" y="181.935338" transform="rotate(-0 1169.025104 181.935338)">  6,097  </text>
   </g>
   <g id="text_73">
    <text style="font-weight: 600; font-size: 22px; font-family: 'Montserrat'; text-anchor: middle; fill: #4c6a67" x="1169.025104" y="134.018521" transform="rotate(-0 1169.025104 134.018521)">10.5%</text>
   </g>
   <g id="text_74">
    <text style="font-weight: 700; font-size: 24px; font-family: 'Montserrat'; text-anchor: middle; fill: #ffffff" x="1255.664438" y="378.129527" transform="rotate(-0 1255.664438 378.129527)">3,131</text>
   </g>
   <g id="text_75">
    <text style="font-weight: 700; font-size: 24px; font-family: 'Montserrat'; text-anchor: middle; fill: #ffffff" x="1255.664438" y="205.92412" transform="rotate(-0 1255.664438 205.92412)">5,846</text>
   </g>
   <g id="text_76">
    <g id="patch_47">
     <path d="M 1229.355063 78.322755 
L 1281.973813 78.322755 
Q 1297.973813 78.322755 1297.973813 62.322755 
L 1297.973813 69.60088 
Q 1297.973813 53.60088 1281.973813 53.60088 
L 1229.355063 53.60088 
Q 1213.355063 53.60088 1213.355063 69.60088 
L 1213.355063 62.322755 
Q 1213.355063 78.322755 1229.355063 78.322755 
L 1229.355063 78.322755 
z
" style="fill: none; stroke: #002f2a; stroke-width: 1.5; stroke-linejoin: miter"/>
    </g>
    <text style="font-weight: 700; font-size: 20px; font-family: 'Montserrat'; text-anchor: middle" x="1255.664438" y="71.441505" transform="rotate(-0 1255.664438 71.441505)">  8,977  </text>
   </g>
   <g id="text_77">
    <text style="font-weight: 600; font-size: 22px; font-family: 'Montserrat'; text-anchor: middle; fill: #4c6a67" x="1255.664438" y="23.524688" transform="rotate(-0 1255.664438 23.524688)">15.5%</text>
   </g>
   <g id="text_78">
    <text style="font-weight: 700; font-size: 24px; font-family: 'Montserrat'; text-anchor: middle; fill: #ffffff" x="1342.303771" y="342.871251" transform="rotate(-0 1342.303771 342.871251)">3,995</text>
   </g>
   <g id="text_79">
    <g id="patch_48">
     <path d="M 1315.083458 250.77754 
L 1369.524083 250.77754 
Q 1385.524083 250.77754 1385.524083 234.77754 
L 1385.524083 242.055665 
Q 1385.524083 226.055665 1369.524083 226.055665 
L 1315.083458 226.055665 
Q 1299.083458 226.055665 1299.083458 242.055665 
L 1299.083458 234.77754 
Q 1299.083458 250.77754 1315.083458 250.77754 
L 1315.083458 250.77754 
z
" style="fill: none; stroke: #002f2a; stroke-width: 1.5; stroke-linejoin: miter"/>
    </g>
    <text style="font-weight: 700; font-size: 20px; font-family: 'Montserrat'; text-anchor: middle" x="1342.303771" y="243.89629" transform="rotate(-0 1342.303771 243.89629)">  4,482  </text>
   </g>
   <g id="text_80">
    <text style="font-weight: 600; font-size: 22px; font-family: 'Montserrat'; text-anchor: middle; fill: #4c6a67" x="1342.303771" y="195.979472" transform="rotate(-0 1342.303771 195.979472)">7.7%</text>
   </g>
   <g id="legend_1">
    <g id="patch_49">
     <path d="M 505.876563 46.937511 
L 529.876563 46.937511 
L 529.876563 25.457511 
L 505.876563 25.457511 
z
" style="fill: #10302c"/>
    </g>
    <g id="text_81">
     <text style="font-size: 24px; font-family: 'DejaVu Sans', 'Bitstream Vera Sans', 'Computer Modern Sans Serif', 'Lucida Grande', 'Verdana', 'Geneva', 'Lucid', 'Arial', 'Helvetica', 'Avant Garde', sans-serif; text-anchor: start" x="549.076563" y="44.417511" transform="rotate(-0 549.076563 44.417511)">Movimiento</text>
    </g>
    <g id="patch_50">
     <path d="M 737.457813 46.937511 
L 761.457813 46.937511 
L 761.457813 25.457511 
L 737.457813 25.457511 
z
" style="fill: #4c6a67"/>
    </g>
    <g id="text_82">
     <text style="font-size: 24px; font-family: 'DejaVu Sans', 'Bitstream Vera Sans', 'Computer Modern Sans Serif', 'Lucida Grande', 'Verdana', 'Geneva', 'Lucid', 'Arial', 'Helvetica', 'Avant Garde', sans-serif; text-anchor: start" x="780.657813" y="44.417511" transform="rotate(-0 780.657813 44.417511)">Sin Movimiento</text>
    </g>
   </g>
  </g>
 </g>
 <defs>
  <clipPath id="p604bb57f0a">
   <rect x="86.033438" y="35.543306" width="1299.59" height="396.072435"/>
  </clipPath>
 </defs>
</svg>
